<svg width="92" height="122" viewBox="0 0 92 122" fill="none" xmlns="http://www.w3.org/2000/svg">
<path d="M60.5127 40.0893C60.5127 57.188 47.1296 71.0493 30.6206 71.0493C14.1117 71.0493 0.728516 57.188 0.728516 40.0893C0.728516 22.9906 14.1117 9.12939 30.6206 9.12939C47.1296 9.12939 60.5127 22.9906 60.5127 40.0893Z" fill="#FBE5A5"/>
<g clip-path="url(#clip0_108_34)">
<path fill-rule="evenodd" clip-rule="evenodd" d="M33.0449 35.6658L40.9752 121.097L78.8244 120.736L85.6732 34.9448L33.0449 35.6658Z" fill="#F0EA88" stroke="#857B61" stroke-width="7.46667" stroke-linejoin="round"/>
<path d="M48.9802 99.4044C49.7333 98.9891 50.6204 98.8897 51.4467 99.1282C52.273 99.3668 52.9707 99.9236 53.3866 100.676C53.8025 101.429 53.9025 102.316 53.6646 103.143C53.4267 103.969 52.8704 104.667 52.118 105.084C51.3655 105.5 50.4785 105.601 49.6519 105.363C48.8253 105.126 48.1267 104.57 47.7097 103.818C47.2927 103.066 47.1913 102.179 47.428 101.353C47.6646 100.526 48.2198 99.8267 48.9717 99.4091" fill="#56463A"/>
<path d="M48.9802 99.4044C49.7333 98.9891 50.6204 98.8897 51.4467 99.1282C52.273 99.3668 52.9707 99.9236 53.3866 100.676C53.8025 101.429 53.9025 102.316 53.6646 103.143C53.4267 103.969 52.8704 104.667 52.118 105.084C51.3655 105.5 50.4785 105.601 49.6519 105.363C48.8253 105.126 48.1267 104.57 47.7097 103.818C47.2927 103.066 47.1913 102.179 47.428 101.353C47.6646 100.526 48.2198 99.8267 48.9717 99.4091" stroke="#937E42" stroke-width="2" stroke-linecap="round" stroke-linejoin="round"/>
<path fill-rule="evenodd" clip-rule="evenodd" d="M44.5781 3.58405L51.7875 87.9336L53.2294 115.69C53.2294 115.69 62.6044 115.329 60.0782 115.329L54.6712 33.5029C54.6712 33.5029 53.3891 2.68017 51.7875 2.86312C48.5383 3.23424 44.5781 3.58405 44.5781 3.58405Z" fill="#89B480" stroke="#857B61" stroke-linecap="round" stroke-linejoin="round"/>
<path d="M58.1521 101.314C58.9052 100.898 59.7923 100.799 60.6186 101.037C61.4448 101.276 62.1426 101.833 62.5585 102.585C62.9743 103.338 63.0743 104.225 62.8365 105.052C62.5986 105.878 62.0423 106.576 61.2898 106.993C60.5374 107.409 59.6504 107.51 58.8238 107.273C57.9972 107.035 57.2986 106.48 56.8816 105.728C56.4645 104.975 56.3632 104.088 56.5998 103.262C56.8365 102.435 57.3917 101.736 58.1435 101.318" fill="#56463A"/>
<path d="M58.1521 101.314C58.9052 100.898 59.7923 100.799 60.6186 101.037C61.4448 101.276 62.1426 101.833 62.5585 102.585C62.9743 103.338 63.0743 104.225 62.8365 105.052C62.5986 105.878 62.0423 106.576 61.2898 106.993C60.5374 107.409 59.6504 107.51 58.8238 107.273C57.9972 107.035 57.2986 106.48 56.8816 105.728C56.4645 104.975 56.3632 104.088 56.5998 103.262C56.8365 102.435 57.3917 101.736 58.1435 101.318" stroke="#937E42" stroke-width="2" stroke-linecap="round" stroke-linejoin="round"/>
<path fill-rule="evenodd" clip-rule="evenodd" d="M47.1016 34.9448L51.7876 87.9336L53.2295 115.69C53.2295 115.69 62.6045 115.329 60.0784 115.329L54.6714 33.5029C54.6714 33.5029 54.4687 34.0239 52.8691 34.2239C47.1016 34.9448 47.1016 34.9448 47.1016 34.9448Z" fill="#81A47A" stroke="#726A55"/>
<path d="M89.4615 31.7007H30.697C30.0025 31.7007 29.4395 32.7497 29.4395 34.0437C29.4395 35.3377 30.0025 36.3868 30.697 36.3868H89.4615C90.156 36.3868 90.719 35.3377 90.719 34.0437C90.719 32.7497 90.156 31.7007 89.4615 31.7007Z" fill="#D6D6D6" stroke="#857B61" stroke-width="7.46667" stroke-linecap="round" stroke-linejoin="round"/>
<path d="M62.8376 94.1046C63.5907 93.6893 64.4779 93.5899 65.3041 93.8284C66.1304 94.0669 66.8281 94.6238 67.244 95.3765C67.6599 96.1293 67.7599 97.0163 67.522 97.8428C67.2841 98.6692 66.7278 99.3674 65.9754 99.7838C65.223 100.2 64.336 100.301 63.5093 100.064C62.6827 99.8264 61.9841 99.2707 61.5671 98.5185C61.1501 97.7664 61.0488 96.8795 61.2854 96.0527C61.522 95.2259 62.0773 94.5269 62.8291 94.1093" fill="#56463A"/>
<path d="M62.8376 94.1046C63.5907 93.6893 64.4779 93.5899 65.3041 93.8284C66.1304 94.0669 66.8281 94.6238 67.244 95.3765C67.6599 96.1293 67.7599 97.0163 67.522 97.8428C67.2841 98.6692 66.7278 99.3674 65.9754 99.7838C65.223 100.2 64.336 100.301 63.5093 100.064C62.6827 99.8264 61.9841 99.2707 61.5671 98.5185C61.1501 97.7664 61.0488 96.8795 61.2854 96.0527C61.522 95.2259 62.0773 94.5269 62.8291 94.1093" stroke="#937E42" stroke-width="2" stroke-linecap="round" stroke-linejoin="round"/>
<path d="M66.699 102.344C67.452 101.929 68.3392 101.83 69.1654 102.068C69.9917 102.307 70.6895 102.864 71.1053 103.616C71.5212 104.369 71.6212 105.256 71.3833 106.083C71.1454 106.909 70.5892 107.607 69.8367 108.024C69.0843 108.44 68.1973 108.541 67.3707 108.303C66.544 108.066 65.8455 107.51 65.4284 106.758C65.0114 106.006 64.9101 105.119 65.1467 104.292C65.3834 103.466 65.9386 102.767 66.6904 102.349" fill="#56463A"/>
<path d="M66.699 102.344C67.452 101.929 68.3392 101.83 69.1654 102.068C69.9917 102.307 70.6895 102.864 71.1053 103.616C71.5212 104.369 71.6212 105.256 71.3833 106.083C71.1454 106.909 70.5892 107.607 69.8367 108.024C69.0843 108.44 68.1973 108.541 67.3707 108.303C66.544 108.066 65.8455 107.51 65.4284 106.758C65.0114 106.006 64.9101 105.119 65.1467 104.292C65.3834 103.466 65.9386 102.767 66.6904 102.349" stroke="#937E42" stroke-width="2" stroke-linecap="round" stroke-linejoin="round"/>
<path d="M74.7341 94.8253C75.4872 94.41 76.3743 94.3106 77.2006 94.5491C78.0269 94.7877 78.7246 95.3445 79.1405 96.0972C79.5564 96.85 79.6564 97.737 79.4185 98.5635C79.1806 99.3899 78.6243 100.088 77.8719 100.505C77.1194 100.921 76.2324 101.022 75.4058 100.784C74.5792 100.547 73.8806 99.9914 73.4636 99.2393C73.0466 98.4871 72.9452 97.6002 73.1819 96.7734C73.4185 95.9466 73.9738 95.2476 74.7256 94.83" fill="#56463A"/>
<path d="M74.7341 94.8253C75.4872 94.41 76.3743 94.3106 77.2006 94.5491C78.0269 94.7877 78.7246 95.3445 79.1405 96.0972C79.5564 96.85 79.6564 97.737 79.4185 98.5635C79.1806 99.3899 78.6243 100.088 77.8719 100.505C77.1194 100.921 76.2324 101.022 75.4058 100.784C74.5792 100.547 73.8806 99.9914 73.4636 99.2393C73.0466 98.4871 72.9452 97.6002 73.1819 96.7734C73.4185 95.9466 73.9738 95.2476 74.7256 94.83" stroke="#937E42" stroke-width="2" stroke-linecap="round" stroke-linejoin="round"/>
<path d="M59.1833 105.994C59.9364 105.579 60.8236 105.48 61.6498 105.718C62.4761 105.957 63.1738 106.513 63.5897 107.266C64.0056 108.019 64.1056 108.906 63.8677 109.732C63.6298 110.559 63.0735 111.257 62.3211 111.673C61.5687 112.09 60.6817 112.191 59.855 111.953C59.0284 111.716 58.3298 111.16 57.9128 110.408C57.4958 109.656 57.3945 108.769 57.6311 107.942C57.8677 107.116 58.423 106.417 59.1748 105.999" fill="#56463A"/>
<path d="M59.1833 105.994C59.9364 105.579 60.8236 105.48 61.6498 105.718C62.4761 105.957 63.1738 106.513 63.5897 107.266C64.0056 108.019 64.1056 108.906 63.8677 109.732C63.6298 110.559 63.0735 111.257 62.3211 111.673C61.5687 112.09 60.6817 112.191 59.855 111.953C59.0284 111.716 58.3298 111.16 57.9128 110.408C57.4958 109.656 57.3945 108.769 57.6311 107.942C57.8677 107.116 58.423 106.417 59.1748 105.999" stroke="#937E42" stroke-width="2" stroke-linecap="round" stroke-linejoin="round"/>
<path d="M69.6873 112.488C70.4403 112.073 71.3275 111.974 72.1537 112.212C72.98 112.451 73.6777 113.008 74.0936 113.76C74.5095 114.513 74.6095 115.4 74.3716 116.227C74.1337 117.053 73.5774 117.751 72.825 118.168C72.0726 118.584 71.1856 118.685 70.3589 118.447C69.5323 118.21 68.8337 117.654 68.4167 116.902C67.9997 116.15 67.8984 115.263 68.135 114.436C68.3716 113.61 68.9269 112.911 69.6787 112.493" fill="#56463A"/>
<path d="M69.6873 112.488C70.4403 112.073 71.3275 111.974 72.1537 112.212C72.98 112.451 73.6777 113.008 74.0936 113.76C74.5095 114.513 74.6095 115.4 74.3716 116.227C74.1337 117.053 73.5774 117.751 72.825 118.168C72.0726 118.584 71.1856 118.685 70.3589 118.447C69.5323 118.21 68.8337 117.654 68.4167 116.902C67.9997 116.15 67.8984 115.263 68.135 114.436C68.3716 113.61 68.9269 112.911 69.6787 112.493" stroke="#937E42" stroke-width="2" stroke-linecap="round" stroke-linejoin="round"/>
<path d="M74.0134 105.279C74.7665 104.864 75.6536 104.764 76.4799 105.003C77.3062 105.241 78.0039 105.798 78.4198 106.551C78.8357 107.304 78.9357 108.191 78.6978 109.017C78.4599 109.844 77.9036 110.542 77.1512 110.958C76.3987 111.375 75.5117 111.475 74.6851 111.238C73.8585 111.001 73.1599 110.445 72.7429 109.693C72.3259 108.941 72.2245 108.054 72.4612 107.227C72.6978 106.4 73.2531 105.701 74.0049 105.284" fill="#56463A"/>
<path d="M74.0134 105.279C74.7665 104.864 75.6536 104.764 76.4799 105.003C77.3062 105.241 78.0039 105.798 78.4198 106.551C78.8357 107.304 78.9357 108.191 78.6978 109.017C78.4599 109.844 77.9036 110.542 77.1512 110.958C76.3987 111.375 75.5117 111.475 74.6851 111.238C73.8585 111.001 73.1599 110.445 72.7429 109.693C72.3259 108.941 72.2245 108.054 72.4612 107.227C72.6978 106.4 73.2531 105.701 74.0049 105.284" stroke="#937E42" stroke-width="2" stroke-linecap="round" stroke-linejoin="round"/>
<path d="M60.5154 113.361C61.2684 112.946 62.1556 112.847 62.9819 113.085C63.8081 113.324 64.5059 113.881 64.9218 114.633C65.3376 115.386 65.4376 116.273 65.1997 117.1C64.9619 117.926 64.4056 118.624 63.6531 119.041C62.9007 119.457 62.0137 119.558 61.1871 119.321C60.3605 119.083 59.6619 118.528 59.2448 117.775C58.8278 117.023 58.7265 116.136 58.9631 115.31C59.1998 114.483 59.755 113.784 60.5068 113.366" fill="#56463A"/>
<path d="M60.5154 113.361C61.2684 112.946 62.1556 112.847 62.9819 113.085C63.8081 113.324 64.5059 113.881 64.9218 114.633C65.3376 115.386 65.4376 116.273 65.1997 117.1C64.9619 117.926 64.4056 118.624 63.6531 119.041C62.9007 119.457 62.0137 119.558 61.1871 119.321C60.3605 119.083 59.6619 118.528 59.2448 117.775C58.8278 117.023 58.7265 116.136 58.9631 115.31C59.1998 114.483 59.755 113.784 60.5068 113.366" stroke="#937E42" stroke-width="2" stroke-linecap="round" stroke-linejoin="round"/>
<path d="M52.7459 113.209C53.4989 112.794 54.3861 112.694 55.2123 112.933C56.0386 113.171 56.7363 113.728 57.1522 114.481C57.5681 115.234 57.6681 116.121 57.4302 116.947C57.1923 117.774 56.636 118.472 55.8836 118.888C55.1312 119.305 54.2442 119.405 53.4175 119.168C52.5909 118.931 51.8923 118.375 51.4753 117.623C51.0583 116.871 50.957 115.984 51.1936 115.157C51.4302 114.33 51.9855 113.631 52.7373 113.214" fill="#56463A"/>
<path d="M52.7459 113.209C53.4989 112.794 54.3861 112.694 55.2123 112.933C56.0386 113.171 56.7363 113.728 57.1522 114.481C57.5681 115.234 57.6681 116.121 57.4302 116.947C57.1923 117.774 56.636 118.472 55.8836 118.888C55.1312 119.305 54.2442 119.405 53.4175 119.168C52.5909 118.931 51.8923 118.375 51.4753 117.623C51.0583 116.871 50.957 115.984 51.1936 115.157C51.4302 114.33 51.9855 113.631 52.7373 113.214" stroke="#937E42" stroke-width="2" stroke-linecap="round" stroke-linejoin="round"/>
<path d="M46.9783 108.884C47.7313 108.469 48.6185 108.369 49.4447 108.608C50.271 108.846 50.9687 109.403 51.3846 110.156C51.8005 110.909 51.9005 111.796 51.6626 112.622C51.4247 113.449 50.8684 114.147 50.116 114.563C49.3636 114.98 48.4766 115.08 47.65 114.843C46.8233 114.606 46.1248 114.05 45.7077 113.298C45.2907 112.546 45.1894 111.659 45.426 110.832C45.6627 110.005 46.2179 109.306 46.9697 108.889" fill="#56463A"/>
<path d="M46.9783 108.884C47.7313 108.469 48.6185 108.369 49.4447 108.608C50.271 108.846 50.9687 109.403 51.3846 110.156C51.8005 110.909 51.9005 111.796 51.6626 112.622C51.4247 113.449 50.8684 114.147 50.116 114.563C49.3636 114.98 48.4766 115.08 47.65 114.843C46.8233 114.606 46.1248 114.05 45.7077 113.298C45.2907 112.546 45.1894 111.659 45.426 110.832C45.6627 110.005 46.2179 109.306 46.9697 108.889" stroke="#937E42" stroke-width="2" stroke-linecap="round" stroke-linejoin="round"/>
<path d="M41.5564 101.139C42.3095 100.724 43.1966 100.625 44.0229 100.863C44.8491 101.102 45.5469 101.658 45.9628 102.411C46.3786 103.164 46.4786 104.051 46.2408 104.877C46.0029 105.704 45.4466 106.402 44.6941 106.819C43.9417 107.235 43.0547 107.336 42.2281 107.098C41.4015 106.861 40.7029 106.305 40.2859 105.553C39.8688 104.801 39.7675 103.914 40.0041 103.087C40.2408 102.261 40.796 101.562 41.5478 101.144" fill="#56463A"/>
<path d="M41.5564 101.139C42.3095 100.724 43.1966 100.625 44.0229 100.863C44.8491 101.102 45.5469 101.658 45.9628 102.411C46.3786 103.164 46.4786 104.051 46.2408 104.877C46.0029 105.704 45.4466 106.402 44.6941 106.819C43.9417 107.235 43.0547 107.336 42.2281 107.098C41.4015 106.861 40.7029 106.305 40.2859 105.553C39.8688 104.801 39.7675 103.914 40.0041 103.087C40.2408 102.261 40.796 101.562 41.5478 101.144" stroke="#937E42" stroke-width="2" stroke-linecap="round" stroke-linejoin="round"/>
<path d="M45.0251 112.587C45.7782 112.172 46.6654 112.072 47.4916 112.311C48.3179 112.549 49.0156 113.106 49.4315 113.859C49.8474 114.612 49.9474 115.499 49.7095 116.325C49.4716 117.152 48.9153 117.85 48.1629 118.266C47.4105 118.683 46.5235 118.783 45.6968 118.546C44.8702 118.309 44.1716 117.753 43.7546 117.001C43.3376 116.249 43.2363 115.362 43.4729 114.535C43.7095 113.708 44.2648 113.009 45.0166 112.592" fill="#56463A"/>
<path d="M45.0251 112.587C45.7782 112.172 46.6654 112.072 47.4916 112.311C48.3179 112.549 49.0156 113.106 49.4315 113.859C49.8474 114.612 49.9474 115.499 49.7095 116.325C49.4716 117.152 48.9153 117.85 48.1629 118.266C47.4105 118.683 46.5235 118.783 45.6968 118.546C44.8702 118.309 44.1716 117.753 43.7546 117.001C43.3376 116.249 43.2363 115.362 43.4729 114.535C43.7095 113.708 44.2648 113.009 45.0166 112.592" stroke="#937E42" stroke-width="2" stroke-linecap="round" stroke-linejoin="round"/>
<path d="M42.3923 93.3809C43.1454 92.9656 44.0325 92.8663 44.8588 93.1048C45.6851 93.3433 46.3828 93.9001 46.7987 94.6529C47.2146 95.4056 47.3146 96.2927 47.0767 97.1191C46.8388 97.9456 46.2825 98.6438 45.5301 99.0602C44.7776 99.4767 43.8906 99.5773 43.064 99.3401C42.2374 99.1028 41.5388 98.547 41.1218 97.7949C40.7048 97.0428 40.6034 96.1559 40.8401 95.3291C41.0767 94.5023 41.632 93.8033 42.3838 93.3857" fill="#56463A"/>
<path d="M42.3923 93.3809C43.1454 92.9656 44.0325 92.8663 44.8588 93.1048C45.6851 93.3433 46.3828 93.9001 46.7987 94.6529C47.2146 95.4056 47.3146 96.2927 47.0767 97.1191C46.8388 97.9456 46.2825 98.6438 45.5301 99.0602C44.7776 99.4767 43.8906 99.5773 43.064 99.3401C42.2374 99.1028 41.5388 98.547 41.1218 97.7949C40.7048 97.0428 40.6034 96.1559 40.8401 95.3291C41.0767 94.5023 41.632 93.8033 42.3838 93.3857" stroke="#937E42" stroke-width="2" stroke-linecap="round" stroke-linejoin="round"/>
<path d="M72.4412 97.8726C73.1942 97.4573 74.0814 97.358 74.9076 97.5965C75.7339 97.835 76.4316 98.3918 76.8475 99.1446C77.2634 99.8973 77.3634 100.784 77.1255 101.611C76.8876 102.437 76.3313 103.135 75.5789 103.552C74.8265 103.968 73.9395 104.069 73.1129 103.832C72.2862 103.594 71.5876 103.039 71.1706 102.287C70.7536 101.534 70.6523 100.648 70.8889 99.8208C71.1255 98.994 71.6808 98.295 72.4326 97.8774" fill="#56463A"/>
<path d="M72.4412 97.8726C73.1942 97.4573 74.0814 97.358 74.9076 97.5965C75.7339 97.835 76.4316 98.3918 76.8475 99.1446C77.2634 99.8973 77.3634 100.784 77.1255 101.611C76.8876 102.437 76.3313 103.135 75.5789 103.552C74.8265 103.968 73.9395 104.069 73.1129 103.832C72.2862 103.594 71.5876 103.039 71.1706 102.287C70.7536 101.534 70.6523 100.648 70.8889 99.8208C71.1255 98.994 71.6808 98.295 72.4326 97.8774" stroke="#937E42" stroke-width="2" stroke-linecap="round" stroke-linejoin="round"/>
</g>
<defs>
<clipPath id="clip0_108_34">
<rect width="62.1627" height="120.7" fill="white" transform="translate(28.998 0.841797)"/>
</clipPath>
</defs>
</svg>
