<svg width="92" height="121" viewBox="0 0 92 121" fill="none" xmlns="http://www.w3.org/2000/svg">
<path d="M60.4151 39.3794C60.4151 56.4781 47.0319 70.3393 30.523 70.3393C14.014 70.3393 0.630859 56.4781 0.630859 39.3794C0.630859 22.2807 14.014 8.41943 30.523 8.41943C47.0319 8.41943 60.4151 22.2807 60.4151 39.3794Z" fill="#FBE5A5"/>
<g clip-path="url(#clip0_108_191)">
<path fill-rule="evenodd" clip-rule="evenodd" d="M33.3066 35.4011L41.2369 120.832L79.0861 120.472L85.935 34.6802L33.3066 35.4011Z" fill="#A57C78" stroke="#857B61" stroke-width="7.46667" stroke-linejoin="round"/>
<path d="M48.8826 98.6944C49.6356 98.2791 50.5228 98.1798 51.349 98.4183C52.1753 98.6568 52.873 99.2136 53.2889 99.9664C53.7048 100.719 53.8048 101.606 53.5669 102.433C53.329 103.259 52.7727 103.957 52.0203 104.374C51.2679 104.79 50.3809 104.891 49.5543 104.654C48.7276 104.416 48.0291 103.861 47.612 103.108C47.195 102.356 47.0937 101.469 47.3303 100.643C47.567 99.8158 48.1222 99.1167 48.874 98.6992" fill="#56463A"/>
<path d="M48.8826 98.6944C49.6356 98.2791 50.5228 98.1798 51.349 98.4183C52.1753 98.6568 52.873 99.2136 53.2889 99.9664C53.7048 100.719 53.8048 101.606 53.5669 102.433C53.329 103.259 52.7727 103.957 52.0203 104.374C51.2679 104.79 50.3809 104.891 49.5543 104.654C48.7276 104.416 48.0291 103.861 47.612 103.108C47.195 102.356 47.0937 101.469 47.3303 100.643C47.567 99.8158 48.1222 99.1167 48.874 98.6992" stroke="#937E42" stroke-width="2" stroke-linecap="round" stroke-linejoin="round"/>
<path fill-rule="evenodd" clip-rule="evenodd" d="M44.4805 2.87409L51.6898 87.2236L53.1317 114.98C53.1317 114.98 62.5067 114.619 59.9806 114.619L54.5736 32.7929C54.5736 32.7929 53.2915 1.97021 51.6898 2.15315C48.4406 2.52428 44.4805 2.87409 44.4805 2.87409Z" fill="#89B480" stroke="#857B61" stroke-linecap="round" stroke-linejoin="round"/>
<path d="M58.0544 100.604C58.8075 100.188 59.6947 100.089 60.5209 100.327C61.3472 100.566 62.0449 101.123 62.4608 101.876C62.8767 102.628 62.9767 103.515 62.7388 104.342C62.5009 105.168 61.9446 105.866 61.1922 106.283C60.4398 106.699 59.5528 106.8 58.7261 106.563C57.8995 106.325 57.2009 105.77 56.7839 105.018C56.3669 104.265 56.2656 103.379 56.5022 102.552C56.7388 101.725 57.2941 101.026 58.0459 100.608" fill="#56463A"/>
<path d="M58.0544 100.604C58.8075 100.188 59.6947 100.089 60.5209 100.327C61.3472 100.566 62.0449 101.123 62.4608 101.876C62.8767 102.628 62.9767 103.515 62.7388 104.342C62.5009 105.168 61.9446 105.866 61.1922 106.283C60.4398 106.699 59.5528 106.8 58.7261 106.563C57.8995 106.325 57.2009 105.77 56.7839 105.018C56.3669 104.265 56.2656 103.379 56.5022 102.552C56.7388 101.725 57.2941 101.026 58.0459 100.608" stroke="#937E42" stroke-width="2" stroke-linecap="round" stroke-linejoin="round"/>
<path fill-rule="evenodd" clip-rule="evenodd" d="M47.0039 34.2348L51.69 87.2236L53.1319 114.98C53.1319 114.98 62.5069 114.619 59.9808 114.619L54.5737 32.793C54.5737 32.793 54.371 33.314 52.7714 33.5139C47.0039 34.2348 47.0039 34.2348 47.0039 34.2348Z" fill="#81A47A" stroke="#726A55"/>
<path d="M89.3638 30.9907H30.5993C29.9048 30.9907 29.3418 32.0397 29.3418 33.3338C29.3418 34.6278 29.9048 35.6768 30.5993 35.6768H89.3638C90.0583 35.6768 90.6214 34.6278 90.6214 33.3338C90.6214 32.0397 90.0583 30.9907 89.3638 30.9907Z" fill="#D6D6D6" stroke="#857B61" stroke-width="7.46667" stroke-linecap="round" stroke-linejoin="round"/>
<path d="M62.74 93.3946C63.4931 92.9793 64.3802 92.88 65.2065 93.1185C66.0327 93.357 66.7305 93.9138 67.1464 94.6666C67.5622 95.4193 67.6622 96.3064 67.4244 97.1328C67.1865 97.9593 66.6302 98.6574 65.8777 99.0739C65.1253 99.4903 64.2383 99.591 63.4117 99.3537C62.5851 99.1165 61.8865 98.5607 61.4695 97.8086C61.0524 97.0565 60.9511 96.1695 61.1877 95.3427C61.4244 94.516 61.9796 93.8169 62.7314 93.3994" fill="#56463A"/>
<path d="M62.74 93.3946C63.4931 92.9793 64.3802 92.88 65.2065 93.1185C66.0327 93.357 66.7305 93.9138 67.1464 94.6666C67.5622 95.4193 67.6622 96.3064 67.4244 97.1328C67.1865 97.9593 66.6302 98.6574 65.8777 99.0739C65.1253 99.4903 64.2383 99.591 63.4117 99.3537C62.5851 99.1165 61.8865 98.5607 61.4695 97.8086C61.0524 97.0565 60.9511 96.1695 61.1877 95.3427C61.4244 94.516 61.9796 93.8169 62.7314 93.3994" stroke="#937E42" stroke-width="2" stroke-linecap="round" stroke-linejoin="round"/>
<path d="M66.6013 101.634C67.3544 101.219 68.2415 101.12 69.0678 101.358C69.894 101.597 70.5918 102.154 71.0077 102.906C71.4236 103.659 71.5236 104.546 71.2857 105.373C71.0478 106.199 70.4915 106.897 69.7391 107.314C68.9866 107.73 68.0996 107.831 67.273 107.593C66.4464 107.356 65.7478 106.8 65.3308 106.048C64.9138 105.296 64.8124 104.409 65.0491 103.582C65.2857 102.756 65.8409 102.057 66.5927 101.639" fill="#56463A"/>
<path d="M66.6013 101.634C67.3544 101.219 68.2415 101.12 69.0678 101.358C69.894 101.597 70.5918 102.154 71.0077 102.906C71.4236 103.659 71.5236 104.546 71.2857 105.373C71.0478 106.199 70.4915 106.897 69.7391 107.314C68.9866 107.73 68.0996 107.831 67.273 107.593C66.4464 107.356 65.7478 106.8 65.3308 106.048C64.9138 105.296 64.8124 104.409 65.0491 103.582C65.2857 102.756 65.8409 102.057 66.5927 101.639" stroke="#937E42" stroke-width="2" stroke-linecap="round" stroke-linejoin="round"/>
<path d="M74.6365 94.1153C75.3895 93.7 76.2767 93.6007 77.1029 93.8392C77.9292 94.0777 78.627 94.6345 79.0428 95.3873C79.4587 96.14 79.5587 97.0271 79.3208 97.8535C79.0829 98.68 78.5267 99.3781 77.7742 99.7946C77.0218 100.211 76.1348 100.312 75.3082 100.074C74.4815 99.8372 73.783 99.2814 73.3659 98.5293C72.9489 97.7772 72.8476 96.8902 73.0842 96.0635C73.3209 95.2367 73.8761 94.5376 74.6279 94.1201" fill="#56463A"/>
<path d="M74.6365 94.1153C75.3895 93.7 76.2767 93.6007 77.1029 93.8392C77.9292 94.0777 78.627 94.6345 79.0428 95.3873C79.4587 96.14 79.5587 97.0271 79.3208 97.8535C79.0829 98.68 78.5267 99.3781 77.7742 99.7946C77.0218 100.211 76.1348 100.312 75.3082 100.074C74.4815 99.8372 73.783 99.2814 73.3659 98.5293C72.9489 97.7772 72.8476 96.8902 73.0842 96.0635C73.3209 95.2367 73.8761 94.5376 74.6279 94.1201" stroke="#937E42" stroke-width="2" stroke-linecap="round" stroke-linejoin="round"/>
<path d="M59.0857 105.284C59.8388 104.869 60.7259 104.77 61.5522 105.008C62.3784 105.247 63.0762 105.803 63.4921 106.556C63.9079 107.309 64.0079 108.196 63.77 109.022C63.5322 109.849 62.9759 110.547 62.2234 110.964C61.471 111.38 60.584 111.481 59.7574 111.243C58.9308 111.006 58.2322 110.45 57.8152 109.698C57.3981 108.946 57.2968 108.059 57.5334 107.232C57.7701 106.406 58.3253 105.707 59.0771 105.289" fill="#56463A"/>
<path d="M59.0857 105.284C59.8388 104.869 60.7259 104.77 61.5522 105.008C62.3784 105.247 63.0762 105.803 63.4921 106.556C63.9079 107.309 64.0079 108.196 63.77 109.022C63.5322 109.849 62.9759 110.547 62.2234 110.964C61.471 111.38 60.584 111.481 59.7574 111.243C58.9308 111.006 58.2322 110.45 57.8152 109.698C57.3981 108.946 57.2968 108.059 57.5334 107.232C57.7701 106.406 58.3253 105.707 59.0771 105.289" stroke="#937E42" stroke-width="2" stroke-linecap="round" stroke-linejoin="round"/>
<path d="M69.5896 111.778C70.3427 111.363 71.2298 111.264 72.0561 111.502C72.8823 111.741 73.5801 112.298 73.996 113.05C74.4119 113.803 74.5118 114.69 74.274 115.517C74.0361 116.343 73.4798 117.041 72.7273 117.458C71.9749 117.874 71.0879 117.975 70.2613 117.738C69.4347 117.5 68.7361 116.944 68.3191 116.192C67.902 115.44 67.8007 114.553 68.0373 113.727C68.274 112.9 68.8292 112.201 69.581 111.783" fill="#56463A"/>
<path d="M69.5896 111.778C70.3427 111.363 71.2298 111.264 72.0561 111.502C72.8823 111.741 73.5801 112.298 73.996 113.05C74.4119 113.803 74.5118 114.69 74.274 115.517C74.0361 116.343 73.4798 117.041 72.7273 117.458C71.9749 117.874 71.0879 117.975 70.2613 117.738C69.4347 117.5 68.7361 116.944 68.3191 116.192C67.902 115.44 67.8007 114.553 68.0373 113.727C68.274 112.9 68.8292 112.201 69.581 111.783" stroke="#937E42" stroke-width="2" stroke-linecap="round" stroke-linejoin="round"/>
<path d="M73.9158 104.569C74.6688 104.154 75.556 104.054 76.3822 104.293C77.2085 104.531 77.9063 105.088 78.3221 105.841C78.738 106.594 78.838 107.481 78.6001 108.307C78.3622 109.134 77.806 109.832 77.0535 110.248C76.3011 110.665 75.4141 110.765 74.5875 110.528C73.7608 110.291 73.0623 109.735 72.6452 108.983C72.2282 108.231 72.1269 107.344 72.3635 106.517C72.6002 105.69 73.1554 104.991 73.9072 104.574" fill="#56463A"/>
<path d="M73.9158 104.569C74.6688 104.154 75.556 104.054 76.3822 104.293C77.2085 104.531 77.9063 105.088 78.3221 105.841C78.738 106.594 78.838 107.481 78.6001 108.307C78.3622 109.134 77.806 109.832 77.0535 110.248C76.3011 110.665 75.4141 110.765 74.5875 110.528C73.7608 110.291 73.0623 109.735 72.6452 108.983C72.2282 108.231 72.1269 107.344 72.3635 106.517C72.6002 105.69 73.1554 104.991 73.9072 104.574" stroke="#937E42" stroke-width="2" stroke-linecap="round" stroke-linejoin="round"/>
<path d="M60.4177 112.651C61.1708 112.236 62.0579 112.137 62.8842 112.375C63.7105 112.614 64.4082 113.171 64.8241 113.923C65.24 114.676 65.34 115.563 65.1021 116.39C64.8642 117.216 64.3079 117.914 63.5555 118.331C62.803 118.747 61.916 118.848 61.0894 118.611C60.2628 118.373 59.5642 117.818 59.1472 117.065C58.7302 116.313 58.6288 115.426 58.8655 114.6C59.1021 113.773 59.6574 113.074 60.4092 112.656" fill="#56463A"/>
<path d="M60.4177 112.651C61.1708 112.236 62.0579 112.137 62.8842 112.375C63.7105 112.614 64.4082 113.171 64.8241 113.923C65.24 114.676 65.34 115.563 65.1021 116.39C64.8642 117.216 64.3079 117.914 63.5555 118.331C62.803 118.747 61.916 118.848 61.0894 118.611C60.2628 118.373 59.5642 117.818 59.1472 117.065C58.7302 116.313 58.6288 115.426 58.8655 114.6C59.1021 113.773 59.6574 113.074 60.4092 112.656" stroke="#937E42" stroke-width="2" stroke-linecap="round" stroke-linejoin="round"/>
<path d="M52.6482 112.499C53.4013 112.084 54.2884 111.984 55.1147 112.223C55.9409 112.461 56.6387 113.018 57.0546 113.771C57.4705 114.524 57.5704 115.411 57.3326 116.237C57.0947 117.064 56.5384 117.762 55.7859 118.178C55.0335 118.595 54.1465 118.695 53.3199 118.458C52.4933 118.221 51.7947 117.665 51.3777 116.913C50.9606 116.161 50.8593 115.274 51.0959 114.447C51.3326 113.62 51.8878 112.921 52.6396 112.504" fill="#56463A"/>
<path d="M52.6482 112.499C53.4013 112.084 54.2884 111.984 55.1147 112.223C55.9409 112.461 56.6387 113.018 57.0546 113.771C57.4705 114.524 57.5704 115.411 57.3326 116.237C57.0947 117.064 56.5384 117.762 55.7859 118.178C55.0335 118.595 54.1465 118.695 53.3199 118.458C52.4933 118.221 51.7947 117.665 51.3777 116.913C50.9606 116.161 50.8593 115.274 51.0959 114.447C51.3326 113.62 51.8878 112.921 52.6396 112.504" stroke="#937E42" stroke-width="2" stroke-linecap="round" stroke-linejoin="round"/>
<path d="M46.8806 108.174C47.6337 107.759 48.5208 107.659 49.3471 107.898C50.1733 108.136 50.8711 108.693 51.287 109.446C51.7029 110.199 51.8029 111.086 51.565 111.912C51.3271 112.739 50.7708 113.437 50.0184 113.853C49.2659 114.27 48.3789 114.37 47.5523 114.133C46.7257 113.896 46.0271 113.34 45.6101 112.588C45.1931 111.836 45.0917 110.949 45.3284 110.122C45.565 109.295 46.1202 108.596 46.872 108.179" fill="#56463A"/>
<path d="M46.8806 108.174C47.6337 107.759 48.5208 107.659 49.3471 107.898C50.1733 108.136 50.8711 108.693 51.287 109.446C51.7029 110.199 51.8029 111.086 51.565 111.912C51.3271 112.739 50.7708 113.437 50.0184 113.853C49.2659 114.27 48.3789 114.37 47.5523 114.133C46.7257 113.896 46.0271 113.34 45.6101 112.588C45.1931 111.836 45.0917 110.949 45.3284 110.122C45.565 109.295 46.1202 108.596 46.872 108.179" stroke="#937E42" stroke-width="2" stroke-linecap="round" stroke-linejoin="round"/>
<path d="M41.4587 100.429C42.2118 100.014 43.099 99.9146 43.9252 100.153C44.7515 100.392 45.4492 100.948 45.8651 101.701C46.281 102.454 46.381 103.341 46.1431 104.167C45.9052 104.994 45.3489 105.692 44.5965 106.109C43.8441 106.525 42.9571 106.626 42.1304 106.388C41.3038 106.151 40.6052 105.595 40.1882 104.843C39.7712 104.091 39.6699 103.204 39.9065 102.377C40.1431 101.551 40.6984 100.852 41.4502 100.434" fill="#56463A"/>
<path d="M41.4587 100.429C42.2118 100.014 43.099 99.9146 43.9252 100.153C44.7515 100.392 45.4492 100.948 45.8651 101.701C46.281 102.454 46.381 103.341 46.1431 104.167C45.9052 104.994 45.3489 105.692 44.5965 106.109C43.8441 106.525 42.9571 106.626 42.1304 106.388C41.3038 106.151 40.6052 105.595 40.1882 104.843C39.7712 104.091 39.6699 103.204 39.9065 102.377C40.1431 101.551 40.6984 100.852 41.4502 100.434" stroke="#937E42" stroke-width="2" stroke-linecap="round" stroke-linejoin="round"/>
<path d="M44.9275 111.877C45.6806 111.462 46.5677 111.362 47.394 111.601C48.2202 111.839 48.918 112.396 49.3339 113.149C49.7497 113.902 49.8497 114.789 49.6118 115.615C49.374 116.442 48.8177 117.14 48.0652 117.556C47.3128 117.973 46.4258 118.073 45.5992 117.836C44.7726 117.599 44.074 117.043 43.657 116.291C43.2399 115.539 43.1386 114.652 43.3752 113.825C43.6119 112.998 44.1671 112.299 44.9189 111.882" fill="#56463A"/>
<path d="M44.9275 111.877C45.6806 111.462 46.5677 111.362 47.394 111.601C48.2202 111.839 48.918 112.396 49.3339 113.149C49.7497 113.902 49.8497 114.789 49.6118 115.615C49.374 116.442 48.8177 117.14 48.0652 117.556C47.3128 117.973 46.4258 118.073 45.5992 117.836C44.7726 117.599 44.074 117.043 43.657 116.291C43.2399 115.539 43.1386 114.652 43.3752 113.825C43.6119 112.998 44.1671 112.299 44.9189 111.882" stroke="#937E42" stroke-width="2" stroke-linecap="round" stroke-linejoin="round"/>
<path d="M42.2947 92.671C43.0477 92.2557 43.9349 92.1563 44.7611 92.3948C45.5874 92.6334 46.2852 93.1902 46.701 93.9429C47.1169 94.6957 47.2169 95.5827 46.979 96.4092C46.7411 97.2356 46.1849 97.9338 45.4324 98.3502C44.68 98.7667 43.793 98.8674 42.9664 98.6301C42.1398 98.3928 41.4412 97.8371 41.0241 97.085C40.6071 96.3328 40.5058 95.4459 40.7424 94.6191C40.9791 93.7923 41.5343 93.0933 42.2861 92.6757" fill="#56463A"/>
<path d="M42.2947 92.671C43.0477 92.2557 43.9349 92.1563 44.7611 92.3948C45.5874 92.6334 46.2852 93.1902 46.701 93.9429C47.1169 94.6957 47.2169 95.5827 46.979 96.4092C46.7411 97.2356 46.1849 97.9338 45.4324 98.3502C44.68 98.7667 43.793 98.8674 42.9664 98.6301C42.1398 98.3928 41.4412 97.8371 41.0241 97.085C40.6071 96.3328 40.5058 95.4459 40.7424 94.6191C40.9791 93.7923 41.5343 93.0933 42.2861 92.6757" stroke="#937E42" stroke-width="2" stroke-linecap="round" stroke-linejoin="round"/>
<path d="M72.3435 97.1627C73.0966 96.7474 73.9837 96.648 74.81 96.8865C75.6362 97.1251 76.334 97.6819 76.7499 98.4346C77.1658 99.1874 77.2657 100.074 77.0279 100.901C76.79 101.727 76.2337 102.425 75.4812 102.842C74.7288 103.258 73.8418 103.359 73.0152 103.122C72.1886 102.885 71.49 102.329 71.073 101.577C70.6559 100.825 70.5546 99.9376 70.7913 99.1108C71.0279 98.284 71.5831 97.585 72.3349 97.1674" fill="#56463A"/>
<path d="M72.3435 97.1627C73.0966 96.7474 73.9837 96.648 74.81 96.8865C75.6362 97.1251 76.334 97.6819 76.7499 98.4346C77.1658 99.1874 77.2657 100.074 77.0279 100.901C76.79 101.727 76.2337 102.425 75.4812 102.842C74.7288 103.258 73.8418 103.359 73.0152 103.122C72.1886 102.885 71.49 102.329 71.073 101.577C70.6559 100.825 70.5546 99.9376 70.7913 99.1108C71.0279 98.284 71.5831 97.585 72.3349 97.1674" stroke="#937E42" stroke-width="2" stroke-linecap="round" stroke-linejoin="round"/>
</g>
<defs>
<clipPath id="clip0_108_191">
<rect width="62.1627" height="120.7" fill="white" transform="translate(28.9004 0.131836)"/>
</clipPath>
</defs>
</svg>
