<svg preserveAspectRatio="xMidYMid meet" data-bbox="0 0 49 49" xmlns="http://www.w3.org/2000/svg" viewBox="0 0 49 49" height="49" width="49" data-type="color" role="presentation" aria-hidden="true" aria-labelledby="svgcid--x9xnzc-pg6q7u"><title id="svgcid--x9xnzc-pg6q7u"></title>
    <g>
        <path fill="#F2AA46" d="M24.5 0C11.002 0 0 11.002 0 24.5S11.002 49 24.5 49 49 37.998 49 24.5 37.998 0 24.5 0Zm0 2.774c11.973 0 21.726 9.753 21.726 21.726 0 11.973-9.753 21.726-21.726 21.726-11.973 0-21.726-9.753-21.726-21.726 0-11.973 9.753-21.726 21.726-21.726Zm0 4.16c-.786 0-1.387.6-1.387 1.387v11.787c-1.895.601-3.236 2.358-3.236 4.392a4.636 4.636 0 0 0 4.623 4.623c2.08 0 3.837-1.34 4.392-3.236h7.165c.785 0 1.386-.601 1.386-1.387s-.6-1.387-1.386-1.387H28.89c-.462-1.433-1.571-2.588-3.004-3.005V8.321c0-.786-.601-1.387-1.387-1.387Zm0 15.717c1.017 0 1.85.832 1.85 1.849s-.833 1.85-1.85 1.85a1.855 1.855 0 0 1-1.85-1.85c0-1.017.833-1.85 1.85-1.85Z" data-color="1"></path>
    </g>
</svg>