<svg width="92" height="71" viewBox="0 0 92 71" fill="none" xmlns="http://www.w3.org/2000/svg">
<circle cx="33" cy="33" r="33" fill="#FBE5A5"/>
<path d="M49.0972 15.4421C49.0972 12.8529 46.9907 10.7462 44.4013 10.7462C41.8128 10.7462 39.707 12.8527 39.707 15.4421C39.707 18.0315 41.8128 20.138 44.4013 20.138C46.9907 20.138 49.0972 18.0315 49.0972 15.4421ZM41.4523 15.4421C41.4523 13.8151 42.7753 12.4913 44.4015 12.4913C46.0285 12.4913 47.3523 13.815 47.3523 15.4421C47.3523 17.0692 46.0287 18.3929 44.4015 18.3929C42.7753 18.3929 41.4523 17.0692 41.4523 15.4421Z" fill="black"/>
<path d="M45.0552 29.0104C45.8623 28.0986 52.942 19.9748 52.942 15.5386C52.942 10.8305 49.1109 7 44.4019 7C39.6938 7 35.8633 10.8303 35.8633 15.5386C35.8633 19.9746 42.9414 28.0986 43.7485 29.0102L44.4017 29.7482L45.0552 29.0104ZM37.6086 15.5388C37.6086 11.7929 40.656 8.74527 44.4021 8.74527C48.1488 8.74527 51.1971 11.7927 51.1971 15.5388C51.1971 18.4417 46.7696 24.2896 44.4021 27.0962C42.0348 24.2901 37.6086 18.4438 37.6086 15.5388Z" fill="black"/>
<path d="M22.1935 56.2275H13.7832V57.9726H22.1935V56.2275Z" fill="black"/>
<path d="M11.7492 56.2275H9V57.9726H11.7492V56.2275Z" fill="black"/>
<path d="M22.1933 60.9946H17.1172V62.7397H22.1933V60.9946Z" fill="black"/>
<path d="M39.4832 43.2104H35.0117V44.9555H39.4832V43.2104Z" fill="black"/>
<path d="M13.2793 25.519V42.1336H15.1909H20.1346L29.3499 49.0667C29.3223 49.3091 29.2997 49.5548 29.2832 49.8042C26.6513 52.0915 25.0231 55.2309 25.0231 58.6911V62.3525H28.1903C28.4503 65.2 29.9691 67.6874 32.1843 69.2547H19.9608V70.9998H52.4196V69.2547H43.15C44.2569 68.4717 45.1897 67.4594 45.879 66.2863H51.7406L54.5366 64.8433C55.3074 65.2626 56.1902 65.5012 57.1273 65.5012H69.7598L70.1721 65.5007L70.4339 65.1827C70.4489 65.1644 70.7428 64.8136 71.286 64.255C71.975 66.3346 73.3655 68.0881 75.1577 69.2547H60.447V70.9998H91.9644V69.2547H85.5157C88.1208 67.5546 89.8474 64.6162 89.8474 61.2805C89.8474 59.1672 89.1361 57.1233 87.8617 55.4674C88.7728 55.3506 89.7101 55.2864 90.672 55.2864C91.4034 55.2864 91.6456 54.7878 91.7023 54.635C91.9934 53.852 91.3023 53.256 90.2563 52.354C90.0209 52.1508 89.7984 51.9592 89.6696 51.8297C87.5694 49.7278 84.925 48.372 82.0563 47.8856L74.9052 30.3617H77.0607V29.5436H77.2398C78.7749 29.5436 80.0237 28.2948 80.0237 26.7598V26.7C80.0237 25.165 78.7749 23.916 77.2398 23.916H77.0607V23.0979H71.0248C69.0202 23.0979 67.3892 24.7289 67.3892 26.7335V28.4227C67.3892 28.4882 67.3927 28.5526 67.399 28.6163H66.3357L62.6239 24.9043H58.2643V26.6494H61.9011L65.6129 30.3614H69.1141L67.1772 36.231L69.7926 51.7236C68.5068 52.9792 67.4555 54.4791 66.7182 56.1536H56.8122C56.3422 55.1903 55.9618 54.1872 55.6751 53.149C54.3877 48.4842 55.3711 44.3642 56.2079 42.0676C57.1183 41.8383 57.7948 41.015 57.7948 40.0346C57.7948 37.177 55.47 34.8522 52.6124 34.8522H34.6505C32.6431 34.8522 31.0098 36.4853 31.0098 38.4928C31.0098 39.1875 31.209 39.8353 31.5482 40.3883H29.8939V25.519H13.2793ZM15.0244 40.3885V27.2641H28.1488V40.3885H15.1909H15.0244ZM26.7682 58.6909C26.7682 52.6735 32.6043 47.7776 39.7779 47.7776H43.0746C47.8211 47.7776 51.6826 50.997 51.6826 54.9542V59.1756V60.0481V60.6072H47.1471C46.7053 55.7654 42.623 51.9599 37.6686 51.9599C32.7134 51.9599 28.6304 55.7654 28.1885 60.6072H26.7684V58.6909H26.7682ZM29.9441 60.6072C30.3793 56.7296 33.6767 53.705 37.6684 53.705C41.6595 53.705 44.9562 56.7296 45.3912 60.6072H29.9441ZM40.2414 62.3523C39.8767 63.4245 38.8623 64.1988 37.6684 64.1988C36.4739 64.1988 35.459 63.4243 35.0941 62.3523H40.2414ZM37.6667 69.2545C33.6757 69.2545 30.379 66.2299 29.9439 62.3523H33.2888C33.6959 64.3976 35.5045 65.9439 37.6684 65.9439C39.8315 65.9439 41.6396 64.3976 42.0466 62.3523H45.3912C45.305 63.121 45.1069 63.8563 44.8124 64.541H41.7195V66.2861H43.7709C42.346 68.092 40.1402 69.2545 37.6667 69.2545ZM51.317 64.541H46.6786C46.9161 63.8437 47.0754 63.1113 47.1447 62.3523H52.194C52.4156 62.8258 52.7028 63.2619 53.044 63.6498L51.317 64.541ZM88.1025 61.2803C88.1025 65.5665 84.6147 69.0533 80.3277 69.0533C76.6553 69.0533 73.4643 66.4287 72.7188 62.8773C73.5836 62.0965 74.6787 61.192 75.976 60.2847C75.9027 60.6051 75.8629 60.9378 75.8629 61.28C75.8629 63.7418 77.8658 65.7448 80.3277 65.7448C82.7897 65.7448 84.7926 63.7418 84.7926 61.28C84.7926 59.3434 83.5532 57.6915 81.8263 57.0745C83.088 56.5623 84.4343 56.127 85.8574 55.8148C87.2889 57.2676 88.1025 59.2352 88.1025 61.2803ZM78.3724 59.394L79.5526 61.6801L81.1031 60.8796L79.923 58.5936C80.0555 58.5737 80.1899 58.5601 80.3277 58.5601C81.8275 58.5601 83.0475 59.7802 83.0475 61.28C83.0475 62.7797 81.8275 63.9997 80.3277 63.9997C78.828 63.9997 77.608 62.7797 77.608 61.28C77.608 60.5477 77.9001 59.8835 78.3724 59.394ZM77.24 25.6611C77.8129 25.6611 78.2788 26.127 78.2788 26.7V26.7598C78.2788 27.3326 77.8129 27.7985 77.24 27.7985H77.0609V25.6611H77.24ZM69.1345 28.4229V26.7336C69.1345 25.6911 69.9824 24.8432 71.025 24.8432H75.3158V28.6166H71.0075H69.328C69.2212 28.6164 69.1345 28.5295 69.1345 28.4229ZM68.9701 36.3673L70.9515 30.3624H73.0208L80.0923 47.6916C79.9506 47.6876 79.8094 47.6811 79.667 47.6811C76.5815 47.6811 73.6941 48.6936 71.3415 50.4152L68.9701 36.3673ZM79.6672 49.4262C82.9784 49.4262 86.092 50.7178 88.4344 53.0625C88.5894 53.2178 88.8005 53.4021 89.0278 53.5986C83.0716 54.0135 78.1753 56.6035 75.0179 58.8054C72.0165 60.8987 70.0522 62.9762 69.3603 63.7559H57.1273C55.3899 63.7559 53.9288 62.5497 53.5331 60.9289H60.0841L60.0771 60.9203L67.281 60.92L67.3829 60.1642C68.2098 54.0425 73.4908 49.4262 79.6672 49.4262ZM66.0842 57.8988C65.9631 58.3164 65.8596 58.7417 65.7768 59.175L58.6836 59.1754C58.366 58.7604 58.0688 58.3344 57.7914 57.899H66.0842V57.8988ZM56.5391 59.1754L53.4276 59.1756V54.9542C53.4276 50.0349 48.7832 46.0325 43.0744 46.0325H39.7778C36.5846 46.0325 33.6277 46.9101 31.2102 48.395C31.7157 45.513 32.9998 43.2786 33.7812 42.1341H54.3394C53.4927 44.7336 52.6971 48.917 53.9931 53.6134C54.5397 55.5939 55.3938 57.458 56.5391 59.1754ZM34.6505 36.5975H52.6126C54.508 36.5975 56.0499 38.1394 56.0499 40.0348C56.0499 40.2297 55.8913 40.3885 55.6962 40.3885H34.6505C33.6053 40.3885 32.7549 39.5381 32.7549 38.493C32.7549 37.4478 33.6053 36.5975 34.6505 36.5975ZM31.7177 42.1336C31.0076 43.3391 30.1818 45.0579 29.6879 47.1372L23.0374 42.1336H29.8939H31.7177Z" fill="black"/>
<path d="M26.5916 29.3441H21.5859V31.0892H26.5916V29.3441Z" fill="black"/>
<path d="M57.8883 69.2545H54.8652V70.9996H57.8883V69.2545Z" fill="black"/>
<path d="M17.9544 69.2545H15.1914V70.9996H17.9544V69.2545Z" fill="black"/>
</svg>
