<svg width="91" height="122" viewBox="0 0 91 122" fill="none" xmlns="http://www.w3.org/2000/svg">
<path d="M59.9541 39.5786C59.9541 56.6773 46.571 70.5385 30.062 70.5385C13.5531 70.5385 0.169922 56.6773 0.169922 39.5786C0.169922 22.4799 13.5531 8.61865 30.062 8.61865C46.571 8.61865 59.9541 22.4799 59.9541 39.5786Z" fill="#FBE5A5"/>
<g clip-path="url(#clip0_108_87)">
<path fill-rule="evenodd" clip-rule="evenodd" d="M32.8457 35.6003L40.776 121.031L78.6251 120.671L85.474 34.8794L32.8457 35.6003Z" fill="#F1603C" stroke="#857B61" stroke-width="7.46667" stroke-linejoin="round"/>
<path d="M48.4216 98.8936C49.1747 98.4783 50.0618 98.379 50.8881 98.6175C51.7144 98.856 52.4121 99.4128 52.828 100.166C53.2439 100.918 53.3439 101.805 53.106 102.632C52.8681 103.458 52.3118 104.156 51.5594 104.573C50.8069 104.989 49.9199 105.09 49.0933 104.853C48.2667 104.615 47.5681 104.06 47.1511 103.308C46.7341 102.555 46.6327 101.669 46.8694 100.842C47.106 100.015 47.6613 99.316 48.4131 98.8984" fill="#56463A"/>
<path d="M48.4216 98.8936C49.1747 98.4783 50.0618 98.379 50.8881 98.6175C51.7144 98.856 52.4121 99.4128 52.828 100.166C53.2439 100.918 53.3439 101.805 53.106 102.632C52.8681 103.458 52.3118 104.156 51.5594 104.573C50.8069 104.989 49.9199 105.09 49.0933 104.853C48.2667 104.615 47.5681 104.06 47.1511 103.308C46.7341 102.555 46.6327 101.669 46.8694 100.842C47.106 100.015 47.6613 99.316 48.4131 98.8984" stroke="#937E42" stroke-width="2" stroke-linecap="round" stroke-linejoin="round"/>
<path fill-rule="evenodd" clip-rule="evenodd" d="M44.0195 3.07331L51.2289 87.4228L52.6708 115.179C52.6708 115.179 62.0458 114.818 59.5197 114.818L54.1126 32.9922C54.1126 32.9922 52.8305 2.16943 51.2289 2.35237C47.9797 2.7235 44.0195 3.07331 44.0195 3.07331Z" fill="#89B480" stroke="#857B61" stroke-linecap="round" stroke-linejoin="round"/>
<path d="M57.5935 100.803C58.3466 100.387 59.2337 100.288 60.06 100.527C60.8862 100.765 61.584 101.322 61.9999 102.075C62.4158 102.828 62.5157 103.715 62.2779 104.541C62.04 105.367 61.4837 106.066 60.7312 106.482C59.9788 106.899 59.0918 106.999 58.2652 106.762C57.4386 106.525 56.74 105.969 56.323 105.217C55.9059 104.465 55.8046 103.578 56.0413 102.751C56.2779 101.924 56.8331 101.225 57.5849 100.808" fill="#56463A"/>
<path d="M57.5935 100.803C58.3466 100.387 59.2337 100.288 60.06 100.527C60.8862 100.765 61.584 101.322 61.9999 102.075C62.4158 102.828 62.5157 103.715 62.2779 104.541C62.04 105.367 61.4837 106.066 60.7312 106.482C59.9788 106.899 59.0918 106.999 58.2652 106.762C57.4386 106.525 56.74 105.969 56.323 105.217C55.9059 104.465 55.8046 103.578 56.0413 102.751C56.2779 101.924 56.8331 101.225 57.5849 100.808" stroke="#937E42" stroke-width="2" stroke-linecap="round" stroke-linejoin="round"/>
<path fill-rule="evenodd" clip-rule="evenodd" d="M46.543 34.4341L51.2291 87.4229L52.6709 115.179C52.6709 115.179 62.046 114.818 59.5198 114.818L54.1128 32.9922C54.1128 32.9922 53.9101 33.5132 52.3105 33.7131C46.543 34.4341 46.543 34.4341 46.543 34.4341Z" fill="#81A47A" stroke="#726A55"/>
<path d="M88.9029 31.1899H30.1384C29.4439 31.1899 28.8809 32.239 28.8809 33.533C28.8809 34.827 29.4439 35.876 30.1384 35.876H88.9029C89.5974 35.876 90.1604 34.827 90.1604 33.533C90.1604 32.239 89.5974 31.1899 88.9029 31.1899Z" fill="#D6D6D6" stroke="#857B61" stroke-width="7.46667" stroke-linecap="round" stroke-linejoin="round"/>
<path d="M62.2791 93.5938C63.0321 93.1785 63.9193 93.0792 64.7455 93.3177C65.5718 93.5562 66.2695 94.113 66.6854 94.8658C67.1013 95.6185 67.2013 96.5056 66.9634 97.332C66.7255 98.1585 66.1692 98.8566 65.4168 99.2731C64.6644 99.6896 63.7774 99.7902 62.9507 99.5529C62.1241 99.3157 61.4255 98.7599 61.0085 98.0078C60.5915 97.2557 60.4902 96.3688 60.7268 95.542C60.9634 94.7152 61.5187 94.0162 62.2705 93.5986" fill="#56463A"/>
<path d="M62.2791 93.5938C63.0321 93.1785 63.9193 93.0792 64.7455 93.3177C65.5718 93.5562 66.2695 94.113 66.6854 94.8658C67.1013 95.6185 67.2013 96.5056 66.9634 97.332C66.7255 98.1585 66.1692 98.8566 65.4168 99.2731C64.6644 99.6896 63.7774 99.7902 62.9507 99.5529C62.1241 99.3157 61.4255 98.7599 61.0085 98.0078C60.5915 97.2557 60.4902 96.3688 60.7268 95.542C60.9634 94.7152 61.5187 94.0162 62.2705 93.5986" stroke="#937E42" stroke-width="2" stroke-linecap="round" stroke-linejoin="round"/>
<path d="M66.1404 101.834C66.8934 101.418 67.7806 101.319 68.6069 101.557C69.4331 101.796 70.1309 102.353 70.5467 103.106C70.9626 103.858 71.0626 104.745 70.8247 105.572C70.5869 106.398 70.0306 107.096 69.2781 107.513C68.5257 107.929 67.6387 108.03 66.8121 107.793C65.9855 107.555 65.2869 107 64.8698 106.248C64.4528 105.495 64.3515 104.609 64.5881 103.782C64.8248 102.955 65.38 102.256 66.1318 101.838" fill="#56463A"/>
<path d="M66.1404 101.834C66.8934 101.418 67.7806 101.319 68.6069 101.557C69.4331 101.796 70.1309 102.353 70.5467 103.106C70.9626 103.858 71.0626 104.745 70.8247 105.572C70.5869 106.398 70.0306 107.096 69.2781 107.513C68.5257 107.929 67.6387 108.03 66.8121 107.793C65.9855 107.555 65.2869 107 64.8698 106.248C64.4528 105.495 64.3515 104.609 64.5881 103.782C64.8248 102.955 65.38 102.256 66.1318 101.838" stroke="#937E42" stroke-width="2" stroke-linecap="round" stroke-linejoin="round"/>
<path d="M74.1755 94.3145C74.9286 93.8992 75.8157 93.7999 76.642 94.0384C77.4683 94.2769 78.166 94.8337 78.5819 95.5865C78.9978 96.3392 79.0978 97.2263 78.8599 98.0527C78.622 98.8792 78.0657 99.5773 77.3133 99.9938C76.5608 100.41 75.6738 100.511 74.8472 100.274C74.0206 100.036 73.322 99.4806 72.905 98.7285C72.488 97.9764 72.3866 97.0895 72.6233 96.2627C72.8599 95.4359 73.4152 94.7369 74.167 94.3193" fill="#56463A"/>
<path d="M74.1755 94.3145C74.9286 93.8992 75.8157 93.7999 76.642 94.0384C77.4683 94.2769 78.166 94.8337 78.5819 95.5865C78.9978 96.3392 79.0978 97.2263 78.8599 98.0527C78.622 98.8792 78.0657 99.5773 77.3133 99.9938C76.5608 100.41 75.6738 100.511 74.8472 100.274C74.0206 100.036 73.322 99.4806 72.905 98.7285C72.488 97.9764 72.3866 97.0895 72.6233 96.2627C72.8599 95.4359 73.4152 94.7369 74.167 94.3193" stroke="#937E42" stroke-width="2" stroke-linecap="round" stroke-linejoin="round"/>
<path d="M58.6248 105.483C59.3778 105.068 60.265 104.969 61.0912 105.207C61.9175 105.446 62.6152 106.003 63.0311 106.755C63.447 107.508 63.547 108.395 63.3091 109.222C63.0712 110.048 62.5149 110.746 61.7625 111.163C61.0101 111.579 60.1231 111.68 59.2964 111.443C58.4698 111.205 57.7712 110.65 57.3542 109.897C56.9372 109.145 56.8359 108.258 57.0725 107.432C57.3091 106.605 57.8644 105.906 58.6162 105.488" fill="#56463A"/>
<path d="M58.6248 105.483C59.3778 105.068 60.265 104.969 61.0912 105.207C61.9175 105.446 62.6152 106.003 63.0311 106.755C63.447 107.508 63.547 108.395 63.3091 109.222C63.0712 110.048 62.5149 110.746 61.7625 111.163C61.0101 111.579 60.1231 111.68 59.2964 111.443C58.4698 111.205 57.7712 110.65 57.3542 109.897C56.9372 109.145 56.8359 108.258 57.0725 107.432C57.3091 106.605 57.8644 105.906 58.6162 105.488" stroke="#937E42" stroke-width="2" stroke-linecap="round" stroke-linejoin="round"/>
<path d="M69.1287 111.978C69.8817 111.562 70.7689 111.463 71.5951 111.701C72.4214 111.94 73.1191 112.497 73.535 113.25C73.9509 114.002 74.0509 114.889 73.813 115.716C73.5751 116.542 73.0188 117.24 72.2664 117.657C71.514 118.073 70.627 118.174 69.8004 117.937C68.9737 117.699 68.2751 117.144 67.8581 116.392C67.4411 115.639 67.3398 114.753 67.5764 113.926C67.813 113.099 68.3683 112.4 69.1201 111.982" fill="#56463A"/>
<path d="M69.1287 111.978C69.8817 111.562 70.7689 111.463 71.5951 111.701C72.4214 111.94 73.1191 112.497 73.535 113.25C73.9509 114.002 74.0509 114.889 73.813 115.716C73.5751 116.542 73.0188 117.24 72.2664 117.657C71.514 118.073 70.627 118.174 69.8004 117.937C68.9737 117.699 68.2751 117.144 67.8581 116.392C67.4411 115.639 67.3398 114.753 67.5764 113.926C67.813 113.099 68.3683 112.4 69.1201 111.982" stroke="#937E42" stroke-width="2" stroke-linecap="round" stroke-linejoin="round"/>
<path d="M73.4548 104.768C74.2079 104.353 75.095 104.254 75.9213 104.492C76.7476 104.731 77.4453 105.287 77.8612 106.04C78.2771 106.793 78.3771 107.68 78.1392 108.506C77.9013 109.333 77.345 110.031 76.5926 110.447C75.8401 110.864 74.9531 110.965 74.1265 110.727C73.2999 110.49 72.6013 109.934 72.1843 109.182C71.7673 108.43 71.6659 107.543 71.9026 106.716C72.1392 105.889 72.6945 105.19 73.4463 104.773" fill="#56463A"/>
<path d="M73.4548 104.768C74.2079 104.353 75.095 104.254 75.9213 104.492C76.7476 104.731 77.4453 105.287 77.8612 106.04C78.2771 106.793 78.3771 107.68 78.1392 108.506C77.9013 109.333 77.345 110.031 76.5926 110.447C75.8401 110.864 74.9531 110.965 74.1265 110.727C73.2999 110.49 72.6013 109.934 72.1843 109.182C71.7673 108.43 71.6659 107.543 71.9026 106.716C72.1392 105.889 72.6945 105.19 73.4463 104.773" stroke="#937E42" stroke-width="2" stroke-linecap="round" stroke-linejoin="round"/>
<path d="M59.9568 112.851C60.7099 112.435 61.597 112.336 62.4233 112.575C63.2495 112.813 63.9473 113.37 64.3632 114.123C64.779 114.875 64.879 115.762 64.6411 116.589C64.4033 117.415 63.847 118.113 63.0945 118.53C62.3421 118.946 61.4551 119.047 60.6285 118.81C59.8019 118.573 59.1033 118.017 58.6862 117.265C58.2692 116.513 58.1679 115.626 58.4045 114.799C58.6412 113.972 59.1964 113.273 59.9482 112.855" fill="#56463A"/>
<path d="M59.9568 112.851C60.7099 112.435 61.597 112.336 62.4233 112.575C63.2495 112.813 63.9473 113.37 64.3632 114.123C64.779 114.875 64.879 115.762 64.6411 116.589C64.4033 117.415 63.847 118.113 63.0945 118.53C62.3421 118.946 61.4551 119.047 60.6285 118.81C59.8019 118.573 59.1033 118.017 58.6862 117.265C58.2692 116.513 58.1679 115.626 58.4045 114.799C58.6412 113.972 59.1964 113.273 59.9482 112.855" stroke="#937E42" stroke-width="2" stroke-linecap="round" stroke-linejoin="round"/>
<path d="M52.1873 112.698C52.9403 112.283 53.8275 112.184 54.6537 112.422C55.48 112.661 56.1777 113.218 56.5936 113.97C57.0095 114.723 57.1095 115.61 56.8716 116.437C56.6337 117.263 56.0774 117.961 55.325 118.378C54.5726 118.794 53.6856 118.895 52.859 118.657C52.0323 118.42 51.3337 117.864 50.9167 117.112C50.4997 116.36 50.3984 115.473 50.635 114.646C50.8716 113.82 51.4269 113.121 52.1787 112.703" fill="#56463A"/>
<path d="M52.1873 112.698C52.9403 112.283 53.8275 112.184 54.6537 112.422C55.48 112.661 56.1777 113.218 56.5936 113.97C57.0095 114.723 57.1095 115.61 56.8716 116.437C56.6337 117.263 56.0774 117.961 55.325 118.378C54.5726 118.794 53.6856 118.895 52.859 118.657C52.0323 118.42 51.3337 117.864 50.9167 117.112C50.4997 116.36 50.3984 115.473 50.635 114.646C50.8716 113.82 51.4269 113.121 52.1787 112.703" stroke="#937E42" stroke-width="2" stroke-linecap="round" stroke-linejoin="round"/>
<path d="M46.4197 108.373C47.1727 107.958 48.0599 107.858 48.8861 108.097C49.7124 108.336 50.4102 108.892 50.826 109.645C51.2419 110.398 51.3419 111.285 51.104 112.111C50.8661 112.938 50.3099 113.636 49.5574 114.052C48.805 114.469 47.918 114.57 47.0914 114.332C46.2648 114.095 45.5662 113.539 45.1491 112.787C44.7321 112.035 44.6308 111.148 44.8674 110.321C45.1041 109.494 45.6593 108.795 46.4111 108.378" fill="#56463A"/>
<path d="M46.4197 108.373C47.1727 107.958 48.0599 107.858 48.8861 108.097C49.7124 108.336 50.4102 108.892 50.826 109.645C51.2419 110.398 51.3419 111.285 51.104 112.111C50.8661 112.938 50.3099 113.636 49.5574 114.052C48.805 114.469 47.918 114.57 47.0914 114.332C46.2648 114.095 45.5662 113.539 45.1491 112.787C44.7321 112.035 44.6308 111.148 44.8674 110.321C45.1041 109.494 45.6593 108.795 46.4111 108.378" stroke="#937E42" stroke-width="2" stroke-linecap="round" stroke-linejoin="round"/>
<path d="M40.9978 100.628C41.7509 100.213 42.638 100.114 43.4643 100.352C44.2905 100.591 44.9883 101.148 45.4042 101.9C45.8201 102.653 45.92 103.54 45.6822 104.367C45.4443 105.193 44.888 105.891 44.1356 106.308C43.3831 106.724 42.4961 106.825 41.6695 106.588C40.8429 106.35 40.1443 105.795 39.7273 105.042C39.3102 104.29 39.2089 103.403 39.4456 102.577C39.6822 101.75 40.2374 101.051 40.9892 100.633" fill="#56463A"/>
<path d="M40.9978 100.628C41.7509 100.213 42.638 100.114 43.4643 100.352C44.2905 100.591 44.9883 101.148 45.4042 101.9C45.8201 102.653 45.92 103.54 45.6822 104.367C45.4443 105.193 44.888 105.891 44.1356 106.308C43.3831 106.724 42.4961 106.825 41.6695 106.588C40.8429 106.35 40.1443 105.795 39.7273 105.042C39.3102 104.29 39.2089 103.403 39.4456 102.577C39.6822 101.75 40.2374 101.051 40.9892 100.633" stroke="#937E42" stroke-width="2" stroke-linecap="round" stroke-linejoin="round"/>
<path d="M44.4666 112.076C45.2196 111.661 46.1068 111.562 46.933 111.8C47.7593 112.039 48.457 112.595 48.8729 113.348C49.2888 114.101 49.3888 114.988 49.1509 115.814C48.913 116.641 48.3567 117.339 47.6043 117.756C46.8519 118.172 45.9649 118.273 45.1382 118.035C44.3116 117.798 43.613 117.242 43.196 116.49C42.779 115.738 42.6777 114.851 42.9143 114.024C43.1509 113.198 43.7062 112.499 44.458 112.081" fill="#56463A"/>
<path d="M44.4666 112.076C45.2196 111.661 46.1068 111.562 46.933 111.8C47.7593 112.039 48.457 112.595 48.8729 113.348C49.2888 114.101 49.3888 114.988 49.1509 115.814C48.913 116.641 48.3567 117.339 47.6043 117.756C46.8519 118.172 45.9649 118.273 45.1382 118.035C44.3116 117.798 43.613 117.242 43.196 116.49C42.779 115.738 42.6777 114.851 42.9143 114.024C43.1509 113.198 43.7062 112.499 44.458 112.081" stroke="#937E42" stroke-width="2" stroke-linecap="round" stroke-linejoin="round"/>
<path d="M41.8337 92.8702C42.5868 92.4549 43.4739 92.3556 44.3002 92.5941C45.1265 92.8326 45.8242 93.3894 46.2401 94.1421C46.656 94.8949 46.756 95.782 46.5181 96.6084C46.2802 97.4348 45.7239 98.133 44.9715 98.5495C44.2191 98.9659 43.3321 99.0666 42.5054 98.8293C41.6788 98.5921 40.9802 98.0363 40.5632 97.2842C40.1462 96.5321 40.0449 95.6451 40.2815 94.8183C40.5181 93.9915 41.0734 93.2925 41.8252 92.8749" fill="#56463A"/>
<path d="M41.8337 92.8702C42.5868 92.4549 43.4739 92.3556 44.3002 92.5941C45.1265 92.8326 45.8242 93.3894 46.2401 94.1421C46.656 94.8949 46.756 95.782 46.5181 96.6084C46.2802 97.4348 45.7239 98.133 44.9715 98.5495C44.2191 98.9659 43.3321 99.0666 42.5054 98.8293C41.6788 98.5921 40.9802 98.0363 40.5632 97.2842C40.1462 96.5321 40.0449 95.6451 40.2815 94.8183C40.5181 93.9915 41.0734 93.2925 41.8252 92.8749" stroke="#937E42" stroke-width="2" stroke-linecap="round" stroke-linejoin="round"/>
<path d="M71.8826 97.3619C72.6356 96.9466 73.5228 96.8473 74.349 97.0858C75.1753 97.3243 75.873 97.8811 76.2889 98.6338C76.7048 99.3866 76.8048 100.274 76.5669 101.1C76.329 101.927 75.7727 102.625 75.0203 103.041C74.2679 103.458 73.3809 103.558 72.5543 103.321C71.7276 103.084 71.0291 102.528 70.612 101.776C70.195 101.024 70.0937 100.137 70.3303 99.31C70.567 98.4832 71.1222 97.7842 71.874 97.3666" fill="#56463A"/>
<path d="M71.8826 97.3619C72.6356 96.9466 73.5228 96.8473 74.349 97.0858C75.1753 97.3243 75.873 97.8811 76.2889 98.6338C76.7048 99.3866 76.8048 100.274 76.5669 101.1C76.329 101.927 75.7727 102.625 75.0203 103.041C74.2679 103.458 73.3809 103.558 72.5543 103.321C71.7276 103.084 71.0291 102.528 70.612 101.776C70.195 101.024 70.0937 100.137 70.3303 99.31C70.567 98.4832 71.1222 97.7842 71.874 97.3666" stroke="#937E42" stroke-width="2" stroke-linecap="round" stroke-linejoin="round"/>
</g>
<defs>
<clipPath id="clip0_108_87">
<rect width="62.1627" height="120.7" fill="white" transform="translate(28.4395 0.331055)"/>
</clipPath>
</defs>
</svg>
