<svg width="92" height="122" viewBox="0 0 92 122" fill="none" xmlns="http://www.w3.org/2000/svg">
<path d="M60.3955 39.5786C60.3955 56.6773 47.0124 70.5385 30.5034 70.5385C13.9945 70.5385 0.611328 56.6773 0.611328 39.5786C0.611328 22.4799 13.9945 8.61865 30.5034 8.61865C47.0124 8.61865 60.3955 22.4799 60.3955 39.5786Z" fill="#FBE5A5"/>
<g clip-path="url(#clip0_108_61)">
<path fill-rule="evenodd" clip-rule="evenodd" d="M32.9277 35.155L40.858 120.586L78.7072 120.225L85.5561 34.4341L32.9277 35.155Z" fill="#F4E84F" stroke="#857B61" stroke-width="7.46667" stroke-linejoin="round"/>
<path d="M48.863 98.8936C49.6161 98.4783 50.5032 98.379 51.3295 98.6175C52.1558 98.856 52.8535 99.4128 53.2694 100.166C53.6853 100.918 53.7853 101.805 53.5474 102.632C53.3095 103.458 52.7532 104.156 52.0008 104.573C51.2483 104.989 50.3613 105.09 49.5347 104.853C48.7081 104.615 48.0095 104.06 47.5925 103.308C47.1755 102.555 47.0741 101.669 47.3108 100.842C47.5474 100.015 48.1027 99.316 48.8545 98.8984" fill="#56463A"/>
<path d="M48.863 98.8936C49.6161 98.4783 50.5032 98.379 51.3295 98.6175C52.1558 98.856 52.8535 99.4128 53.2694 100.166C53.6853 100.918 53.7853 101.805 53.5474 102.632C53.3095 103.458 52.7532 104.156 52.0008 104.573C51.2483 104.989 50.3613 105.09 49.5347 104.853C48.7081 104.615 48.0095 104.06 47.5925 103.308C47.1755 102.555 47.0741 101.669 47.3108 100.842C47.5474 100.015 48.1027 99.316 48.8545 98.8984" stroke="#937E42" stroke-width="2" stroke-linecap="round" stroke-linejoin="round"/>
<path fill-rule="evenodd" clip-rule="evenodd" d="M44.4609 3.07331L51.6703 87.4228L53.1122 115.179C53.1122 115.179 62.4872 114.818 59.9611 114.818L54.554 32.9922C54.554 32.9922 53.2719 2.16943 51.6703 2.35237C48.4211 2.7235 44.4609 3.07331 44.4609 3.07331Z" fill="#89B480" stroke="#857B61" stroke-linecap="round" stroke-linejoin="round"/>
<path d="M58.0349 100.803C58.788 100.387 59.6751 100.288 60.5014 100.527C61.3276 100.765 62.0254 101.322 62.4413 102.075C62.8572 102.828 62.9572 103.715 62.7193 104.541C62.4814 105.367 61.9251 106.066 61.1727 106.482C60.4202 106.899 59.5332 106.999 58.7066 106.762C57.88 106.525 57.1814 105.969 56.7644 105.217C56.3474 104.465 56.246 103.578 56.4827 102.751C56.7193 101.924 57.2745 101.225 58.0263 100.808" fill="#56463A"/>
<path d="M58.0349 100.803C58.788 100.387 59.6751 100.288 60.5014 100.527C61.3276 100.765 62.0254 101.322 62.4413 102.075C62.8572 102.828 62.9572 103.715 62.7193 104.541C62.4814 105.367 61.9251 106.066 61.1727 106.482C60.4202 106.899 59.5332 106.999 58.7066 106.762C57.88 106.525 57.1814 105.969 56.7644 105.217C56.3474 104.465 56.246 103.578 56.4827 102.751C56.7193 101.924 57.2745 101.225 58.0263 100.808" stroke="#937E42" stroke-width="2" stroke-linecap="round" stroke-linejoin="round"/>
<path fill-rule="evenodd" clip-rule="evenodd" d="M46.9844 34.4341L51.6705 87.4229L53.1123 115.179C53.1123 115.179 62.4874 114.818 59.9612 114.818L54.5542 32.9922C54.5542 32.9922 54.3515 33.5132 52.7519 33.7131C46.9844 34.4341 46.9844 34.4341 46.9844 34.4341Z" fill="#81A47A" stroke="#726A55"/>
<path d="M89.3443 31.1899H30.5798C29.8853 31.1899 29.3223 32.239 29.3223 33.533C29.3223 34.827 29.8853 35.876 30.5798 35.876H89.3443C90.0388 35.876 90.6018 34.827 90.6018 33.533C90.6018 32.239 90.0388 31.1899 89.3443 31.1899Z" fill="#D6D6D6" stroke="#857B61" stroke-width="7.46667" stroke-linecap="round" stroke-linejoin="round"/>
<path d="M62.7205 93.5938C63.4735 93.1785 64.3607 93.0792 65.1869 93.3177C66.0132 93.5562 66.7109 94.113 67.1268 94.8658C67.5427 95.6185 67.6427 96.5056 67.4048 97.332C67.1669 98.1585 66.6106 98.8566 65.8582 99.2731C65.1058 99.6896 64.2188 99.7902 63.3922 99.5529C62.5655 99.3157 61.8669 98.7599 61.4499 98.0078C61.0329 97.2557 60.9316 96.3688 61.1682 95.542C61.4048 94.7152 61.9601 94.0162 62.7119 93.5986" fill="#56463A"/>
<path d="M62.7205 93.5938C63.4735 93.1785 64.3607 93.0792 65.1869 93.3177C66.0132 93.5562 66.7109 94.113 67.1268 94.8658C67.5427 95.6185 67.6427 96.5056 67.4048 97.332C67.1669 98.1585 66.6106 98.8566 65.8582 99.2731C65.1058 99.6896 64.2188 99.7902 63.3922 99.5529C62.5655 99.3157 61.8669 98.7599 61.4499 98.0078C61.0329 97.2557 60.9316 96.3688 61.1682 95.542C61.4048 94.7152 61.9601 94.0162 62.7119 93.5986" stroke="#937E42" stroke-width="2" stroke-linecap="round" stroke-linejoin="round"/>
<path d="M66.5818 101.834C67.3348 101.418 68.222 101.319 69.0483 101.557C69.8745 101.796 70.5723 102.353 70.9882 103.106C71.404 103.858 71.504 104.745 71.2661 105.572C71.0283 106.398 70.472 107.096 69.7195 107.513C68.9671 107.929 68.0801 108.03 67.2535 107.793C66.4269 107.555 65.7283 107 65.3113 106.248C64.8942 105.495 64.7929 104.609 65.0295 103.782C65.2662 102.955 65.8214 102.256 66.5732 101.838" fill="#56463A"/>
<path d="M66.5818 101.834C67.3348 101.418 68.222 101.319 69.0483 101.557C69.8745 101.796 70.5723 102.353 70.9882 103.106C71.404 103.858 71.504 104.745 71.2661 105.572C71.0283 106.398 70.472 107.096 69.7195 107.513C68.9671 107.929 68.0801 108.03 67.2535 107.793C66.4269 107.555 65.7283 107 65.3113 106.248C64.8942 105.495 64.7929 104.609 65.0295 103.782C65.2662 102.955 65.8214 102.256 66.5732 101.838" stroke="#937E42" stroke-width="2" stroke-linecap="round" stroke-linejoin="round"/>
<path d="M74.6169 94.3145C75.37 93.8992 76.2572 93.7999 77.0834 94.0384C77.9097 94.2769 78.6074 94.8337 79.0233 95.5865C79.4392 96.3392 79.5392 97.2263 79.3013 98.0527C79.0634 98.8792 78.5071 99.5773 77.7547 99.9938C77.0023 100.41 76.1153 100.511 75.2886 100.274C74.462 100.036 73.7634 99.4806 73.3464 98.7285C72.9294 97.9764 72.8281 97.0895 73.0647 96.2627C73.3013 95.4359 73.8566 94.7369 74.6084 94.3193" fill="#56463A"/>
<path d="M74.6169 94.3145C75.37 93.8992 76.2572 93.7999 77.0834 94.0384C77.9097 94.2769 78.6074 94.8337 79.0233 95.5865C79.4392 96.3392 79.5392 97.2263 79.3013 98.0527C79.0634 98.8792 78.5071 99.5773 77.7547 99.9938C77.0023 100.41 76.1153 100.511 75.2886 100.274C74.462 100.036 73.7634 99.4806 73.3464 98.7285C72.9294 97.9764 72.8281 97.0895 73.0647 96.2627C73.3013 95.4359 73.8566 94.7369 74.6084 94.3193" stroke="#937E42" stroke-width="2" stroke-linecap="round" stroke-linejoin="round"/>
<path d="M59.0662 105.483C59.8192 105.068 60.7064 104.969 61.5326 105.207C62.3589 105.446 63.0566 106.003 63.4725 106.755C63.8884 107.508 63.9884 108.395 63.7505 109.222C63.5126 110.048 62.9563 110.746 62.2039 111.163C61.4515 111.579 60.5645 111.68 59.7379 111.443C58.9112 111.205 58.2126 110.65 57.7956 109.897C57.3786 109.145 57.2773 108.258 57.5139 107.432C57.7505 106.605 58.3058 105.906 59.0576 105.488" fill="#56463A"/>
<path d="M59.0662 105.483C59.8192 105.068 60.7064 104.969 61.5326 105.207C62.3589 105.446 63.0566 106.003 63.4725 106.755C63.8884 107.508 63.9884 108.395 63.7505 109.222C63.5126 110.048 62.9563 110.746 62.2039 111.163C61.4515 111.579 60.5645 111.68 59.7379 111.443C58.9112 111.205 58.2126 110.65 57.7956 109.897C57.3786 109.145 57.2773 108.258 57.5139 107.432C57.7505 106.605 58.3058 105.906 59.0576 105.488" stroke="#937E42" stroke-width="2" stroke-linecap="round" stroke-linejoin="round"/>
<path d="M69.5701 111.978C70.3231 111.562 71.2103 111.463 72.0365 111.701C72.8628 111.94 73.5605 112.497 73.9764 113.25C74.3923 114.002 74.4923 114.889 74.2544 115.716C74.0165 116.542 73.4602 117.24 72.7078 117.657C71.9554 118.073 71.0684 118.174 70.2418 117.937C69.4151 117.699 68.7166 117.144 68.2995 116.392C67.8825 115.639 67.7812 114.753 68.0178 113.926C68.2545 113.099 68.8097 112.4 69.5615 111.982" fill="#56463A"/>
<path d="M69.5701 111.978C70.3231 111.562 71.2103 111.463 72.0365 111.701C72.8628 111.94 73.5605 112.497 73.9764 113.25C74.3923 114.002 74.4923 114.889 74.2544 115.716C74.0165 116.542 73.4603 117.24 72.7078 117.657C71.9554 118.073 71.0684 118.174 70.2418 117.937C69.4151 117.699 68.7166 117.144 68.2995 116.392C67.8825 115.639 67.7812 114.753 68.0178 113.926C68.2545 113.099 68.8097 112.4 69.5615 111.982" stroke="#937E42" stroke-width="2" stroke-linecap="round" stroke-linejoin="round"/>
<path d="M73.8962 104.768C74.6493 104.353 75.5365 104.254 76.3627 104.492C77.189 104.731 77.8867 105.287 78.3026 106.04C78.7185 106.793 78.8185 107.68 78.5806 108.506C78.3427 109.333 77.7864 110.031 77.034 110.447C76.2816 110.864 75.3946 110.965 74.5679 110.727C73.7413 110.49 73.0427 109.934 72.6257 109.182C72.2087 108.43 72.1074 107.543 72.344 106.716C72.5806 105.889 73.1359 105.19 73.8877 104.773" fill="#56463A"/>
<path d="M73.8962 104.768C74.6493 104.353 75.5365 104.254 76.3627 104.492C77.189 104.731 77.8867 105.287 78.3026 106.04C78.7185 106.793 78.8185 107.68 78.5806 108.506C78.3427 109.333 77.7864 110.031 77.034 110.447C76.2816 110.864 75.3946 110.965 74.5679 110.727C73.7413 110.49 73.0427 109.934 72.6257 109.182C72.2087 108.43 72.1074 107.543 72.344 106.716C72.5806 105.889 73.1359 105.19 73.8877 104.773" stroke="#937E42" stroke-width="2" stroke-linecap="round" stroke-linejoin="round"/>
<path d="M60.3982 112.851C61.1513 112.435 62.0384 112.336 62.8647 112.575C63.6909 112.813 64.3887 113.37 64.8046 114.123C65.2204 114.875 65.3204 115.762 65.0826 116.589C64.8447 117.415 64.2884 118.113 63.5359 118.53C62.7835 118.946 61.8965 119.047 61.0699 118.81C60.2433 118.573 59.5447 118.017 59.1277 117.265C58.7106 116.513 58.6093 115.626 58.8459 114.799C59.0826 113.972 59.6378 113.273 60.3896 112.855" fill="#56463A"/>
<path d="M60.3982 112.851C61.1513 112.435 62.0384 112.336 62.8647 112.575C63.6909 112.813 64.3887 113.37 64.8046 114.123C65.2204 114.875 65.3204 115.762 65.0825 116.589C64.8447 117.415 64.2884 118.113 63.5359 118.53C62.7835 118.946 61.8965 119.047 61.0699 118.81C60.2433 118.573 59.5447 118.017 59.1277 117.265C58.7106 116.513 58.6093 115.626 58.8459 114.799C59.0826 113.972 59.6378 113.273 60.3896 112.855" stroke="#937E42" stroke-width="2" stroke-linecap="round" stroke-linejoin="round"/>
<path d="M52.6287 112.698C53.3817 112.283 54.2689 112.184 55.0951 112.422C55.9214 112.661 56.6191 113.218 57.035 113.97C57.4509 114.723 57.5509 115.61 57.313 116.437C57.0751 117.263 56.5188 117.961 55.7664 118.378C55.014 118.794 54.127 118.895 53.3004 118.657C52.4737 118.42 51.7751 117.864 51.3581 117.112C50.9411 116.36 50.8398 115.473 51.0764 114.646C51.313 113.82 51.8683 113.121 52.6201 112.703" fill="#56463A"/>
<path d="M52.6287 112.698C53.3817 112.283 54.2689 112.184 55.0951 112.422C55.9214 112.661 56.6191 113.218 57.035 113.97C57.4509 114.723 57.5509 115.61 57.313 116.437C57.0751 117.263 56.5188 117.961 55.7664 118.378C55.014 118.794 54.127 118.895 53.3004 118.657C52.4737 118.42 51.7751 117.864 51.3581 117.112C50.9411 116.36 50.8398 115.473 51.0764 114.646C51.313 113.82 51.8683 113.121 52.6201 112.703" stroke="#937E42" stroke-width="2" stroke-linecap="round" stroke-linejoin="round"/>
<path d="M46.8611 108.373C47.6141 107.958 48.5013 107.858 49.3276 108.097C50.1538 108.336 50.8516 108.892 51.2674 109.645C51.6833 110.398 51.7833 111.285 51.5454 112.111C51.3076 112.938 50.7513 113.636 49.9988 114.052C49.2464 114.469 48.3594 114.57 47.5328 114.332C46.7062 114.095 46.0076 113.539 45.5905 112.787C45.1735 112.035 45.0722 111.148 45.3088 110.321C45.5455 109.494 46.1007 108.795 46.8525 108.378" fill="#56463A"/>
<path d="M46.8611 108.373C47.6141 107.958 48.5013 107.858 49.3276 108.097C50.1538 108.336 50.8516 108.892 51.2674 109.645C51.6833 110.398 51.7833 111.285 51.5454 112.111C51.3076 112.938 50.7513 113.636 49.9988 114.052C49.2464 114.469 48.3594 114.57 47.5328 114.332C46.7062 114.095 46.0076 113.539 45.5905 112.787C45.1735 112.035 45.0722 111.148 45.3088 110.321C45.5455 109.494 46.1007 108.795 46.8525 108.378" stroke="#937E42" stroke-width="2" stroke-linecap="round" stroke-linejoin="round"/>
<path d="M41.4392 100.628C42.1923 100.213 43.0794 100.114 43.9057 100.352C44.7319 100.591 45.4297 101.148 45.8456 101.9C46.2615 102.653 46.3615 103.54 46.1236 104.367C45.8857 105.193 45.3294 105.891 44.577 106.308C43.8245 106.724 42.9375 106.825 42.1109 106.588C41.2843 106.35 40.5857 105.795 40.1687 105.042C39.7516 104.29 39.6503 103.403 39.887 102.577C40.1236 101.75 40.6788 101.051 41.4306 100.633" fill="#56463A"/>
<path d="M41.4392 100.628C42.1923 100.213 43.0794 100.114 43.9057 100.352C44.7319 100.591 45.4297 101.148 45.8456 101.9C46.2615 102.653 46.3615 103.54 46.1236 104.367C45.8857 105.193 45.3294 105.891 44.577 106.308C43.8245 106.724 42.9375 106.825 42.1109 106.588C41.2843 106.35 40.5857 105.795 40.1687 105.042C39.7516 104.29 39.6503 103.403 39.887 102.577C40.1236 101.75 40.6788 101.051 41.4306 100.633" stroke="#937E42" stroke-width="2" stroke-linecap="round" stroke-linejoin="round"/>
<path d="M44.908 112.076C45.661 111.661 46.5482 111.562 47.3744 111.8C48.2007 112.039 48.8984 112.595 49.3143 113.348C49.7302 114.101 49.8302 114.988 49.5923 115.814C49.3544 116.641 48.7981 117.339 48.0457 117.756C47.2933 118.172 46.4063 118.273 45.5797 118.035C44.753 117.798 44.0544 117.242 43.6374 116.49C43.2204 115.738 43.1191 114.851 43.3557 114.024C43.5923 113.198 44.1476 112.499 44.8994 112.081" fill="#56463A"/>
<path d="M44.908 112.076C45.661 111.661 46.5482 111.562 47.3744 111.8C48.2007 112.039 48.8984 112.595 49.3143 113.348C49.7302 114.101 49.8302 114.988 49.5923 115.814C49.3544 116.641 48.7981 117.339 48.0457 117.756C47.2933 118.172 46.4063 118.273 45.5797 118.035C44.753 117.798 44.0544 117.242 43.6374 116.49C43.2204 115.738 43.1191 114.851 43.3557 114.024C43.5923 113.198 44.1476 112.499 44.8994 112.081" stroke="#937E42" stroke-width="2" stroke-linecap="round" stroke-linejoin="round"/>
<path d="M42.2751 92.8702C43.0282 92.4549 43.9154 92.3556 44.7416 92.5941C45.5679 92.8326 46.2656 93.3894 46.6815 94.1421C47.0974 94.8949 47.1974 95.782 46.9595 96.6084C46.7216 97.4348 46.1653 98.133 45.4129 98.5495C44.6605 98.9659 43.7735 99.0666 42.9468 98.8293C42.1202 98.5921 41.4216 98.0363 41.0046 97.2842C40.5876 96.5321 40.4863 95.6451 40.7229 94.8183C40.9595 93.9915 41.5148 93.2925 42.2666 92.8749" fill="#56463A"/>
<path d="M42.2751 92.8702C43.0282 92.4549 43.9154 92.3556 44.7416 92.5941C45.5679 92.8326 46.2656 93.3894 46.6815 94.1421C47.0974 94.8949 47.1974 95.782 46.9595 96.6084C46.7216 97.4348 46.1653 98.133 45.4129 98.5495C44.6605 98.9659 43.7735 99.0666 42.9468 98.8293C42.1202 98.5921 41.4216 98.0363 41.0046 97.2842C40.5876 96.5321 40.4863 95.6451 40.7229 94.8183C40.9595 93.9915 41.5148 93.2925 42.2666 92.8749" stroke="#937E42" stroke-width="2" stroke-linecap="round" stroke-linejoin="round"/>
<path d="M72.324 97.3619C73.077 96.9466 73.9642 96.8473 74.7904 97.0858C75.6167 97.3243 76.3145 97.8811 76.7303 98.6338C77.1462 99.3866 77.2462 100.274 77.0083 101.1C76.7704 101.927 76.2142 102.625 75.4617 103.041C74.7093 103.458 73.8223 103.558 72.9957 103.321C72.169 103.084 71.4705 102.528 71.0534 101.776C70.6364 101.024 70.5351 100.137 70.7717 99.31C71.0084 98.4832 71.5636 97.7842 72.3154 97.3666" fill="#56463A"/>
<path d="M72.324 97.3619C73.077 96.9466 73.9642 96.8473 74.7904 97.0858C75.6167 97.3243 76.3145 97.8811 76.7303 98.6338C77.1462 99.3866 77.2462 100.274 77.0083 101.1C76.7704 101.927 76.2142 102.625 75.4617 103.041C74.7093 103.458 73.8223 103.558 72.9957 103.321C72.169 103.084 71.4705 102.528 71.0534 101.776C70.6364 101.024 70.5351 100.137 70.7717 99.31C71.0084 98.4832 71.5636 97.7842 72.3154 97.3666" stroke="#937E42" stroke-width="2" stroke-linecap="round" stroke-linejoin="round"/>
</g>
<defs>
<clipPath id="clip0_108_61">
<rect width="62.1627" height="120.7" fill="white" transform="translate(28.8809 0.331055)"/>
</clipPath>
</defs>
</svg>
