<svg width="41" height="50" viewBox="0 0 41 50" fill="none" xmlns="http://www.w3.org/2000/svg">
<path d="M20.4895 0C9.15655 0.0842348 0 9.28631 0 20.633C0 26.1629 2.35857 31.5129 5.82586 35.2648L20.4941 49.933L35.1077 35.3149C38.6023 31.563 40.9791 26.1925 40.9791 20.633C40.9768 9.28859 31.8202 0.0842348 20.4895 0ZM31.8271 32.1595L20.4941 43.4947L9.11329 32.1139C6.25614 28.9881 4.55323 24.7036 4.55323 20.633C4.55323 11.843 11.6995 4.63747 20.4895 4.55551C29.2773 4.63747 36.4236 11.8452 36.4258 20.633C36.4258 24.7331 34.707 29.0359 31.8271 32.1595Z" fill="#F2AA46"/>
<path d="M20.4885 11.2329C15.3752 11.2329 11.2295 15.3786 11.2295 20.4919C11.2295 25.6052 15.3752 29.7509 20.4885 29.7509C25.6018 29.7509 29.7475 25.6052 29.7475 20.4919C29.7475 15.3764 25.6018 11.2329 20.4885 11.2329ZM20.4885 25.1954C17.8931 25.1954 15.7827 23.085 15.7827 20.4896C15.7827 17.8943 17.8931 15.7839 20.4885 15.7839C23.0838 15.7839 25.1943 17.8943 25.1943 20.4896C25.1943 23.085 23.0838 25.1954 20.4885 25.1954Z" fill="#F2AA46"/>
</svg>
