<svg preserveAspectRatio="xMidYMid meet" data-bbox="0 0 49.275 41" xmlns="http://www.w3.org/2000/svg" viewBox="0 0 49.275 41" height="41" width="50" data-type="color" role="presentation" aria-hidden="true" aria-labelledby="svgcid--zhbpqoqf5un4"><title id="svgcid--zhbpqoqf5un4"></title>
    <g>
        <path fill="#F2AA46" d="M0 4.813A4.813 4.813 0 0 1 4.813 0h39.65a4.813 4.813 0 0 1 4.812 4.813v31.374A4.813 4.813 0 0 1 44.462 41H4.812A4.813 4.813 0 0 1 0 36.187V4.813Zm44.436-.967H4.776a.953.953 0 0 0-.959.955v.041l20.109 20.112a.959.959 0 0 0 1.36 0L45.4 4.84V4.8a.957.957 0 0 0-.964-.954ZM4.776 37.154h39.66c.531 0 .964-.44.964-.97v-25.9L28.008 27.677a4.782 4.782 0 0 1-3.403 1.41 4.782 4.782 0 0 1-3.402-1.41L3.817 10.287v25.895c0 .531.427.97.958.97Z" data-color="1"></path>
    </g>
</svg>