<svg width="40" height="54" viewBox="0 0 40 54" fill="none" xmlns="http://www.w3.org/2000/svg">
<path d="M20 24C24.9624 24 29 19.9624 29 15V9C29 4.0376 24.9624 0 20 0C15.0376 0 11 4.0376 11 9V15C11 19.9624 15.0376 24 20 24ZM15 9C15 6.24316 17.2432 4 20 4C22.7568 4 25 6.24316 25 9V15C25 17.7568 22.7568 20 20 20C17.2432 20 15 17.7568 15 15V9Z" fill="#F2AA46"/>
<path d="M32.4146 20.8495C31.3872 20.4443 30.2256 20.9482 29.8198 21.9755C29.4146 23.0033 29.9185 24.165 30.9458 24.5702C34.0161 25.7817 36 28.6982 36 31.9999V49.9999H4V31.9999C4 28.6982 5.98389 25.7817 9.0542 24.5702C10.0815 24.165 10.5854 23.0033 10.1802 21.9755C9.77441 20.9487 8.61328 20.4418 7.58545 20.8495C2.97754 22.6679 0 27.0448 0 31.9999V51.9999C0 53.1044 0.895508 53.9999 2 53.9999H38C39.1045 53.9999 40 53.1044 40 51.9999V31.9999C40 27.0448 37.0225 22.6679 32.4146 20.8495Z" fill="#F2AA46"/>
</svg>
