<svg width="91" height="122" viewBox="0 0 91 122" fill="none" xmlns="http://www.w3.org/2000/svg">
<path d="M59.9737 39.8901C59.9737 56.9888 46.5905 70.8501 30.0816 70.8501C13.5726 70.8501 0.189453 56.9888 0.189453 39.8901C0.189453 22.7914 13.5726 8.93018 30.0816 8.93018C46.5905 8.93018 59.9737 22.7914 59.9737 39.8901Z" fill="#FBE5A5"/>
<g clip-path="url(#clip0_108_113)">
<path fill-rule="evenodd" clip-rule="evenodd" d="M32.5059 35.4665L40.4362 120.897L78.2853 120.537L85.1342 34.7456L32.5059 35.4665Z" fill="#ABC088" stroke="#857B61" stroke-width="7.46667" stroke-linejoin="round"/>
<path d="M48.4412 99.2052C49.1942 98.7898 50.0814 98.6905 50.9076 98.929C51.7339 99.1675 52.4316 99.7243 52.8475 100.477C53.2634 101.23 53.3634 102.117 53.1255 102.943C52.8876 103.77 52.3313 104.468 51.5789 104.884C50.8265 105.301 49.9395 105.402 49.1129 105.164C48.2862 104.927 47.5876 104.371 47.1706 103.619C46.7536 102.867 46.6523 101.98 46.8889 101.153C47.1255 100.326 47.6808 99.6275 48.4326 99.2099" fill="#56463A"/>
<path d="M48.4412 99.2052C49.1942 98.7898 50.0814 98.6905 50.9076 98.929C51.7339 99.1675 52.4316 99.7243 52.8475 100.477C53.2634 101.23 53.3634 102.117 53.1255 102.943C52.8876 103.77 52.3313 104.468 51.5789 104.884C50.8265 105.301 49.9395 105.402 49.1129 105.164C48.2862 104.927 47.5876 104.371 47.1706 103.619C46.7536 102.867 46.6523 101.98 46.8889 101.153C47.1255 100.326 47.6808 99.6275 48.4326 99.2099" stroke="#937E42" stroke-width="2" stroke-linecap="round" stroke-linejoin="round"/>
<path fill-rule="evenodd" clip-rule="evenodd" d="M44.0391 3.38483L51.2484 87.7343L52.6903 115.49C52.6903 115.49 62.0653 115.13 59.5392 115.13L54.1322 33.3037C54.1322 33.3037 52.8501 2.48096 51.2484 2.6639C47.9992 3.03503 44.0391 3.38483 44.0391 3.38483Z" fill="#89B480" stroke="#857B61" stroke-linecap="round" stroke-linejoin="round"/>
<path d="M57.613 101.114C58.3661 100.699 59.2532 100.6 60.0795 100.838C60.9058 101.077 61.6035 101.634 62.0194 102.386C62.4353 103.139 62.5353 104.026 62.2974 104.853C62.0595 105.679 61.5032 106.377 60.7508 106.794C59.9983 107.21 59.1113 107.311 58.2847 107.073C57.4581 106.836 56.7595 106.28 56.3425 105.528C55.9255 104.776 55.8241 103.889 56.0608 103.062C56.2974 102.236 56.8527 101.537 57.6045 101.119" fill="#56463A"/>
<path d="M57.613 101.114C58.3661 100.699 59.2532 100.6 60.0795 100.838C60.9058 101.077 61.6035 101.634 62.0194 102.386C62.4353 103.139 62.5353 104.026 62.2974 104.853C62.0595 105.679 61.5032 106.377 60.7508 106.794C59.9983 107.21 59.1113 107.311 58.2847 107.073C57.4581 106.836 56.7595 106.28 56.3425 105.528C55.9255 104.776 55.8241 103.889 56.0608 103.062C56.2974 102.236 56.8527 101.537 57.6045 101.119" stroke="#937E42" stroke-width="2" stroke-linecap="round" stroke-linejoin="round"/>
<path fill-rule="evenodd" clip-rule="evenodd" d="M46.5625 34.7456L51.2486 87.7344L52.6905 115.49C52.6905 115.49 62.0655 115.13 59.5393 115.13L54.1323 33.3037C54.1323 33.3037 53.9296 33.8247 52.33 34.0246C46.5625 34.7456 46.5625 34.7456 46.5625 34.7456Z" fill="#81A47A" stroke="#726A55"/>
<path d="M88.9224 31.5015H30.1579C29.4634 31.5015 28.9004 32.5505 28.9004 33.8445C28.9004 35.1385 29.4634 36.1875 30.1579 36.1875H88.9224C89.6169 36.1875 90.18 35.1385 90.18 33.8445C90.18 32.5505 89.6169 31.5015 88.9224 31.5015Z" fill="#D6D6D6" stroke="#857B61" stroke-width="7.46667" stroke-linecap="round" stroke-linejoin="round"/>
<path d="M62.2986 93.9054C63.0516 93.49 63.9388 93.3907 64.7651 93.6292C65.5913 93.8677 66.2891 94.4245 66.705 95.1773C67.1208 95.93 67.2208 96.8171 66.9829 97.6436C66.7451 98.47 66.1888 99.1682 65.4363 99.5846C64.6839 100.001 63.7969 100.102 62.9703 99.8645C62.1437 99.6272 61.4451 99.0714 61.028 98.3193C60.611 97.5672 60.5097 96.6803 60.7463 95.8535C60.983 95.0267 61.5382 94.3277 62.29 93.9101" fill="#56463A"/>
<path d="M62.2986 93.9054C63.0516 93.49 63.9388 93.3907 64.7651 93.6292C65.5913 93.8677 66.2891 94.4245 66.705 95.1773C67.1208 95.93 67.2208 96.8171 66.9829 97.6436C66.7451 98.47 66.1888 99.1682 65.4363 99.5846C64.6839 100.001 63.7969 100.102 62.9703 99.8645C62.1437 99.6272 61.4451 99.0714 61.028 98.3193C60.611 97.5672 60.5097 96.6803 60.7463 95.8535C60.983 95.0267 61.5382 94.3277 62.29 93.9101" stroke="#937E42" stroke-width="2" stroke-linecap="round" stroke-linejoin="round"/>
<path d="M66.1599 102.145C66.913 101.73 67.8001 101.63 68.6264 101.869C69.4526 102.107 70.1504 102.664 70.5663 103.417C70.9822 104.17 71.0822 105.057 70.8443 105.883C70.6064 106.71 70.0501 107.408 69.2977 107.824C68.5452 108.241 67.6582 108.341 66.8316 108.104C66.005 107.867 65.3064 107.311 64.8894 106.559C64.4724 105.807 64.371 104.92 64.6077 104.093C64.8443 103.266 65.3995 102.567 66.1513 102.15" fill="#56463A"/>
<path d="M66.1599 102.145C66.913 101.73 67.8001 101.63 68.6264 101.869C69.4526 102.107 70.1504 102.664 70.5663 103.417C70.9822 104.17 71.0822 105.057 70.8443 105.883C70.6064 106.71 70.0501 107.408 69.2977 107.824C68.5452 108.241 67.6582 108.341 66.8316 108.104C66.005 107.867 65.3064 107.311 64.8894 106.559C64.4724 105.807 64.371 104.92 64.6077 104.093C64.8443 103.266 65.3995 102.567 66.1513 102.15" stroke="#937E42" stroke-width="2" stroke-linecap="round" stroke-linejoin="round"/>
<path d="M74.1951 94.6261C74.9481 94.2107 75.8353 94.1114 76.6615 94.3499C77.4878 94.5884 78.1855 95.1452 78.6014 95.898C79.0173 96.6507 79.1173 97.5378 78.8794 98.3643C78.6415 99.1907 78.0852 99.8889 77.3328 100.305C76.5804 100.722 75.6934 100.822 74.8668 100.585C74.0401 100.348 73.3416 99.7922 72.9245 99.04C72.5075 98.2879 72.4062 97.401 72.6428 96.5742C72.8795 95.7474 73.4347 95.0484 74.1865 94.6308" fill="#56463A"/>
<path d="M74.1951 94.6261C74.9481 94.2107 75.8353 94.1114 76.6615 94.3499C77.4878 94.5884 78.1855 95.1452 78.6014 95.898C79.0173 96.6507 79.1173 97.5378 78.8794 98.3643C78.6415 99.1907 78.0852 99.8889 77.3328 100.305C76.5804 100.722 75.6934 100.822 74.8668 100.585C74.0401 100.348 73.3416 99.7922 72.9245 99.04C72.5075 98.2879 72.4062 97.401 72.6428 96.5742C72.8795 95.7474 73.4347 95.0484 74.1865 94.6308" stroke="#937E42" stroke-width="2" stroke-linecap="round" stroke-linejoin="round"/>
<path d="M58.6443 105.795C59.3973 105.38 60.2845 105.28 61.1108 105.519C61.937 105.757 62.6348 106.314 63.0507 107.067C63.4665 107.82 63.5665 108.707 63.3286 109.533C63.0908 110.36 62.5345 111.058 61.782 111.474C61.0296 111.891 60.1426 111.991 59.316 111.754C58.4894 111.517 57.7908 110.961 57.3738 110.209C56.9567 109.457 56.8554 108.57 57.092 107.743C57.3287 106.916 57.8839 106.217 58.6357 105.8" fill="#56463A"/>
<path d="M58.6443 105.795C59.3973 105.38 60.2845 105.28 61.1108 105.519C61.937 105.757 62.6348 106.314 63.0507 107.067C63.4665 107.82 63.5665 108.707 63.3286 109.533C63.0908 110.36 62.5345 111.058 61.782 111.474C61.0296 111.891 60.1426 111.991 59.316 111.754C58.4894 111.517 57.7908 110.961 57.3738 110.209C56.9567 109.457 56.8554 108.57 57.092 107.743C57.3287 106.916 57.8839 106.217 58.6357 105.8" stroke="#937E42" stroke-width="2" stroke-linecap="round" stroke-linejoin="round"/>
<path d="M69.1482 112.289C69.9013 111.874 70.7884 111.775 71.6147 112.013C72.4409 112.252 73.1387 112.808 73.5546 113.561C73.9704 114.314 74.0704 115.201 73.8326 116.027C73.5947 116.854 73.0384 117.552 72.2859 117.968C71.5335 118.385 70.6465 118.486 69.8199 118.248C68.9933 118.011 68.2947 117.455 67.8777 116.703C67.4606 115.951 67.3593 115.064 67.5959 114.237C67.8326 113.41 68.3878 112.711 69.1396 112.294" fill="#56463A"/>
<path d="M69.1482 112.289C69.9013 111.874 70.7884 111.775 71.6147 112.013C72.4409 112.252 73.1387 112.808 73.5546 113.561C73.9704 114.314 74.0704 115.201 73.8326 116.027C73.5947 116.854 73.0384 117.552 72.2859 117.968C71.5335 118.385 70.6465 118.486 69.8199 118.248C68.9933 118.011 68.2947 117.455 67.8777 116.703C67.4606 115.951 67.3593 115.064 67.5959 114.237C67.8326 113.41 68.3878 112.711 69.1396 112.294" stroke="#937E42" stroke-width="2" stroke-linecap="round" stroke-linejoin="round"/>
<path d="M73.4744 105.08C74.2274 104.664 75.1146 104.565 75.9408 104.804C76.7671 105.042 77.4648 105.599 77.8807 106.352C78.2966 107.104 78.3966 107.991 78.1587 108.818C77.9208 109.644 77.3645 110.342 76.6121 110.759C75.8597 111.175 74.9727 111.276 74.1461 111.039C73.3194 110.802 72.6209 110.246 72.2038 109.494C71.7868 108.742 71.6855 107.855 71.9221 107.028C72.1588 106.201 72.714 105.502 73.4658 105.084" fill="#56463A"/>
<path d="M73.4744 105.08C74.2274 104.664 75.1146 104.565 75.9408 104.804C76.7671 105.042 77.4648 105.599 77.8807 106.352C78.2966 107.104 78.3966 107.991 78.1587 108.818C77.9208 109.644 77.3645 110.342 76.6121 110.759C75.8597 111.175 74.9727 111.276 74.1461 111.039C73.3194 110.802 72.6209 110.246 72.2038 109.494C71.7868 108.742 71.6855 107.855 71.9221 107.028C72.1588 106.201 72.714 105.502 73.4658 105.084" stroke="#937E42" stroke-width="2" stroke-linecap="round" stroke-linejoin="round"/>
<path d="M59.9763 113.162C60.7294 112.747 61.6165 112.648 62.4428 112.886C63.269 113.125 63.9668 113.681 64.3827 114.434C64.7986 115.187 64.8986 116.074 64.6607 116.9C64.4228 117.727 63.8665 118.425 63.1141 118.841C62.3616 119.258 61.4746 119.359 60.648 119.121C59.8214 118.884 59.1228 118.328 58.7058 117.576C58.2888 116.824 58.1874 115.937 58.4241 115.11C58.6607 114.284 59.2159 113.585 59.9677 113.167" fill="#56463A"/>
<path d="M59.9763 113.162C60.7294 112.747 61.6165 112.648 62.4428 112.886C63.269 113.125 63.9668 113.681 64.3827 114.434C64.7986 115.187 64.8986 116.074 64.6607 116.9C64.4228 117.727 63.8665 118.425 63.1141 118.841C62.3616 119.258 61.4746 119.359 60.648 119.121C59.8214 118.884 59.1228 118.328 58.7058 117.576C58.2888 116.824 58.1874 115.937 58.4241 115.11C58.6607 114.284 59.2159 113.585 59.9677 113.167" stroke="#937E42" stroke-width="2" stroke-linecap="round" stroke-linejoin="round"/>
<path d="M52.2068 113.01C52.9599 112.595 53.847 112.495 54.6733 112.734C55.4995 112.972 56.1973 113.529 56.6132 114.282C57.029 115.035 57.129 115.922 56.8911 116.748C56.6533 117.574 56.097 118.273 55.3445 118.689C54.5921 119.106 53.7051 119.206 52.8785 118.969C52.0519 118.732 51.3533 118.176 50.9362 117.424C50.5192 116.672 50.4179 115.785 50.6545 114.958C50.8912 114.131 51.4464 113.432 52.1982 113.015" fill="#56463A"/>
<path d="M52.2068 113.01C52.9599 112.595 53.847 112.495 54.6733 112.734C55.4995 112.972 56.1973 113.529 56.6132 114.282C57.029 115.035 57.129 115.922 56.8911 116.748C56.6533 117.574 56.097 118.273 55.3445 118.689C54.5921 119.106 53.7051 119.206 52.8785 118.969C52.0519 118.732 51.3533 118.176 50.9362 117.424C50.5192 116.672 50.4179 115.785 50.6545 114.958C50.8912 114.131 51.4464 113.432 52.1982 113.015" stroke="#937E42" stroke-width="2" stroke-linecap="round" stroke-linejoin="round"/>
<path d="M46.4392 108.685C47.1923 108.269 48.0794 108.17 48.9057 108.409C49.7319 108.647 50.4297 109.204 50.8456 109.957C51.2615 110.709 51.3614 111.596 51.1236 112.423C50.8857 113.249 50.3294 113.947 49.577 114.364C48.8245 114.78 47.9375 114.881 47.1109 114.644C46.2843 114.407 45.5857 113.851 45.1687 113.099C44.7516 112.347 44.6503 111.46 44.887 110.633C45.1236 109.806 45.6788 109.107 46.4306 108.689" fill="#56463A"/>
<path d="M46.4392 108.685C47.1923 108.269 48.0794 108.17 48.9057 108.409C49.7319 108.647 50.4297 109.204 50.8456 109.957C51.2615 110.709 51.3614 111.596 51.1236 112.423C50.8857 113.249 50.3294 113.947 49.577 114.364C48.8245 114.78 47.9375 114.881 47.1109 114.644C46.2843 114.407 45.5857 113.851 45.1687 113.099C44.7516 112.347 44.6503 111.46 44.887 110.633C45.1236 109.806 45.6788 109.107 46.4306 108.689" stroke="#937E42" stroke-width="2" stroke-linecap="round" stroke-linejoin="round"/>
<path d="M41.0173 100.94C41.7704 100.525 42.6575 100.425 43.4838 100.664C44.3101 100.902 45.0078 101.459 45.4237 102.212C45.8396 102.965 45.9396 103.852 45.7017 104.678C45.4638 105.505 44.9075 106.203 44.1551 106.619C43.4026 107.036 42.5156 107.136 41.689 106.899C40.8624 106.662 40.1638 106.106 39.7468 105.354C39.3298 104.602 39.2284 103.715 39.4651 102.888C39.7017 102.061 40.257 101.362 41.0088 100.945" fill="#56463A"/>
<path d="M41.0173 100.94C41.7704 100.525 42.6575 100.425 43.4838 100.664C44.3101 100.902 45.0078 101.459 45.4237 102.212C45.8396 102.965 45.9396 103.852 45.7017 104.678C45.4638 105.505 44.9075 106.203 44.1551 106.619C43.4026 107.036 42.5156 107.136 41.689 106.899C40.8624 106.662 40.1638 106.106 39.7468 105.354C39.3298 104.602 39.2284 103.715 39.4651 102.888C39.7017 102.061 40.257 101.362 41.0088 100.945" stroke="#937E42" stroke-width="2" stroke-linecap="round" stroke-linejoin="round"/>
<path d="M44.4861 112.388C45.2391 111.972 46.1263 111.873 46.9526 112.112C47.7788 112.35 48.4766 112.907 48.8924 113.66C49.3083 114.412 49.4083 115.3 49.1704 116.126C48.9326 116.952 48.3763 117.651 47.6238 118.067C46.8714 118.483 45.9844 118.584 45.1578 118.347C44.3312 118.11 43.6326 117.554 43.2155 116.802C42.7985 116.05 42.6972 115.163 42.9338 114.336C43.1705 113.509 43.7257 112.81 44.4775 112.393" fill="#56463A"/>
<path d="M44.4861 112.388C45.2391 111.972 46.1263 111.873 46.9526 112.112C47.7788 112.35 48.4766 112.907 48.8924 113.66C49.3083 114.412 49.4083 115.3 49.1704 116.126C48.9326 116.952 48.3763 117.651 47.6238 118.067C46.8714 118.483 45.9844 118.584 45.1578 118.347C44.3312 118.11 43.6326 117.554 43.2155 116.802C42.7985 116.05 42.6972 115.163 42.9338 114.336C43.1705 113.509 43.7257 112.81 44.4775 112.393" stroke="#937E42" stroke-width="2" stroke-linecap="round" stroke-linejoin="round"/>
<path d="M41.8533 93.1817C42.6063 92.7664 43.4935 92.6671 44.3197 92.9056C45.146 93.1441 45.8438 93.7009 46.2596 94.4537C46.6755 95.2064 46.7755 96.0935 46.5376 96.9199C46.2997 97.7464 45.7434 98.4445 44.991 98.861C44.2386 99.2774 43.3516 99.3781 42.525 99.1408C41.6983 98.9036 40.9998 98.3478 40.5827 97.5957C40.1657 96.8436 40.0644 95.9567 40.301 95.1299C40.5377 94.3031 41.0929 93.6041 41.8447 93.1865" fill="#56463A"/>
<path d="M41.8533 93.1817C42.6063 92.7664 43.4935 92.6671 44.3197 92.9056C45.146 93.1441 45.8438 93.7009 46.2596 94.4537C46.6755 95.2064 46.7755 96.0935 46.5376 96.9199C46.2997 97.7464 45.7434 98.4445 44.991 98.861C44.2386 99.2774 43.3516 99.3781 42.525 99.1408C41.6983 98.9036 40.9998 98.3478 40.5827 97.5957C40.1657 96.8436 40.0644 95.9567 40.301 95.1299C40.5377 94.3031 41.0929 93.6041 41.8447 93.1865" stroke="#937E42" stroke-width="2" stroke-linecap="round" stroke-linejoin="round"/>
<path d="M71.9021 97.6734C72.6552 97.2581 73.5423 97.1588 74.3686 97.3973C75.1948 97.6358 75.8926 98.1926 76.3085 98.9454C76.7243 99.6981 76.8243 100.585 76.5865 101.412C76.3486 102.238 75.7923 102.936 75.0398 103.353C74.2874 103.769 73.4004 103.87 72.5738 103.633C71.7472 103.395 71.0486 102.84 70.6316 102.087C70.2145 101.335 70.1132 100.448 70.3498 99.6216C70.5865 98.7948 71.1417 98.0958 71.8935 97.6782" fill="#56463A"/>
<path d="M71.9021 97.6734C72.6552 97.2581 73.5423 97.1588 74.3686 97.3973C75.1948 97.6358 75.8926 98.1926 76.3085 98.9454C76.7243 99.6981 76.8243 100.585 76.5865 101.412C76.3486 102.238 75.7923 102.936 75.0398 103.353C74.2874 103.769 73.4004 103.87 72.5738 103.633C71.7472 103.395 71.0486 102.84 70.6316 102.087C70.2145 101.335 70.1132 100.448 70.3498 99.6216C70.5865 98.7948 71.1417 98.0958 71.8935 97.6782" stroke="#937E42" stroke-width="2" stroke-linecap="round" stroke-linejoin="round"/>
</g>
<defs>
<clipPath id="clip0_108_113">
<rect width="62.1627" height="120.7" fill="white" transform="translate(28.459 0.642578)"/>
</clipPath>
</defs>
</svg>
