<svg width="36" height="70" viewBox="0 0 36 70" fill="none" xmlns="http://www.w3.org/2000/svg">
<g clip-path="url(#clip0_125_26)">
<path fill-rule="evenodd" clip-rule="evenodd" d="M2.89258 20.4075L7.35764 69.2454L28.6682 69.0393L32.5244 19.9954L2.89258 20.4075Z" fill="white" stroke="#F2AA46" stroke-width="3" stroke-linejoin="round"/>
<path d="M11.8649 56.8449C12.2889 56.6074 12.7884 56.5507 13.2536 56.687C13.7188 56.8234 14.1117 57.1417 14.3459 57.572C14.58 58.0023 14.6363 58.5094 14.5024 58.9819C14.3684 59.4543 14.0552 59.8534 13.6316 60.0915C13.2079 60.3296 12.7085 60.3871 12.2431 60.2515C11.7777 60.1159 11.3843 59.7981 11.1495 59.3682C10.9147 58.9382 10.8577 58.4312 10.9909 57.9585C11.1242 57.4859 11.4368 57.0863 11.8601 56.8476" fill="#56463A"/>
<path d="M11.8649 56.8449C12.2889 56.6074 12.7884 56.5507 13.2536 56.687C13.7188 56.8234 14.1117 57.1417 14.3459 57.572C14.58 58.0023 14.6363 58.5094 14.5024 58.9819C14.3684 59.4543 14.0552 59.8534 13.6316 60.0915C13.2079 60.3296 12.7085 60.3871 12.2431 60.2515C11.7777 60.1159 11.3843 59.7981 11.1495 59.3682C10.9147 58.9382 10.8577 58.4312 10.9909 57.9585C11.1242 57.4859 11.4368 57.0863 11.8601 56.8476" stroke="#F2AA46" stroke-width="2" stroke-linecap="round" stroke-linejoin="round"/>
<path fill-rule="evenodd" clip-rule="evenodd" d="M9.38721 2.06763C10.9724 20.8986 11.8612 31.4564 13.4464 50.2873L14.2582 66.1545C14.2582 66.1545 19.5367 65.9484 18.1144 65.9484L15.07 19.1712C15.07 19.1712 14.3481 1.55091 13.4464 1.65549C11.6169 1.86765 9.38721 2.06763 9.38721 2.06763Z" fill="#F2AA46" stroke="#F2AA46" stroke-linecap="round" stroke-linejoin="round"/>
<path d="M17.029 57.9364C17.453 57.699 17.9525 57.6422 18.4177 57.7786C18.8829 57.9149 19.2758 58.2332 19.5099 58.6635C19.7441 59.0939 19.8004 59.601 19.6664 60.0734C19.5325 60.5459 19.2193 60.945 18.7956 61.1831C18.372 61.4211 17.8726 61.4787 17.4072 61.343C16.9417 61.2074 16.5484 60.8897 16.3136 60.4597C16.0788 60.0298 16.0218 59.5228 16.155 59.0501C16.2882 58.5775 16.6008 58.1779 17.0241 57.9391" fill="#56463A"/>
<path d="M17.029 57.9364C17.453 57.699 17.9525 57.6422 18.4177 57.7786C18.8829 57.9149 19.2758 58.2332 19.5099 58.6635C19.7441 59.0939 19.8004 59.601 19.6664 60.0734C19.5325 60.5459 19.2193 60.945 18.7956 61.1831C18.372 61.4211 17.8726 61.4787 17.4072 61.343C16.9417 61.2074 16.5484 60.8897 16.3136 60.4597C16.0788 60.0298 16.0218 59.5228 16.155 59.0501C16.2882 58.5775 16.6008 58.1779 17.0241 57.9391" stroke="#F2AA46" stroke-width="2" stroke-linecap="round" stroke-linejoin="round"/>
<path fill-rule="evenodd" clip-rule="evenodd" d="M10.8076 19.9954L13.4461 50.2873L14.2579 66.1544C14.2579 66.1544 19.5364 65.9484 18.1141 65.9484L15.0697 19.1711C15.0697 19.1711 14.9556 19.469 14.0549 19.5833C10.8076 19.9954 10.8076 19.9954 10.8076 19.9954Z" fill="#F2AA46" stroke="#F2AA46"/>
<path d="M34.6575 18.1409H1.57083C1.17979 18.1409 0.862793 18.7406 0.862793 19.4803C0.862793 20.2201 1.17979 20.8197 1.57083 20.8197H34.6575C35.0485 20.8197 35.3656 20.2201 35.3656 19.4803C35.3656 18.7406 35.0485 18.1409 34.6575 18.1409Z" fill="#D6D6D6" stroke="#F2AA46" stroke-width="3" stroke-linecap="round" stroke-linejoin="round"/>
<path d="M21.8415 58.5255C22.2655 58.2881 22.765 58.2313 23.2302 58.3677C23.6954 58.504 24.0883 58.8223 24.3224 59.2527C24.5566 59.683 24.6129 60.1901 24.4789 60.6625C24.345 61.135 24.0318 61.5341 23.6081 61.7722C23.1845 62.0102 22.6851 62.0678 22.2197 61.9322C21.7542 61.7965 21.3609 61.4788 21.1261 61.0488C20.8913 60.6189 20.8343 60.1119 20.9675 59.6392C21.1007 59.1666 21.4133 58.767 21.8366 58.5282" fill="#56463A"/>
<path d="M21.8415 58.5255C22.2655 58.2881 22.765 58.2313 23.2302 58.3677C23.6954 58.504 24.0883 58.8223 24.3224 59.2527C24.5566 59.683 24.6129 60.1901 24.4789 60.6625C24.345 61.135 24.0318 61.5341 23.6081 61.7722C23.1845 62.0102 22.6851 62.0678 22.2197 61.9322C21.7542 61.7965 21.3609 61.4788 21.1261 61.0488C20.8913 60.6189 20.8343 60.1119 20.9675 59.6392C21.1007 59.1666 21.4133 58.767 21.8366 58.5282" stroke="#F2AA46" stroke-linecap="round" stroke-linejoin="round"/>
<path d="M26.3649 54.2272C26.7889 53.9898 27.2884 53.933 27.7536 54.0693C28.2188 54.2057 28.6117 54.524 28.8459 54.9543C29.08 55.3846 29.1363 55.8917 29.0024 56.3642C28.8684 56.8366 28.5552 57.2358 28.1316 57.4738C27.7079 57.7119 27.2085 57.7694 26.7431 57.6338C26.2777 57.4982 25.8843 57.1805 25.6495 56.7505C25.4147 56.3205 25.3577 55.8135 25.4909 55.3409C25.6242 54.8682 25.9368 54.4686 26.3601 54.2299" fill="#56463A"/>
<path d="M26.3649 54.2272C26.7889 53.9898 27.2884 53.933 27.7536 54.0693C28.2188 54.2057 28.6117 54.524 28.8459 54.9543C29.08 55.3846 29.1363 55.8917 29.0024 56.3642C28.8684 56.8366 28.5552 57.2358 28.1316 57.4738C27.7079 57.7119 27.2085 57.7694 26.7431 57.6338C26.2777 57.4982 25.8843 57.1805 25.6495 56.7505C25.4147 56.3205 25.3577 55.8135 25.4909 55.3409C25.6242 54.8682 25.9368 54.4686 26.3601 54.2299" stroke="#F2AA46" stroke-linecap="round" stroke-linejoin="round"/>
<path d="M17.6095 60.612C18.0335 60.3745 18.533 60.3178 18.9982 60.4541C19.4635 60.5904 19.8563 60.9088 20.0905 61.3391C20.3246 61.7694 20.3809 62.2765 20.247 62.749C20.1131 63.2214 19.7999 63.6205 19.3762 63.8586C18.9526 64.0967 18.4531 64.1542 17.9877 64.0186C17.5223 63.8829 17.129 63.5652 16.8942 63.1353C16.6594 62.7053 16.6023 62.1983 16.7356 61.7256C16.8688 61.253 17.1814 60.8534 17.6047 60.6147" fill="#56463A"/>
<path d="M17.6095 60.612C18.0335 60.3745 18.533 60.3178 18.9982 60.4541C19.4635 60.5904 19.8563 60.9088 20.0905 61.3391C20.3246 61.7694 20.3809 62.2765 20.247 62.749C20.1131 63.2214 19.7999 63.6205 19.3762 63.8586C18.9526 64.0967 18.4531 64.1542 17.9877 64.0186C17.5223 63.8829 17.129 63.5652 16.8942 63.1353C16.6594 62.7053 16.6023 62.1983 16.7356 61.7256C16.8688 61.253 17.1814 60.8534 17.6047 60.6147" stroke="#F2AA46" stroke-linecap="round" stroke-linejoin="round"/>
<path d="M23.5236 64.3244C23.9476 64.0869 24.4471 64.0302 24.9123 64.1665C25.3775 64.3029 25.7704 64.6212 26.0045 65.0515C26.2387 65.4818 26.295 65.9889 26.1611 66.4614C26.0271 66.9338 25.7139 67.3329 25.2903 67.571C24.8666 67.8091 24.3672 67.8666 23.9018 67.731C23.4364 67.5954 23.043 67.2776 22.8082 66.8477C22.5734 66.4177 22.5164 65.9107 22.6496 65.438C22.7829 64.9654 23.0955 64.5658 23.5188 64.3271" fill="#56463A"/>
<path d="M23.5236 64.3244C23.9476 64.0869 24.4471 64.0302 24.9123 64.1665C25.3775 64.3029 25.7704 64.6212 26.0045 65.0515C26.2387 65.4818 26.295 65.9889 26.1611 66.4614C26.0271 66.9338 25.7139 67.3329 25.2903 67.571C24.8666 67.8091 24.3672 67.8666 23.9018 67.731C23.4364 67.5954 23.043 67.2776 22.8082 66.8477C22.5734 66.4177 22.5164 65.9107 22.6496 65.438C22.7829 64.9654 23.0955 64.5658 23.5188 64.3271" stroke="#F2AA46" stroke-linecap="round" stroke-linejoin="round"/>
<path d="M25.9591 60.203C26.3831 59.9656 26.8826 59.9088 27.3479 60.0452C27.8131 60.1815 28.2059 60.4998 28.4401 60.9301C28.6743 61.3605 28.7306 61.8676 28.5966 62.34C28.4627 62.8125 28.1495 63.2116 27.7258 63.4497C27.3022 63.6877 26.8027 63.7453 26.3373 63.6096C25.8719 63.474 25.4786 63.1563 25.2438 62.7263C25.009 62.2964 24.9519 61.7894 25.0852 61.3167C25.2184 60.8441 25.531 60.4445 25.9543 60.2057" fill="#56463A"/>
<path d="M25.9591 60.203C26.3831 59.9656 26.8826 59.9088 27.3479 60.0452C27.8131 60.1815 28.2059 60.4998 28.4401 60.9301C28.6743 61.3605 28.7306 61.8676 28.5966 62.34C28.4627 62.8125 28.1495 63.2116 27.7258 63.4497C27.3022 63.6877 26.8027 63.7453 26.3373 63.6096C25.8719 63.474 25.4786 63.1563 25.2438 62.7263C25.009 62.2964 24.9519 61.7894 25.0852 61.3167C25.2184 60.8441 25.531 60.4445 25.9543 60.2057" stroke="#F2AA46" stroke-linecap="round" stroke-linejoin="round"/>
<path d="M18.3595 64.8234C18.7835 64.586 19.283 64.5292 19.7482 64.6655C20.2135 64.8019 20.6063 65.1202 20.8405 65.5505C21.0746 65.9808 21.1309 66.4879 20.997 66.9604C20.8631 67.4328 20.5499 67.8319 20.1262 68.07C19.7026 68.3081 19.2031 68.3656 18.7377 68.23C18.2723 68.0944 17.879 67.7767 17.6442 67.3467C17.4094 66.9167 17.3523 66.4097 17.4856 65.9371C17.6188 65.4644 17.9314 65.0648 18.3547 64.8261" fill="#56463A"/>
<path d="M18.3595 64.8234C18.7835 64.586 19.283 64.5292 19.7482 64.6655C20.2135 64.8019 20.6063 65.1202 20.8405 65.5505C21.0746 65.9808 21.1309 66.4879 20.997 66.9604C20.8631 67.4328 20.5499 67.8319 20.1262 68.07C19.7026 68.3081 19.2031 68.3656 18.7377 68.23C18.2723 68.0944 17.879 67.7767 17.6442 67.3467C17.4094 66.9167 17.3523 66.4097 17.4856 65.9371C17.6188 65.4644 17.9314 65.0648 18.3547 64.8261" stroke="#F2AA46" stroke-linecap="round" stroke-linejoin="round"/>
<path d="M13.9845 64.7365C14.4085 64.499 14.908 64.4423 15.3732 64.5786C15.8385 64.715 16.2313 65.0333 16.4655 65.4636C16.6996 65.8939 16.7559 66.401 16.622 66.8735C16.4881 67.3459 16.1749 67.745 15.7512 67.9831C15.3276 68.2212 14.8281 68.2787 14.3627 68.1431C13.8973 68.0075 13.504 67.6897 13.2692 67.2598C13.0344 66.8298 12.9773 66.3228 13.1106 65.8502C13.2438 65.3775 13.5564 64.9779 13.9797 64.7392" fill="#56463A"/>
<path d="M13.9845 64.7365C14.4085 64.499 14.908 64.4423 15.3732 64.5786C15.8385 64.715 16.2313 65.0333 16.4655 65.4636C16.6996 65.8939 16.7559 66.401 16.622 66.8735C16.4881 67.3459 16.1749 67.745 15.7512 67.9831C15.3276 68.2212 14.8281 68.2787 14.3627 68.1431C13.8973 68.0075 13.504 67.6897 13.2692 67.2598C13.0344 66.8298 12.9773 66.3228 13.1106 65.8502C13.2438 65.3775 13.5564 64.9779 13.9797 64.7392" stroke="#F2AA46" stroke-linecap="round" stroke-linejoin="round"/>
<path d="M10.7375 62.2638C11.1615 62.0264 11.661 61.9696 12.1262 62.106C12.5914 62.2423 12.9843 62.5606 13.2184 62.9909C13.4526 63.4213 13.5089 63.9284 13.3749 64.4008C13.241 64.8733 12.9278 65.2724 12.5041 65.5105C12.0805 65.7485 11.5811 65.8061 11.1156 65.6704C10.6502 65.5348 10.2569 65.2171 10.0221 64.7871C9.7873 64.3572 9.73025 63.8501 9.86348 63.3775C9.99672 62.9048 10.3093 62.5052 10.7326 62.2665" fill="#56463A"/>
<path d="M10.7375 62.2638C11.1615 62.0264 11.661 61.9696 12.1262 62.106C12.5914 62.2423 12.9843 62.5606 13.2184 62.9909C13.4526 63.4213 13.5089 63.9284 13.3749 64.4008C13.241 64.8733 12.9278 65.2724 12.5041 65.5105C12.0805 65.7485 11.5811 65.8061 11.1156 65.6704C10.6502 65.5348 10.2569 65.2171 10.0221 64.7871C9.7873 64.3572 9.73025 63.8501 9.86348 63.3775C9.99672 62.9048 10.3093 62.5052 10.7326 62.2665" stroke="#F2AA46" stroke-linecap="round" stroke-linejoin="round"/>
<path d="M7.68522 57.8366C8.10922 57.5991 8.60872 57.5424 9.07393 57.6787C9.53915 57.8151 9.93201 58.1334 10.1662 58.5637C10.4003 58.994 10.4566 59.5011 10.3227 59.9736C10.1888 60.446 9.87554 60.8451 9.45189 61.0832C9.02824 61.3213 8.52882 61.3788 8.0634 61.2432C7.59799 61.1076 7.20465 60.7898 6.96985 60.3599C6.73505 59.9299 6.678 59.4229 6.81124 58.9502C6.94447 58.4776 7.2571 58.078 7.68039 57.8393" fill="#56463A"/>
<path d="M7.68522 57.8366C8.10922 57.5991 8.60872 57.5424 9.07393 57.6787C9.53915 57.8151 9.93201 58.1334 10.1662 58.5637C10.4003 58.994 10.4566 59.5011 10.3227 59.9736C10.1888 60.446 9.87554 60.8451 9.45189 61.0832C9.02824 61.3213 8.52882 61.3788 8.0634 61.2432C7.59799 61.1076 7.20465 60.7898 6.96985 60.3599C6.73505 59.9299 6.678 59.4229 6.81124 58.9502C6.94447 58.4776 7.2571 58.078 7.68039 57.8393" stroke="#F2AA46" stroke-linecap="round" stroke-linejoin="round"/>
<path d="M9.63883 64.3808C10.0628 64.1433 10.5623 64.0866 11.0275 64.2229C11.4928 64.3592 11.8856 64.6776 12.1198 65.1079C12.3539 65.5382 12.4102 66.0453 12.2763 66.5178C12.1424 66.9902 11.8291 67.3893 11.4055 67.6274C10.9819 67.8655 10.4824 67.923 10.017 67.7874C9.5516 67.6517 9.15827 67.334 8.92347 66.9041C8.68867 66.4741 8.63161 65.9671 8.76485 65.4944C8.89809 65.0218 9.21071 64.6222 9.634 64.3835" fill="#56463A"/>
<path d="M9.63883 64.3808C10.0628 64.1433 10.5623 64.0866 11.0275 64.2229C11.4928 64.3592 11.8856 64.6776 12.1198 65.1079C12.3539 65.5382 12.4102 66.0453 12.2763 66.5178C12.1424 66.9902 11.8291 67.3893 11.4055 67.6274C10.9819 67.8655 10.4824 67.923 10.017 67.7874C9.5516 67.6517 9.15827 67.334 8.92347 66.9041C8.68867 66.4741 8.63161 65.9671 8.76485 65.4944C8.89809 65.0218 9.21071 64.6222 9.634 64.3835" stroke="#F2AA46" stroke-linecap="round" stroke-linejoin="round"/>
<path d="M8.15591 53.4013C8.57992 53.1638 9.07942 53.1071 9.54463 53.2434C10.0098 53.3798 10.4027 53.6981 10.6369 54.1284C10.871 54.5587 10.9273 55.0658 10.7934 55.5383C10.6595 56.0107 10.3462 56.4098 9.92259 56.6479C9.49894 56.886 8.99953 56.9435 8.53411 56.8079C8.06869 56.6723 7.67535 56.3545 7.44056 55.9246C7.20576 55.4946 7.1487 54.9876 7.28194 54.5149C7.41518 54.0423 7.72779 53.6427 8.15109 53.404" fill="#56463A"/>
<path d="M8.15591 53.4013C8.57992 53.1638 9.07942 53.1071 9.54463 53.2434C10.0098 53.3798 10.4027 53.6981 10.6369 54.1284C10.871 54.5587 10.9273 55.0658 10.7934 55.5383C10.6595 56.0107 10.3462 56.4098 9.92259 56.6479C9.49894 56.886 8.99953 56.9435 8.53411 56.8079C8.06869 56.6723 7.67535 56.3545 7.44056 55.9246C7.20576 55.4946 7.1487 54.9876 7.28194 54.5149C7.41518 54.0423 7.72779 53.6427 8.15109 53.404" stroke="#F2AA46" stroke-linecap="round" stroke-linejoin="round"/>
<path d="M25.0744 55.9691C25.4984 55.7317 25.9979 55.6749 26.4631 55.8113C26.9283 55.9476 27.3212 56.2659 27.5553 56.6963C27.7895 57.1266 27.8458 57.6337 27.7118 58.1061C27.5779 58.5786 27.2647 58.9777 26.841 59.2158C26.4174 59.4538 25.918 59.5114 25.4526 59.3758C24.9871 59.2401 24.5938 58.9224 24.359 58.4925C24.1242 58.0625 24.0672 57.5555 24.2004 57.0828C24.3336 56.6102 24.6463 56.2106 25.0695 55.9718" fill="#56463A"/>
<path d="M25.0744 55.9691C25.4984 55.7317 25.9979 55.6749 26.4631 55.8113C26.9283 55.9476 27.3212 56.2659 27.5553 56.6963C27.7895 57.1266 27.8458 57.6337 27.7118 58.1061C27.5779 58.5786 27.2647 58.9777 26.841 59.2158C26.4174 59.4538 25.918 59.5114 25.4526 59.3758C24.9871 59.2401 24.5938 58.9224 24.359 58.4925C24.1242 58.0625 24.0672 57.5555 24.2004 57.0828C24.3336 56.6102 24.6463 56.2106 25.0695 55.9718" stroke="#F2AA46" stroke-linecap="round" stroke-linejoin="round"/>
</g>
<defs>
<clipPath id="clip0_125_26">
<rect width="35" height="69" fill="white" transform="translate(0.614258 0.5)"/>
</clipPath>
</defs>
</svg>
