<svg width="91" height="122" viewBox="0 0 91 122" fill="none" xmlns="http://www.w3.org/2000/svg">
<path d="M60.2979 39.7807C60.2979 56.8794 46.9147 70.7407 30.4058 70.7407C13.8968 70.7407 0.513672 56.8794 0.513672 39.7807C0.513672 22.682 13.8968 8.8208 30.4058 8.8208C46.9147 8.8208 60.2979 22.682 60.2979 39.7807Z" fill="#FBE5A5"/>
<g clip-path="url(#clip0_108_139)">
<path fill-rule="evenodd" clip-rule="evenodd" d="M32.8301 35.3572L40.7604 120.788L78.6095 120.428L85.4584 34.6362L32.8301 35.3572Z" fill="#E3BEAB" stroke="#857B61" stroke-width="7.46667" stroke-linejoin="round"/>
<path d="M48.7654 99.0958C49.5184 98.6805 50.4056 98.5811 51.2318 98.8197C52.0581 99.0582 52.7559 99.615 53.1717 100.368C53.5876 101.12 53.6876 102.008 53.4497 102.834C53.2119 103.66 52.6556 104.359 51.9031 104.775C51.1507 105.192 50.2637 105.292 49.4371 105.055C48.6105 104.818 47.9119 104.262 47.4948 103.51C47.0778 102.758 46.9765 101.871 47.2131 101.044C47.4498 100.217 48.005 99.5181 48.7568 99.1005" fill="#56463A"/>
<path d="M48.7654 99.0958C49.5184 98.6805 50.4056 98.5811 51.2318 98.8197C52.0581 99.0582 52.7559 99.615 53.1717 100.368C53.5876 101.12 53.6876 102.008 53.4497 102.834C53.2119 103.66 52.6556 104.359 51.9031 104.775C51.1507 105.192 50.2637 105.292 49.4371 105.055C48.6105 104.818 47.9119 104.262 47.4948 103.51C47.0778 102.758 46.9765 101.871 47.2131 101.044C47.4498 100.217 48.005 99.5181 48.7568 99.1005" stroke="#937E42" stroke-width="2" stroke-linecap="round" stroke-linejoin="round"/>
<path fill-rule="evenodd" clip-rule="evenodd" d="M44.3633 3.27546L51.5726 87.625L53.0145 115.381C53.0145 115.381 62.3895 115.021 59.8634 115.021L54.4564 33.1943C54.4564 33.1943 53.1743 2.37158 51.5726 2.55452C48.3234 2.92565 44.3633 3.27546 44.3633 3.27546Z" fill="#89B480" stroke="#857B61" stroke-linecap="round" stroke-linejoin="round"/>
<path d="M57.9373 101.005C58.6903 100.59 59.5775 100.49 60.4037 100.729C61.23 100.967 61.9277 101.524 62.3436 102.277C62.7595 103.03 62.8595 103.917 62.6216 104.743C62.3837 105.57 61.8274 106.268 61.075 106.684C60.3226 107.101 59.4356 107.201 58.6089 106.964C57.7823 106.727 57.0837 106.171 56.6667 105.419C56.2497 104.667 56.1484 103.78 56.385 102.953C56.6216 102.126 57.1769 101.427 57.9287 101.01" fill="#56463A"/>
<path d="M57.9373 101.005C58.6903 100.59 59.5775 100.49 60.4037 100.729C61.23 100.967 61.9277 101.524 62.3436 102.277C62.7595 103.03 62.8595 103.917 62.6216 104.743C62.3837 105.57 61.8274 106.268 61.075 106.684C60.3226 107.101 59.4356 107.201 58.6089 106.964C57.7823 106.727 57.0837 106.171 56.6667 105.419C56.2497 104.667 56.1484 103.78 56.385 102.953C56.6216 102.126 57.1769 101.427 57.9287 101.01" stroke="#937E42" stroke-width="2" stroke-linecap="round" stroke-linejoin="round"/>
<path fill-rule="evenodd" clip-rule="evenodd" d="M46.8867 34.6362L51.5728 87.625L53.0147 115.381C53.0147 115.381 62.3897 115.021 59.8636 115.021L54.4565 33.1943C54.4565 33.1943 54.2538 33.7153 52.6542 33.9153C46.8867 34.6362 46.8867 34.6362 46.8867 34.6362Z" fill="#81A47A" stroke="#726A55"/>
<path d="M89.2466 31.3921H30.4821C29.7876 31.3921 29.2246 32.4411 29.2246 33.7351C29.2246 35.0292 29.7876 36.0782 30.4821 36.0782H89.2466C89.9411 36.0782 90.5042 35.0292 90.5042 33.7351C90.5042 32.4411 89.9411 31.3921 89.2466 31.3921Z" fill="#D6D6D6" stroke="#857B61" stroke-width="7.46667" stroke-linecap="round" stroke-linejoin="round"/>
<path d="M62.6228 93.796C63.3759 93.3807 64.263 93.2813 65.0893 93.5198C65.9155 93.7584 66.6133 94.3152 67.0292 95.0679C67.4451 95.8207 67.545 96.7077 67.3072 97.5342C67.0693 98.3606 66.513 99.0588 65.7606 99.4752C65.0081 99.8917 64.1211 99.9924 63.2945 99.7551C62.4679 99.5178 61.7693 98.9621 61.3523 98.21C60.9352 97.4578 60.8339 96.5709 61.0706 95.7441C61.3072 94.9173 61.8624 94.2183 62.6142 93.8007" fill="#56463A"/>
<path d="M62.6228 93.796C63.3759 93.3807 64.263 93.2813 65.0893 93.5198C65.9155 93.7584 66.6133 94.3152 67.0292 95.0679C67.4451 95.8207 67.545 96.7077 67.3072 97.5342C67.0693 98.3606 66.513 99.0588 65.7606 99.4752C65.0081 99.8917 64.1211 99.9924 63.2945 99.7551C62.4679 99.5178 61.7693 98.9621 61.3523 98.21C60.9352 97.4578 60.8339 96.5709 61.0706 95.7441C61.3072 94.9173 61.8624 94.2183 62.6142 93.8007" stroke="#937E42" stroke-width="2" stroke-linecap="round" stroke-linejoin="round"/>
<path d="M66.4841 102.036C67.2372 101.62 68.1243 101.521 68.9506 101.76C69.7769 101.998 70.4746 102.555 70.8905 103.308C71.3064 104.06 71.4064 104.947 71.1685 105.774C70.9306 106.6 70.3743 107.299 69.6219 107.715C68.8694 108.131 67.9824 108.232 67.1558 107.995C66.3292 107.758 65.6306 107.202 65.2136 106.45C64.7966 105.698 64.6952 104.811 64.9319 103.984C65.1685 103.157 65.7238 102.458 66.4756 102.04" fill="#56463A"/>
<path d="M66.4841 102.036C67.2372 101.62 68.1243 101.521 68.9506 101.76C69.7769 101.998 70.4746 102.555 70.8905 103.308C71.3064 104.06 71.4064 104.947 71.1685 105.774C70.9306 106.6 70.3743 107.299 69.6219 107.715C68.8694 108.131 67.9824 108.232 67.1558 107.995C66.3292 107.758 65.6306 107.202 65.2136 106.45C64.7966 105.698 64.6952 104.811 64.9319 103.984C65.1685 103.157 65.7238 102.458 66.4756 102.04" stroke="#937E42" stroke-width="2" stroke-linecap="round" stroke-linejoin="round"/>
<path d="M74.5193 94.5167C75.2723 94.1014 76.1595 94.002 76.9858 94.2405C77.812 94.4791 78.5098 95.0359 78.9257 95.7886C79.3415 96.5414 79.4415 97.4285 79.2036 98.2549C78.9658 99.0813 78.4095 99.7795 77.657 100.196C76.9046 100.612 76.0176 100.713 75.191 100.476C74.3644 100.239 73.6658 99.6828 73.2487 98.9307C72.8317 98.1785 72.7304 97.2916 72.967 96.4648C73.2037 95.638 73.7589 94.939 74.5107 94.5214" fill="#56463A"/>
<path d="M74.5193 94.5167C75.2723 94.1014 76.1595 94.002 76.9858 94.2405C77.812 94.4791 78.5098 95.0359 78.9257 95.7886C79.3415 96.5414 79.4415 97.4285 79.2036 98.2549C78.9658 99.0813 78.4095 99.7795 77.657 100.196C76.9046 100.612 76.0176 100.713 75.191 100.476C74.3644 100.239 73.6658 99.6828 73.2487 98.9307C72.8317 98.1785 72.7304 97.2916 72.967 96.4648C73.2037 95.638 73.7589 94.939 74.5107 94.5214" stroke="#937E42" stroke-width="2" stroke-linecap="round" stroke-linejoin="round"/>
<path d="M58.9685 105.686C59.7216 105.27 60.6087 105.171 61.435 105.409C62.2612 105.648 62.959 106.205 63.3749 106.958C63.7908 107.71 63.8907 108.597 63.6529 109.424C63.415 110.25 62.8587 110.948 62.1063 111.365C61.3538 111.781 60.4668 111.882 59.6402 111.645C58.8136 111.407 58.115 110.852 57.698 110.1C57.2809 109.347 57.1796 108.461 57.4163 107.634C57.6529 106.807 58.2081 106.108 58.9599 105.69" fill="#56463A"/>
<path d="M58.9685 105.686C59.7216 105.27 60.6087 105.171 61.435 105.409C62.2612 105.648 62.959 106.205 63.3749 106.958C63.7908 107.71 63.8907 108.597 63.6529 109.424C63.415 110.25 62.8587 110.948 62.1063 111.365C61.3538 111.781 60.4668 111.882 59.6402 111.645C58.8136 111.407 58.115 110.852 57.698 110.1C57.2809 109.347 57.1796 108.461 57.4163 107.634C57.6529 106.807 58.2081 106.108 58.9599 105.69" stroke="#937E42" stroke-width="2" stroke-linecap="round" stroke-linejoin="round"/>
<path d="M69.4724 112.18C70.2255 111.764 71.1126 111.665 71.9389 111.904C72.7651 112.142 73.4629 112.699 73.8788 113.452C74.2947 114.204 74.3947 115.092 74.1568 115.918C73.9189 116.744 73.3626 117.443 72.6102 117.859C71.8577 118.275 70.9707 118.376 70.1441 118.139C69.3175 117.902 68.6189 117.346 68.2019 116.594C67.7849 115.842 67.6835 114.955 67.9202 114.128C68.1568 113.301 68.712 112.602 69.4638 112.185" fill="#56463A"/>
<path d="M69.4724 112.18C70.2255 111.764 71.1126 111.665 71.9389 111.904C72.7651 112.142 73.4629 112.699 73.8788 113.452C74.2947 114.204 74.3947 115.092 74.1568 115.918C73.9189 116.744 73.3626 117.443 72.6102 117.859C71.8577 118.275 70.9707 118.376 70.1441 118.139C69.3175 117.902 68.6189 117.346 68.2019 116.594C67.7849 115.842 67.6835 114.955 67.9202 114.128C68.1568 113.301 68.712 112.602 69.4638 112.185" stroke="#937E42" stroke-width="2" stroke-linecap="round" stroke-linejoin="round"/>
<path d="M73.7986 104.97C74.5516 104.555 75.4388 104.456 76.2651 104.694C77.0913 104.933 77.7891 105.489 78.205 106.242C78.6208 106.995 78.7208 107.882 78.4829 108.709C78.2451 109.535 77.6888 110.233 76.9363 110.65C76.1839 111.066 75.2969 111.167 74.4703 110.929C73.6437 110.692 72.9451 110.136 72.528 109.384C72.111 108.632 72.0097 107.745 72.2463 106.918C72.483 106.092 73.0382 105.393 73.79 104.975" fill="#56463A"/>
<path d="M73.7986 104.97C74.5516 104.555 75.4388 104.456 76.2651 104.694C77.0913 104.933 77.7891 105.489 78.205 106.242C78.6208 106.995 78.7208 107.882 78.4829 108.709C78.2451 109.535 77.6888 110.233 76.9363 110.65C76.1839 111.066 75.2969 111.167 74.4703 110.929C73.6437 110.692 72.9451 110.136 72.528 109.384C72.111 108.632 72.0097 107.745 72.2463 106.918C72.483 106.092 73.0382 105.393 73.79 104.975" stroke="#937E42" stroke-width="2" stroke-linecap="round" stroke-linejoin="round"/>
<path d="M60.3005 113.053C61.0536 112.637 61.9408 112.538 62.767 112.777C63.5933 113.015 64.291 113.572 64.7069 114.325C65.1228 115.078 65.2228 115.965 64.9849 116.791C64.747 117.617 64.1907 118.316 63.4383 118.732C62.6859 119.149 61.7989 119.249 60.9722 119.012C60.1456 118.775 59.447 118.219 59.03 117.467C58.613 116.715 58.5116 115.828 58.7483 115.001C58.9849 114.174 59.5402 113.475 60.292 113.058" fill="#56463A"/>
<path d="M60.3005 113.053C61.0536 112.637 61.9408 112.538 62.767 112.777C63.5933 113.015 64.291 113.572 64.7069 114.325C65.1228 115.078 65.2228 115.965 64.9849 116.791C64.747 117.617 64.1907 118.316 63.4383 118.732C62.6859 119.149 61.7989 119.249 60.9722 119.012C60.1456 118.775 59.447 118.219 59.03 117.467C58.613 116.715 58.5116 115.828 58.7483 115.001C58.9849 114.174 59.5402 113.475 60.292 113.058" stroke="#937E42" stroke-width="2" stroke-linecap="round" stroke-linejoin="round"/>
<path d="M52.531 112.9C53.2841 112.485 54.1712 112.386 54.9975 112.624C55.8237 112.863 56.5215 113.42 56.9374 114.172C57.3533 114.925 57.4533 115.812 57.2154 116.639C56.9775 117.465 56.4212 118.163 55.6688 118.58C54.9163 118.996 54.0293 119.097 53.2027 118.86C52.3761 118.622 51.6775 118.067 51.2605 117.314C50.8434 116.562 50.7421 115.675 50.9788 114.849C51.2154 114.022 51.7706 113.323 52.5224 112.905" fill="#56463A"/>
<path d="M52.531 112.9C53.2841 112.485 54.1712 112.386 54.9975 112.624C55.8237 112.863 56.5215 113.42 56.9374 114.172C57.3533 114.925 57.4533 115.812 57.2154 116.639C56.9775 117.465 56.4212 118.163 55.6688 118.58C54.9163 118.996 54.0293 119.097 53.2027 118.86C52.3761 118.622 51.6775 118.067 51.2605 117.314C50.8434 116.562 50.7421 115.675 50.9788 114.849C51.2154 114.022 51.7706 113.323 52.5224 112.905" stroke="#937E42" stroke-width="2" stroke-linecap="round" stroke-linejoin="round"/>
<path d="M46.7634 108.575C47.5165 108.16 48.4036 108.061 49.2299 108.299C50.0562 108.538 50.7539 109.094 51.1698 109.847C51.5857 110.6 51.6857 111.487 51.4478 112.313C51.2099 113.14 50.6536 113.838 49.9012 114.255C49.1487 114.671 48.2617 114.772 47.4351 114.534C46.6085 114.297 45.9099 113.741 45.4929 112.989C45.0759 112.237 44.9745 111.35 45.2112 110.523C45.4478 109.697 46.0031 108.998 46.7549 108.58" fill="#56463A"/>
<path d="M46.7634 108.575C47.5165 108.16 48.4036 108.061 49.2299 108.299C50.0562 108.538 50.7539 109.094 51.1698 109.847C51.5857 110.6 51.6857 111.487 51.4478 112.313C51.2099 113.14 50.6536 113.838 49.9012 114.255C49.1487 114.671 48.2617 114.772 47.4351 114.534C46.6085 114.297 45.9099 113.741 45.4929 112.989C45.0759 112.237 44.9745 111.35 45.2112 110.523C45.4478 109.697 46.0031 108.998 46.7549 108.58" stroke="#937E42" stroke-width="2" stroke-linecap="round" stroke-linejoin="round"/>
<path d="M41.3416 100.831C42.0946 100.415 42.9818 100.316 43.808 100.555C44.6343 100.793 45.332 101.35 45.7479 102.103C46.1638 102.855 46.2638 103.742 46.0259 104.569C45.788 105.395 45.2317 106.093 44.4793 106.51C43.7269 106.926 42.8399 107.027 42.0132 106.79C41.1866 106.553 40.488 105.997 40.071 105.245C39.654 104.493 39.5527 103.606 39.7893 102.779C40.0259 101.952 40.5812 101.253 41.333 100.835" fill="#56463A"/>
<path d="M41.3416 100.831C42.0946 100.415 42.9818 100.316 43.808 100.555C44.6343 100.793 45.332 101.35 45.7479 102.103C46.1638 102.855 46.2638 103.742 46.0259 104.569C45.788 105.395 45.2317 106.093 44.4793 106.51C43.7269 106.926 42.8399 107.027 42.0132 106.79C41.1866 106.553 40.488 105.997 40.071 105.245C39.654 104.493 39.5527 103.606 39.7893 102.779C40.0259 101.952 40.5812 101.253 41.333 100.835" stroke="#937E42" stroke-width="2" stroke-linecap="round" stroke-linejoin="round"/>
<path d="M44.8103 112.278C45.5634 111.863 46.4505 111.764 47.2768 112.002C48.103 112.241 48.8008 112.798 49.2167 113.55C49.6326 114.303 49.7325 115.19 49.4947 116.017C49.2568 116.843 48.7005 117.541 47.948 117.958C47.1956 118.374 46.3086 118.475 45.482 118.238C44.6554 118 43.9568 117.444 43.5398 116.692C43.1227 115.94 43.0214 115.053 43.2581 114.227C43.4947 113.4 44.0499 112.701 44.8017 112.283" fill="#56463A"/>
<path d="M44.8103 112.278C45.5634 111.863 46.4505 111.764 47.2768 112.002C48.103 112.241 48.8008 112.798 49.2167 113.55C49.6326 114.303 49.7325 115.19 49.4947 116.017C49.2568 116.843 48.7005 117.541 47.948 117.958C47.1956 118.374 46.3086 118.475 45.482 118.238C44.6554 118 43.9568 117.444 43.5398 116.692C43.1227 115.94 43.0214 115.053 43.2581 114.227C43.4947 113.4 44.0499 112.701 44.8017 112.283" stroke="#937E42" stroke-width="2" stroke-linecap="round" stroke-linejoin="round"/>
<path d="M42.1775 93.0723C42.9305 92.657 43.8177 92.5577 44.644 92.7962C45.4702 93.0347 46.168 93.5915 46.5839 94.3443C46.9997 95.097 47.0997 95.9841 46.8618 96.8106C46.624 97.637 46.0677 98.3352 45.3152 98.7516C44.5628 99.1681 43.6758 99.2687 42.8492 99.0315C42.0226 98.7942 41.324 98.2384 40.907 97.4863C40.4899 96.7342 40.3886 95.8473 40.6252 95.0205C40.8619 94.1937 41.4171 93.4947 42.1689 93.0771" fill="#56463A"/>
<path d="M42.1775 93.0723C42.9305 92.657 43.8177 92.5577 44.644 92.7962C45.4702 93.0347 46.168 93.5915 46.5839 94.3443C46.9997 95.097 47.0997 95.9841 46.8618 96.8106C46.624 97.637 46.0677 98.3352 45.3152 98.7516C44.5628 99.1681 43.6758 99.2687 42.8492 99.0315C42.0226 98.7942 41.324 98.2384 40.907 97.4863C40.4899 96.7342 40.3886 95.8473 40.6252 95.0205C40.8619 94.1937 41.4171 93.4947 42.1689 93.0771" stroke="#937E42" stroke-width="2" stroke-linecap="round" stroke-linejoin="round"/>
<path d="M72.2263 97.564C72.9794 97.1487 73.8665 97.0494 74.6928 97.2879C75.519 97.5264 76.2168 98.0832 76.6327 98.836C77.0486 99.5887 77.1486 100.476 76.9107 101.302C76.6728 102.129 76.1165 102.827 75.3641 103.243C74.6116 103.66 73.7246 103.76 72.898 103.523C72.0714 103.286 71.3728 102.73 70.9558 101.978C70.5388 101.226 70.4374 100.339 70.6741 99.5122C70.9107 98.6854 71.4659 97.9864 72.2177 97.5688" fill="#56463A"/>
<path d="M72.2263 97.564C72.9794 97.1487 73.8665 97.0494 74.6928 97.2879C75.519 97.5264 76.2168 98.0832 76.6327 98.836C77.0486 99.5887 77.1486 100.476 76.9107 101.302C76.6728 102.129 76.1165 102.827 75.3641 103.243C74.6116 103.66 73.7246 103.76 72.898 103.523C72.0714 103.286 71.3728 102.73 70.9558 101.978C70.5388 101.226 70.4374 100.339 70.6741 99.5122C70.9107 98.6854 71.4659 97.9864 72.2177 97.5688" stroke="#937E42" stroke-width="2" stroke-linecap="round" stroke-linejoin="round"/>
</g>
<defs>
<clipPath id="clip0_108_139">
<rect width="62.1627" height="120.7" fill="white" transform="translate(28.7832 0.533203)"/>
</clipPath>
</defs>
</svg>
