<svg preserveAspectRatio="xMidYMid meet" data-bbox="0 -0.001 40 40.004" xmlns="http://www.w3.org/2000/svg" viewBox="0 -0.001 40 40.004" height="41" width="40" data-type="color" role="presentation" aria-hidden="true" aria-labelledby="svgcid--fe56ra-3ifi9l"><title id="svgcid--fe56ra-3ifi9l"></title>
    <g>
        <path fill="#F2AA46" d="M17.959 8.51c1.172 1.299.8 2.77-.236 4.167-.246.33-.53.657-.871 1.017-.164.172-.292.302-.56.57l-1.534 1.534c-.2.201 1.171 2.942 3.833 5.607 2.66 2.663 5.401 4.035 5.603 3.833l1.533-1.533c.844-.845 1.29-1.252 1.905-1.655 1.277-.838 2.67-1.065 3.844-.015 3.834 2.743 6.005 4.426 7.068 5.53 2.073 2.155 1.801 5.472.011 7.364a74.179 74.179 0 0 1-2.337 2.34c-5.623 5.626-17.49 2.202-26.585-6.902C.535 21.261-2.887 9.393 2.725 3.778a168.207 168.207 0 0 1 2.32-2.322c1.827-1.8 5.296-2.081 7.406.002 1.11 1.096 2.878 3.372 5.508 7.052Zm10.595 18.023-1.533 1.534c-2.605 2.607-7.042.385-11.257-3.834-4.218-4.223-6.438-8.658-3.832-11.264l1.532-1.533c.246-.245.358-.36.492-.5a8.35 8.35 0 0 0 .455-.512c-2.33-3.247-3.915-5.276-4.77-6.12-.44-.435-1.428-.355-1.79.002-.968.953-1.286 1.27-2.289 2.29-3.608 3.61-.846 13.192 6.898 20.943 7.742 7.75 17.321 10.513 20.957 6.876a71.48 71.48 0 0 0 2.235-2.236c.415-.438.489-1.343.012-1.839-.795-.825-2.74-2.342-6.1-4.755-.244.197-.546.483-1.01.948Z" clip-rule="evenodd" fill-rule="evenodd" data-color="1"></path>
    </g>
</svg>