<svg width="92" height="121" viewBox="0 0 92 121" fill="none" xmlns="http://www.w3.org/2000/svg">
<path d="M60.5323 39.4009C60.5323 56.4996 47.1491 70.3608 30.6402 70.3608C14.1312 70.3608 0.748047 56.4996 0.748047 39.4009C0.748047 22.3022 14.1312 8.44092 30.6402 8.44092C47.1491 8.44092 60.5323 22.3022 60.5323 39.4009Z" fill="#FBE5A5"/>
<g clip-path="url(#clip0_108_243)">
<path fill-rule="evenodd" clip-rule="evenodd" d="M33.4238 35.4226L41.3541 120.854L79.2033 120.493L86.0522 34.7017L33.4238 35.4226Z" fill="#AC4B5D" stroke="#857B61" stroke-width="7.46667" stroke-linejoin="round"/>
<path fill-rule="evenodd" clip-rule="evenodd" d="M44.5977 2.89558L51.807 87.2451L53.2489 115.001C53.2489 115.001 62.6239 114.641 60.0978 114.641L54.6908 32.8144C54.6908 32.8144 53.4087 1.9917 51.807 2.17464C48.5578 2.54577 44.5977 2.89558 44.5977 2.89558Z" fill="#89B480" stroke="#857B61" stroke-linecap="round" stroke-linejoin="round"/>
<path d="M58.1716 100.625C58.9247 100.21 59.8118 100.11 60.6381 100.349C61.4644 100.587 62.1621 101.144 62.578 101.897C62.9939 102.65 63.0939 103.537 62.856 104.363C62.6181 105.19 62.0618 105.888 61.3094 106.304C60.5569 106.721 59.6699 106.821 58.8433 106.584C58.0167 106.347 57.3181 105.791 56.9011 105.039C56.4841 104.287 56.3827 103.4 56.6194 102.573C56.856 101.746 57.4113 101.047 58.1631 100.63" fill="#56463A"/>
<path d="M58.1716 100.625C58.9247 100.21 59.8118 100.11 60.6381 100.349C61.4644 100.587 62.1621 101.144 62.578 101.897C62.9939 102.65 63.0939 103.537 62.856 104.363C62.6181 105.19 62.0618 105.888 61.3094 106.304C60.5569 106.721 59.6699 106.821 58.8433 106.584C58.0167 106.347 57.3181 105.791 56.9011 105.039C56.4841 104.287 56.3827 103.4 56.6194 102.573C56.856 101.746 57.4113 101.047 58.1631 100.63" stroke="#937E42" stroke-width="2" stroke-linecap="round" stroke-linejoin="round"/>
<path fill-rule="evenodd" clip-rule="evenodd" d="M47.1211 34.2563L51.8072 87.2451L53.2491 115.001C53.2491 115.001 62.6241 114.641 60.0979 114.641L54.6909 32.8145C54.6909 32.8145 54.4882 33.3354 52.8886 33.5354C47.1211 34.2563 47.1211 34.2563 47.1211 34.2563Z" fill="#81A47A" stroke="#726A55"/>
<path d="M89.481 31.0122H30.7165C30.022 31.0122 29.459 32.0612 29.459 33.3552C29.459 34.6493 30.022 35.6983 30.7165 35.6983H89.481C90.1755 35.6983 90.7385 34.6493 90.7385 33.3552C90.7385 32.0612 90.1755 31.0122 89.481 31.0122Z" fill="#D6D6D6" stroke="#857B61" stroke-width="7.46667" stroke-linecap="round" stroke-linejoin="round"/>
<path d="M62.8572 93.4161C63.6102 93.0008 64.4974 92.9015 65.3236 93.14C66.1499 93.3785 66.8477 93.9353 67.2635 94.688C67.6794 95.4408 67.7794 96.3279 67.5415 97.1543C67.3037 97.9807 66.7474 98.6789 65.9949 99.0954C65.2425 99.5118 64.3555 99.6125 63.5289 99.3752C62.7023 99.138 62.0037 98.5822 61.5866 97.8301C61.1696 97.078 61.0683 96.191 61.3049 95.3642C61.5416 94.5374 62.0968 93.8384 62.8486 93.4208" fill="#56463A"/>
<path d="M62.8572 93.4161C63.6102 93.0008 64.4974 92.9015 65.3236 93.14C66.1499 93.3785 66.8477 93.9353 67.2635 94.688C67.6794 95.4408 67.7794 96.3279 67.5415 97.1543C67.3037 97.9807 66.7474 98.6789 65.9949 99.0954C65.2425 99.5118 64.3555 99.6125 63.5289 99.3752C62.7023 99.138 62.0037 98.5822 61.5866 97.8301C61.1696 97.078 61.0683 96.191 61.3049 95.3642C61.5416 94.5374 62.0968 93.8384 62.8486 93.4208" stroke="#937E42" stroke-width="2" stroke-linecap="round" stroke-linejoin="round"/>
<path d="M66.7185 101.656C67.4716 101.241 68.3587 101.141 69.185 101.38C70.0112 101.618 70.709 102.175 71.1249 102.928C71.5408 103.681 71.6407 104.568 71.4029 105.394C71.165 106.22 70.6087 106.919 69.8563 107.335C69.1038 107.752 68.2168 107.852 67.3902 107.615C66.5636 107.378 65.865 106.822 65.448 106.07C65.0309 105.318 64.9296 104.431 65.1663 103.604C65.4029 102.777 65.9581 102.078 66.7099 101.661" fill="#56463A"/>
<path d="M66.7185 101.656C67.4716 101.241 68.3587 101.141 69.185 101.38C70.0112 101.618 70.709 102.175 71.1249 102.928C71.5408 103.681 71.6407 104.568 71.4029 105.394C71.165 106.22 70.6087 106.919 69.8563 107.335C69.1038 107.752 68.2168 107.852 67.3902 107.615C66.5636 107.378 65.865 106.822 65.448 106.07C65.0309 105.318 64.9296 104.431 65.1663 103.604C65.4029 102.777 65.9581 102.078 66.7099 101.661" stroke="#937E42" stroke-width="2" stroke-linecap="round" stroke-linejoin="round"/>
<path d="M74.7537 94.1368C75.5067 93.7215 76.3939 93.6222 77.2201 93.8607C78.0464 94.0992 78.7441 94.656 79.16 95.4087C79.5759 96.1615 79.6759 97.0486 79.438 97.875C79.2001 98.7014 78.6438 99.3996 77.8914 99.8161C77.139 100.233 76.252 100.333 75.4254 100.096C74.5987 99.8587 73.9001 99.3029 73.4831 98.5508C73.0661 97.7987 72.9648 96.9117 73.2014 96.0849C73.438 95.2581 73.9933 94.5591 74.7451 94.1415" fill="#56463A"/>
<path d="M74.7537 94.1368C75.5067 93.7215 76.3939 93.6222 77.2201 93.8607C78.0464 94.0992 78.7441 94.656 79.16 95.4087C79.5759 96.1615 79.6759 97.0486 79.438 97.875C79.2001 98.7014 78.6438 99.3996 77.8914 99.8161C77.139 100.233 76.252 100.333 75.4254 100.096C74.5987 99.8587 73.9001 99.3029 73.4831 98.5508C73.0661 97.7987 72.9648 96.9117 73.2014 96.0849C73.438 95.2581 73.9933 94.5591 74.7451 94.1415" stroke="#937E42" stroke-width="2" stroke-linecap="round" stroke-linejoin="round"/>
<path d="M59.2029 105.306C59.9559 104.89 60.8431 104.791 61.6694 105.03C62.4956 105.268 63.1934 105.825 63.6092 106.578C64.0251 107.33 64.1251 108.218 63.8872 109.044C63.6494 109.87 63.0931 110.569 62.3406 110.985C61.5882 111.401 60.7012 111.502 59.8746 111.265C59.048 111.028 58.3494 110.472 57.9323 109.72C57.5153 108.968 57.414 108.081 57.6506 107.254C57.8873 106.427 58.4425 105.728 59.1943 105.31" fill="#56463A"/>
<path d="M59.2029 105.306C59.9559 104.89 60.8431 104.791 61.6694 105.03C62.4956 105.268 63.1934 105.825 63.6092 106.578C64.0251 107.33 64.1251 108.218 63.8872 109.044C63.6494 109.87 63.0931 110.569 62.3406 110.985C61.5882 111.401 60.7012 111.502 59.8746 111.265C59.048 111.028 58.3494 110.472 57.9323 109.72C57.5153 108.968 57.414 108.081 57.6506 107.254C57.8873 106.427 58.4425 105.728 59.1943 105.31" stroke="#937E42" stroke-width="2" stroke-linecap="round" stroke-linejoin="round"/>
<path d="M69.7068 111.8C70.4598 111.385 71.347 111.285 72.1733 111.524C72.9995 111.762 73.6973 112.319 74.1132 113.072C74.529 113.825 74.629 114.712 74.3911 115.538C74.1533 116.365 73.597 117.063 72.8445 117.479C72.0921 117.896 71.2051 117.996 70.3785 117.759C69.5519 117.522 68.8533 116.966 68.4363 116.214C68.0192 115.462 67.9179 114.575 68.1545 113.748C68.3912 112.921 68.9464 112.222 69.6982 111.805" fill="#56463A"/>
<path d="M69.7068 111.8C70.4598 111.385 71.347 111.285 72.1733 111.524C72.9995 111.762 73.6973 112.319 74.1132 113.072C74.529 113.825 74.629 114.712 74.3911 115.538C74.1533 116.365 73.597 117.063 72.8445 117.479C72.0921 117.896 71.2051 117.996 70.3785 117.759C69.5519 117.522 68.8533 116.966 68.4363 116.214C68.0192 115.462 67.9179 114.575 68.1545 113.748C68.3912 112.921 68.9464 112.222 69.6982 111.805" stroke="#937E42" stroke-width="2" stroke-linecap="round" stroke-linejoin="round"/>
<path d="M74.033 104.59C74.786 104.175 75.6732 104.076 76.4994 104.314C77.3257 104.553 78.0234 105.11 78.4393 105.862C78.8552 106.615 78.9552 107.502 78.7173 108.329C78.4794 109.155 77.9231 109.853 77.1707 110.27C76.4183 110.686 75.5313 110.787 74.7047 110.55C73.878 110.312 73.1794 109.757 72.7624 109.004C72.3454 108.252 72.2441 107.365 72.4807 106.539C72.7173 105.712 73.2726 105.013 74.0244 104.595" fill="#56463A"/>
<path d="M74.033 104.59C74.786 104.175 75.6732 104.076 76.4994 104.314C77.3257 104.553 78.0234 105.11 78.4393 105.862C78.8552 106.615 78.9552 107.502 78.7173 108.329C78.4794 109.155 77.9231 109.853 77.1707 110.27C76.4183 110.686 75.5313 110.787 74.7047 110.55C73.878 110.312 73.1794 109.757 72.7624 109.004C72.3454 108.252 72.2441 107.365 72.4807 106.539C72.7173 105.712 73.2726 105.013 74.0244 104.595" stroke="#937E42" stroke-width="2" stroke-linecap="round" stroke-linejoin="round"/>
<path d="M48.9998 98.7159C49.7528 98.3006 50.64 98.2013 51.4662 98.4398C52.2925 98.6783 52.9902 99.2351 53.4061 99.9878C53.822 100.741 53.922 101.628 53.6841 102.454C53.4462 103.281 52.8899 103.979 52.1375 104.395C51.3851 104.812 50.4981 104.912 49.6714 104.675C48.8448 104.438 48.1462 103.882 47.7292 103.13C47.3122 102.378 47.2109 101.491 47.4475 100.664C47.6841 99.8372 48.2394 99.1382 48.9912 98.7206" fill="#56463A"/>
<path d="M48.9998 98.7159C49.7528 98.3006 50.64 98.2013 51.4662 98.4398C52.2925 98.6783 52.9902 99.2351 53.4061 99.9878C53.822 100.741 53.922 101.628 53.6841 102.454C53.4462 103.281 52.8899 103.979 52.1375 104.395C51.3851 104.812 50.4981 104.912 49.6714 104.675C48.8448 104.438 48.1462 103.882 47.7292 103.13C47.3122 102.378 47.2109 101.491 47.4475 100.664C47.6841 99.8372 48.2394 99.1382 48.9912 98.7206" stroke="#937E42" stroke-width="2" stroke-linecap="round" stroke-linejoin="round"/>
<path d="M60.5349 112.673C61.288 112.258 62.1751 112.158 63.0014 112.397C63.8276 112.635 64.5254 113.192 64.9413 113.945C65.3572 114.698 65.4572 115.585 65.2193 116.411C64.9814 117.238 64.4251 117.936 63.6727 118.352C62.9202 118.769 62.0332 118.869 61.2066 118.632C60.38 118.395 59.6814 117.839 59.2644 117.087C58.8474 116.335 58.746 115.448 58.9827 114.621C59.2193 113.794 59.7745 113.095 60.5263 112.678" fill="#56463A"/>
<path d="M60.5349 112.673C61.288 112.258 62.1751 112.158 63.0014 112.397C63.8276 112.635 64.5254 113.192 64.9413 113.945C65.3572 114.698 65.4572 115.585 65.2193 116.411C64.9814 117.238 64.4251 117.936 63.6727 118.352C62.9202 118.769 62.0332 118.869 61.2066 118.632C60.38 118.395 59.6814 117.839 59.2644 117.087C58.8474 116.335 58.746 115.448 58.9827 114.621C59.2193 113.794 59.7745 113.095 60.5263 112.678" stroke="#937E42" stroke-width="2" stroke-linecap="round" stroke-linejoin="round"/>
<path d="M52.7654 112.521C53.5184 112.105 54.4056 112.006 55.2319 112.244C56.0581 112.483 56.7559 113.04 57.1718 113.793C57.5876 114.545 57.6876 115.432 57.4497 116.259C57.2119 117.085 56.6556 117.783 55.9031 118.2C55.1507 118.616 54.2637 118.717 53.4371 118.48C52.6105 118.242 51.9119 117.687 51.4948 116.935C51.0778 116.182 50.9765 115.296 51.2131 114.469C51.4498 113.642 52.005 112.943 52.7568 112.525" fill="#56463A"/>
<path d="M52.7654 112.521C53.5184 112.105 54.4056 112.006 55.2319 112.244C56.0581 112.483 56.7559 113.04 57.1718 113.793C57.5876 114.545 57.6876 115.432 57.4497 116.259C57.2119 117.085 56.6556 117.783 55.9031 118.2C55.1507 118.616 54.2637 118.717 53.4371 118.48C52.6105 118.242 51.9119 117.687 51.4948 116.935C51.0778 116.182 50.9765 115.296 51.2131 114.469C51.4498 113.642 52.005 112.943 52.7568 112.525" stroke="#937E42" stroke-width="2" stroke-linecap="round" stroke-linejoin="round"/>
<path d="M46.9978 108.195C47.7509 107.78 48.638 107.681 49.4643 107.919C50.2905 108.158 50.9883 108.715 51.4042 109.467C51.8201 110.22 51.92 111.107 51.6822 111.934C51.4443 112.76 50.888 113.458 50.1355 113.875C49.3831 114.291 48.4961 114.392 47.6695 114.155C46.8429 113.917 46.1443 113.361 45.7273 112.609C45.3102 111.857 45.2089 110.97 45.4456 110.144C45.6822 109.317 46.2374 108.618 46.9892 108.2" fill="#56463A"/>
<path d="M46.9978 108.195C47.7509 107.78 48.638 107.681 49.4643 107.919C50.2905 108.158 50.9883 108.715 51.4042 109.467C51.8201 110.22 51.92 111.107 51.6822 111.934C51.4443 112.76 50.888 113.458 50.1355 113.875C49.3831 114.291 48.4961 114.392 47.6695 114.155C46.8429 113.917 46.1443 113.361 45.7273 112.609C45.3102 111.857 45.2089 110.97 45.4456 110.144C45.6822 109.317 46.2374 108.618 46.9892 108.2" stroke="#937E42" stroke-width="2" stroke-linecap="round" stroke-linejoin="round"/>
<path d="M41.5759 100.451C42.329 100.035 43.2161 99.9361 44.0424 100.175C44.8687 100.413 45.5664 100.97 45.9823 101.723C46.3982 102.475 46.4982 103.363 46.2603 104.189C46.0224 105.015 45.4661 105.714 44.7137 106.13C43.9612 106.546 43.0742 106.647 42.2476 106.41C41.421 106.173 40.7224 105.617 40.3054 104.865C39.8884 104.113 39.787 103.226 40.0237 102.399C40.2603 101.572 40.8156 100.873 41.5674 100.456" fill="#56463A"/>
<path d="M41.5759 100.451C42.329 100.035 43.2161 99.9361 44.0424 100.175C44.8687 100.413 45.5664 100.97 45.9823 101.723C46.3982 102.475 46.4982 103.363 46.2603 104.189C46.0224 105.015 45.4661 105.714 44.7137 106.13C43.9612 106.546 43.0742 106.647 42.2476 106.41C41.421 106.173 40.7224 105.617 40.3054 104.865C39.8884 104.113 39.787 103.226 40.0237 102.399C40.2603 101.572 40.8156 100.873 41.5674 100.456" stroke="#937E42" stroke-width="2" stroke-linecap="round" stroke-linejoin="round"/>
<path d="M45.0447 111.899C45.7977 111.483 46.6849 111.384 47.5111 111.622C48.3374 111.861 49.0352 112.418 49.451 113.17C49.8669 113.923 49.9669 114.81 49.729 115.637C49.4912 116.463 48.9349 117.161 48.1824 117.578C47.43 117.994 46.543 118.095 45.7164 117.858C44.8898 117.62 44.1912 117.065 43.7741 116.312C43.3571 115.56 43.2558 114.673 43.4924 113.847C43.7291 113.02 44.2843 112.321 45.0361 111.903" fill="#56463A"/>
<path d="M45.0447 111.899C45.7977 111.483 46.6849 111.384 47.5111 111.622C48.3374 111.861 49.0352 112.418 49.451 113.17C49.8669 113.923 49.9669 114.81 49.729 115.637C49.4912 116.463 48.9349 117.161 48.1824 117.578C47.43 117.994 46.543 118.095 45.7164 117.858C44.8898 117.62 44.1912 117.065 43.7741 116.312C43.3571 115.56 43.2558 114.673 43.4924 113.847C43.7291 113.02 44.2843 112.321 45.0361 111.903" stroke="#937E42" stroke-width="2" stroke-linecap="round" stroke-linejoin="round"/>
<path d="M42.4119 92.6925C43.1649 92.2771 44.0521 92.1778 44.8783 92.4163C45.7046 92.6548 46.4023 93.2117 46.8182 93.9644C47.2341 94.7172 47.3341 95.6042 47.0962 96.4307C46.8583 97.2571 46.302 97.9553 45.5496 98.3717C44.7972 98.7882 43.9102 98.8888 43.0836 98.6516C42.2569 98.4143 41.5583 97.8586 41.1413 97.1064C40.7243 96.3543 40.623 95.4674 40.8596 94.6406C41.0963 93.8138 41.6515 93.1148 42.4033 92.6972" fill="#56463A"/>
<path d="M42.4119 92.6925C43.1649 92.2771 44.0521 92.1778 44.8783 92.4163C45.7046 92.6548 46.4023 93.2117 46.8182 93.9644C47.2341 94.7172 47.3341 95.6042 47.0962 96.4307C46.8583 97.2571 46.302 97.9553 45.5496 98.3717C44.7972 98.7882 43.9102 98.8888 43.0836 98.6516C42.2569 98.4143 41.5583 97.8586 41.1413 97.1064C40.7243 96.3543 40.623 95.4674 40.8596 94.6406C41.0963 93.8138 41.6515 93.1148 42.4033 92.6972" stroke="#937E42" stroke-width="2" stroke-linecap="round" stroke-linejoin="round"/>
<path d="M72.4607 97.1842C73.2138 96.7688 74.1009 96.6695 74.9272 96.908C75.7534 97.1465 76.4512 97.7034 76.8671 98.4561C77.2829 99.2089 77.3829 100.096 77.145 100.922C76.9072 101.749 76.3509 102.447 75.5984 102.863C74.846 103.28 73.959 103.381 73.1324 103.143C72.3058 102.906 71.6072 102.35 71.1902 101.598C70.7731 100.846 70.6718 99.9591 70.9084 99.1323C71.1451 98.3055 71.7003 97.6065 72.4521 97.1889" fill="#56463A"/>
<path d="M72.4607 97.1842C73.2138 96.7688 74.1009 96.6695 74.9272 96.908C75.7534 97.1465 76.4512 97.7034 76.8671 98.4561C77.2829 99.2089 77.3829 100.096 77.145 100.922C76.9072 101.749 76.3509 102.447 75.5984 102.863C74.846 103.28 73.959 103.381 73.1324 103.143C72.3058 102.906 71.6072 102.35 71.1902 101.598C70.7731 100.846 70.6718 99.9591 70.9084 99.1323C71.1451 98.3055 71.7003 97.6065 72.4521 97.1889" stroke="#937E42" stroke-width="2" stroke-linecap="round" stroke-linejoin="round"/>
</g>
<defs>
<clipPath id="clip0_108_243">
<rect width="62.1627" height="120.7" fill="white" transform="translate(29.0176 0.15332)"/>
</clipPath>
</defs>
</svg>
