<svg width="91" height="121" viewBox="0 0 91 121" fill="none" xmlns="http://www.w3.org/2000/svg">
<path d="M60.1011 39.2478C60.1011 56.3466 46.7178 70.208 30.2087 70.208C13.6997 70.208 0.316406 56.3466 0.316406 39.2478C0.316406 22.1489 13.6997 8.2876 30.2087 8.2876C46.7178 8.2876 60.1011 22.1489 60.1011 39.2478Z" fill="#FBE5A5"/>
<g clip-path="url(#clip0_109_274)">
<path fill-rule="evenodd" clip-rule="evenodd" d="M32.6328 34.824L40.5632 120.256L78.4126 119.895L85.2615 34.103L32.6328 34.824Z" fill="#C3393F" stroke="#857B61" stroke-width="7.46667" stroke-linejoin="round"/>
<path d="M48.5681 98.5636C49.3212 98.1482 50.2083 98.0489 51.0346 98.2874C51.8609 98.5259 52.5586 99.0828 52.9745 99.8355C53.3904 100.588 53.4904 101.475 53.2525 102.302C53.0146 103.128 52.4583 103.826 51.7059 104.243C50.9535 104.659 50.0664 104.76 49.2398 104.523C48.4132 104.285 47.7146 103.73 47.2976 102.978C46.8806 102.225 46.7792 101.339 47.0159 100.512C47.2525 99.6849 47.8077 98.9859 48.5596 98.5683" fill="#56463A"/>
<path d="M48.5681 98.5636C49.3212 98.1482 50.2083 98.0489 51.0346 98.2874C51.8609 98.5259 52.5586 99.0828 52.9745 99.8355C53.3904 100.588 53.4904 101.475 53.2525 102.302C53.0146 103.128 52.4583 103.826 51.7059 104.243C50.9535 104.659 50.0664 104.76 49.2398 104.523C48.4132 104.285 47.7146 103.73 47.2976 102.978C46.8806 102.225 46.7792 101.339 47.0159 100.512C47.2525 99.6849 47.8077 98.9859 48.5596 98.5683" stroke="#937E42" stroke-width="2" stroke-linecap="round" stroke-linejoin="round"/>
<path fill-rule="evenodd" clip-rule="evenodd" d="M44.168 2.74226L51.3774 87.0924L52.8193 114.849C52.8193 114.849 62.1944 114.488 59.6682 114.488L54.2611 32.6613C54.2611 32.6613 52.979 1.83838 51.3774 2.02132C48.1281 2.39245 44.168 2.74226 44.168 2.74226Z" fill="#89B480" stroke="#857B61" stroke-linecap="round" stroke-linejoin="round"/>
<path d="M57.74 100.473C58.4931 100.057 59.3802 99.9581 60.2065 100.197C61.0328 100.435 61.7305 100.992 62.1464 101.745C62.5623 102.497 62.6623 103.385 62.4244 104.211C62.1865 105.037 61.6302 105.736 60.8778 106.152C60.1253 106.569 59.2383 106.669 58.4117 106.432C57.5851 106.195 56.8865 105.639 56.4695 104.887C56.0524 104.135 55.9511 103.248 56.1877 102.421C56.4244 101.594 56.9796 100.895 57.7314 100.477" fill="#56463A"/>
<path d="M57.74 100.473C58.4931 100.057 59.3802 99.9581 60.2065 100.197C61.0328 100.435 61.7305 100.992 62.1464 101.745C62.5623 102.497 62.6623 103.385 62.4244 104.211C62.1865 105.037 61.6302 105.736 60.8778 106.152C60.1253 106.569 59.2383 106.669 58.4117 106.432C57.5851 106.195 56.8865 105.639 56.4695 104.887C56.0524 104.135 55.9511 103.248 56.1877 102.421C56.4244 101.594 56.9796 100.895 57.7314 100.477" stroke="#937E42" stroke-width="2" stroke-linecap="round" stroke-linejoin="round"/>
<path fill-rule="evenodd" clip-rule="evenodd" d="M46.6895 34.103L51.3756 87.0922L52.8175 114.848C52.8175 114.848 62.1926 114.488 59.6664 114.488L54.2593 32.6611C54.2593 32.6611 54.0566 33.1821 52.457 33.3821C46.6895 34.103 46.6895 34.103 46.6895 34.103Z" fill="#81A47A" stroke="#726A55"/>
<path d="M89.0498 30.8589H30.2849C29.5904 30.8589 29.0273 31.9079 29.0273 33.2019C29.0273 34.496 29.5904 35.545 30.2849 35.545H89.0498C89.7443 35.545 90.3074 34.496 90.3074 33.2019C90.3074 31.9079 89.7443 30.8589 89.0498 30.8589Z" fill="#D6D6D6" stroke="#857B61" stroke-width="7.46667" stroke-linecap="round" stroke-linejoin="round"/>
<path d="M62.4256 93.2633C63.1786 92.8479 64.0658 92.7486 64.892 92.9871C65.7183 93.2256 66.4161 93.7825 66.832 94.5352C67.2478 95.288 67.3478 96.1751 67.1099 97.0015C66.8721 97.8279 66.3158 98.5261 65.5633 98.9426C64.8109 99.359 63.9239 99.4597 63.0972 99.2224C62.2706 98.9852 61.572 98.4294 61.155 97.6773C60.738 96.9252 60.6366 96.0382 60.8733 95.2114C61.1099 94.3846 61.6652 93.6856 62.417 93.268" fill="#56463A"/>
<path d="M62.4256 93.2633C63.1786 92.8479 64.0658 92.7486 64.892 92.9871C65.7183 93.2256 66.4161 93.7825 66.832 94.5352C67.2478 95.288 67.3478 96.1751 67.1099 97.0015C66.8721 97.8279 66.3158 98.5261 65.5633 98.9426C64.8109 99.359 63.9239 99.4597 63.0972 99.2224C62.2706 98.9852 61.572 98.4294 61.155 97.6773C60.738 96.9252 60.6366 96.0382 60.8733 95.2114C61.1099 94.3846 61.6652 93.6856 62.417 93.268" stroke="#937E42" stroke-width="2" stroke-linecap="round" stroke-linejoin="round"/>
<path d="M66.2869 101.503C67.0399 101.088 67.9271 100.989 68.7534 101.227C69.5796 101.466 70.2774 102.023 70.6933 102.775C71.1092 103.528 71.2092 104.415 70.9713 105.242C70.7334 106.068 70.1771 106.766 69.4246 107.183C68.6722 107.599 67.7852 107.7 66.9586 107.463C66.132 107.225 65.4334 106.67 65.0163 105.918C64.5993 105.165 64.498 104.278 64.7346 103.452C64.9713 102.625 65.5265 101.926 66.2783 101.508" fill="#56463A"/>
<path d="M66.2869 101.503C67.0399 101.088 67.9271 100.989 68.7534 101.227C69.5796 101.466 70.2774 102.023 70.6933 102.775C71.1092 103.528 71.2092 104.415 70.9713 105.242C70.7334 106.068 70.1771 106.766 69.4246 107.183C68.6722 107.599 67.7852 107.7 66.9586 107.463C66.132 107.225 65.4334 106.67 65.0163 105.918C64.5993 105.165 64.498 104.278 64.7346 103.452C64.9713 102.625 65.5265 101.926 66.2783 101.508" stroke="#937E42" stroke-width="2" stroke-linecap="round" stroke-linejoin="round"/>
<path d="M74.322 93.9845C75.0751 93.5691 75.9623 93.4698 76.7885 93.7083C77.6148 93.9468 78.3125 94.5037 78.7284 95.2564C79.1443 96.0092 79.2443 96.8963 79.0064 97.7227C78.7685 98.5491 78.2122 99.2473 77.4598 99.6638C76.7074 100.08 75.8204 100.181 74.9937 99.9436C74.1671 99.7064 73.4685 99.1506 73.0515 98.3985C72.6345 97.6463 72.5331 96.7594 72.7698 95.9326C73.0064 95.1058 73.5617 94.4068 74.3135 93.9892" fill="#56463A"/>
<path d="M74.322 93.9845C75.0751 93.5691 75.9623 93.4698 76.7885 93.7083C77.6148 93.9468 78.3125 94.5037 78.7284 95.2564C79.1443 96.0092 79.2443 96.8963 79.0064 97.7227C78.7685 98.5491 78.2122 99.2473 77.4598 99.6638C76.7074 100.08 75.8204 100.181 74.9937 99.9436C74.1671 99.7064 73.4685 99.1506 73.0515 98.3985C72.6345 97.6463 72.5331 96.7594 72.7698 95.9326C73.0064 95.1058 73.5617 94.4068 74.3135 93.9892" stroke="#937E42" stroke-width="2" stroke-linecap="round" stroke-linejoin="round"/>
<path d="M58.7713 105.153C59.5243 104.738 60.4115 104.639 61.2377 104.877C62.064 105.116 62.7618 105.673 63.1777 106.425C63.5935 107.178 63.6935 108.065 63.4556 108.892C63.2178 109.718 62.6615 110.416 61.909 110.833C61.1566 111.249 60.2696 111.35 59.443 111.113C58.6163 110.875 57.9177 110.32 57.5007 109.567C57.0837 108.815 56.9824 107.928 57.219 107.102C57.4556 106.275 58.0109 105.576 58.7627 105.158" fill="#56463A"/>
<path d="M58.7713 105.153C59.5243 104.738 60.4115 104.639 61.2377 104.877C62.064 105.116 62.7618 105.673 63.1777 106.425C63.5935 107.178 63.6935 108.065 63.4556 108.892C63.2178 109.718 62.6615 110.416 61.909 110.833C61.1566 111.249 60.2696 111.35 59.443 111.113C58.6163 110.875 57.9177 110.32 57.5007 109.567C57.0837 108.815 56.9824 107.928 57.219 107.102C57.4556 106.275 58.0109 105.576 58.7627 105.158" stroke="#937E42" stroke-width="2" stroke-linecap="round" stroke-linejoin="round"/>
<path d="M69.2752 111.648C70.0282 111.232 70.9154 111.133 71.7416 111.371C72.5679 111.61 73.2657 112.167 73.6816 112.919C74.0974 113.672 74.1974 114.559 73.9596 115.386C73.7217 116.212 73.1654 116.91 72.4129 117.327C71.6605 117.743 70.7735 117.844 69.9469 117.607C69.1202 117.369 68.4216 116.814 68.0046 116.062C67.5876 115.309 67.4863 114.422 67.7229 113.596C67.9595 112.769 68.5148 112.07 69.2666 111.652" fill="#56463A"/>
<path d="M69.2752 111.648C70.0282 111.232 70.9154 111.133 71.7416 111.371C72.5679 111.61 73.2657 112.167 73.6816 112.919C74.0974 113.672 74.1974 114.559 73.9596 115.386C73.7217 116.212 73.1654 116.91 72.4129 117.327C71.6605 117.743 70.7735 117.844 69.9469 117.607C69.1202 117.369 68.4216 116.814 68.0046 116.062C67.5876 115.309 67.4863 114.422 67.7229 113.596C67.9595 112.769 68.5148 112.07 69.2666 111.652" stroke="#937E42" stroke-width="2" stroke-linecap="round" stroke-linejoin="round"/>
<path d="M73.6013 104.438C74.3544 104.023 75.2416 103.923 76.0678 104.162C76.8941 104.4 77.5918 104.957 78.0077 105.71C78.4236 106.463 78.5236 107.35 78.2857 108.176C78.0478 109.003 77.4915 109.701 76.7391 110.117C75.9867 110.534 75.0997 110.635 74.273 110.397C73.4464 110.16 72.7478 109.604 72.3308 108.852C71.9138 108.1 71.8124 107.213 72.0491 106.386C72.2857 105.559 72.841 104.86 73.5928 104.443" fill="#56463A"/>
<path d="M73.6013 104.438C74.3544 104.023 75.2416 103.923 76.0678 104.162C76.8941 104.4 77.5918 104.957 78.0077 105.71C78.4236 106.463 78.5236 107.35 78.2857 108.176C78.0478 109.003 77.4915 109.701 76.7391 110.117C75.9867 110.534 75.0997 110.635 74.273 110.397C73.4464 110.16 72.7478 109.604 72.3308 108.852C71.9138 108.1 71.8124 107.213 72.0491 106.386C72.2857 105.559 72.841 104.86 73.5928 104.443" stroke="#937E42" stroke-width="2" stroke-linecap="round" stroke-linejoin="round"/>
<path d="M60.1033 112.521C60.8564 112.105 61.7435 112.006 62.5698 112.244C63.396 112.483 64.0938 113.04 64.5097 113.793C64.9256 114.545 65.0256 115.432 64.7877 116.259C64.5498 117.085 63.9935 117.783 63.2411 118.2C62.4886 118.616 61.6016 118.717 60.775 118.48C59.9484 118.243 59.2498 117.687 58.8327 116.935C58.4157 116.182 58.3144 115.296 58.551 114.469C58.7877 113.642 59.3429 112.943 60.0947 112.525" fill="#56463A"/>
<path d="M60.1033 112.521C60.8564 112.105 61.7435 112.006 62.5698 112.244C63.396 112.483 64.0938 113.04 64.5097 113.793C64.9256 114.545 65.0256 115.432 64.7877 116.259C64.5498 117.085 63.9935 117.783 63.2411 118.2C62.4886 118.616 61.6016 118.717 60.775 118.48C59.9484 118.243 59.2498 117.687 58.8327 116.935C58.4157 116.182 58.3144 115.296 58.551 114.469C58.7877 113.642 59.3429 112.943 60.0947 112.525" stroke="#937E42" stroke-width="2" stroke-linecap="round" stroke-linejoin="round"/>
<path d="M52.3338 112.368C53.0868 111.953 53.974 111.854 54.8002 112.092C55.6265 112.331 56.3243 112.887 56.7402 113.64C57.156 114.393 57.256 115.28 57.0181 116.106C56.7803 116.933 56.224 117.631 55.4715 118.048C54.7191 118.464 53.8321 118.565 53.0055 118.327C52.1788 118.09 51.4802 117.534 51.0632 116.782C50.6462 116.03 50.5449 115.143 50.7815 114.316C51.0181 113.49 51.5734 112.791 52.3252 112.373" fill="#56463A"/>
<path d="M52.3338 112.368C53.0868 111.953 53.974 111.854 54.8002 112.092C55.6265 112.331 56.3243 112.887 56.7402 113.64C57.156 114.393 57.256 115.28 57.0181 116.106C56.7803 116.933 56.224 117.631 55.4715 118.048C54.7191 118.464 53.8321 118.565 53.0055 118.327C52.1788 118.09 51.4802 117.534 51.0632 116.782C50.6462 116.03 50.5449 115.143 50.7815 114.316C51.0181 113.49 51.5734 112.791 52.3252 112.373" stroke="#937E42" stroke-width="2" stroke-linecap="round" stroke-linejoin="round"/>
<path d="M46.5662 108.043C47.3192 107.627 48.2064 107.528 49.0327 107.766C49.8589 108.005 50.5567 108.562 50.9726 109.315C51.3885 110.067 51.4885 110.954 51.2506 111.781C51.0127 112.607 50.4564 113.305 49.7039 113.722C48.9515 114.138 48.0645 114.239 47.2379 114.002C46.4112 113.764 45.7127 113.209 45.2956 112.457C44.8786 111.704 44.7773 110.818 45.0139 109.991C45.2506 109.164 45.8058 108.465 46.5576 108.047" fill="#56463A"/>
<path d="M46.5662 108.043C47.3192 107.627 48.2064 107.528 49.0327 107.766C49.8589 108.005 50.5567 108.562 50.9726 109.315C51.3885 110.067 51.4885 110.954 51.2506 111.781C51.0127 112.607 50.4564 113.305 49.7039 113.722C48.9515 114.138 48.0645 114.239 47.2379 114.002C46.4112 113.764 45.7127 113.209 45.2956 112.457C44.8786 111.704 44.7773 110.818 45.0139 109.991C45.2506 109.164 45.8058 108.465 46.5576 108.047" stroke="#937E42" stroke-width="2" stroke-linecap="round" stroke-linejoin="round"/>
<path d="M41.1443 100.298C41.8974 99.8831 42.7845 99.7838 43.6108 100.022C44.4371 100.261 45.1348 100.818 45.5507 101.57C45.9666 102.323 46.0666 103.21 45.8287 104.037C45.5908 104.863 45.0345 105.561 44.2821 105.978C43.5296 106.394 42.6426 106.495 41.816 106.258C40.9894 106.02 40.2908 105.465 39.8738 104.712C39.4567 103.96 39.3554 103.073 39.592 102.247C39.8287 101.42 40.3839 100.721 41.1357 100.303" fill="#56463A"/>
<path d="M41.1443 100.298C41.8974 99.8831 42.7845 99.7838 43.6108 100.022C44.4371 100.261 45.1348 100.818 45.5507 101.57C45.9666 102.323 46.0666 103.21 45.8287 104.037C45.5908 104.863 45.0345 105.561 44.2821 105.978C43.5296 106.394 42.6426 106.495 41.816 106.258C40.9894 106.02 40.2908 105.465 39.8738 104.712C39.4567 103.96 39.3554 103.073 39.592 102.247C39.8287 101.42 40.3839 100.721 41.1357 100.303" stroke="#937E42" stroke-width="2" stroke-linecap="round" stroke-linejoin="round"/>
<path d="M44.6131 111.746C45.3661 111.331 46.2533 111.232 47.0795 111.47C47.9058 111.709 48.6036 112.265 49.0194 113.018C49.4353 113.771 49.5353 114.658 49.2974 115.484C49.0596 116.311 48.5033 117.009 47.7508 117.425C46.9984 117.842 46.1114 117.943 45.2847 117.705C44.4581 117.468 43.7595 116.912 43.3425 116.16C42.9255 115.408 42.8241 114.521 43.0608 113.694C43.2974 112.868 43.8527 112.169 44.6045 111.751" fill="#56463A"/>
<path d="M44.6131 111.746C45.3661 111.331 46.2533 111.232 47.0795 111.47C47.9058 111.709 48.6036 112.265 49.0194 113.018C49.4353 113.771 49.5353 114.658 49.2974 115.484C49.0596 116.311 48.5033 117.009 47.7508 117.425C46.9984 117.842 46.1114 117.943 45.2847 117.705C44.4581 117.468 43.7595 116.912 43.3425 116.16C42.9255 115.408 42.8241 114.521 43.0608 113.694C43.2974 112.868 43.8527 112.169 44.6045 111.751" stroke="#937E42" stroke-width="2" stroke-linecap="round" stroke-linejoin="round"/>
<path d="M41.9802 92.5396C42.7333 92.1243 43.6205 92.025 44.4467 92.2635C45.273 92.502 45.9707 93.0588 46.3866 93.8116C46.8025 94.5643 46.9025 95.4514 46.6646 96.2779C46.4267 97.1043 45.8704 97.8025 45.118 98.2189C44.3656 98.6354 43.4786 98.7361 42.6519 98.4988C41.8253 98.2615 41.1267 97.7058 40.7097 96.9536C40.2927 96.2015 40.1913 95.3146 40.428 94.4878C40.6646 93.661 41.2199 92.962 41.9717 92.5444" fill="#56463A"/>
<path d="M41.9802 92.5396C42.7333 92.1243 43.6205 92.025 44.4467 92.2635C45.273 92.502 45.9707 93.0588 46.3866 93.8116C46.8025 94.5643 46.9025 95.4514 46.6646 96.2779C46.4267 97.1043 45.8704 97.8025 45.118 98.2189C44.3656 98.6354 43.4786 98.7361 42.6519 98.4988C41.8253 98.2615 41.1267 97.7058 40.7097 96.9536C40.2927 96.2015 40.1913 95.3146 40.428 94.4878C40.6646 93.661 41.2199 92.962 41.9717 92.5444" stroke="#937E42" stroke-width="2" stroke-linecap="round" stroke-linejoin="round"/>
<path d="M72.0291 97.0313C72.7821 96.616 73.6693 96.5167 74.4956 96.7552C75.3218 96.9937 76.0196 97.5505 76.4355 98.3033C76.8514 99.056 76.9513 99.9431 76.7135 100.77C76.4756 101.596 75.9193 102.294 75.1668 102.711C74.4144 103.127 73.5274 103.228 72.7008 102.99C71.8741 102.753 71.1755 102.197 70.7585 101.445C70.3415 100.693 70.2402 99.8063 70.4768 98.9795C70.7134 98.1527 71.2687 97.4537 72.0205 97.0361" fill="#56463A"/>
<path d="M72.0291 97.0313C72.7821 96.616 73.6693 96.5167 74.4956 96.7552C75.3218 96.9937 76.0196 97.5505 76.4355 98.3033C76.8514 99.056 76.9513 99.9431 76.7135 100.77C76.4756 101.596 75.9193 102.294 75.1668 102.711C74.4144 103.127 73.5274 103.228 72.7008 102.99C71.8741 102.753 71.1755 102.197 70.7585 101.445C70.3415 100.693 70.2402 99.8063 70.4768 98.9795C70.7134 98.1527 71.2687 97.4537 72.0205 97.0361" stroke="#937E42" stroke-width="2" stroke-linecap="round" stroke-linejoin="round"/>
</g>
<defs>
<clipPath id="clip0_109_274">
<rect width="62.1632" height="120.701" fill="white" transform="translate(28.5859)"/>
</clipPath>
</defs>
</svg>
