<svg width="91" height="121" viewBox="0 0 91 121" fill="none" xmlns="http://www.w3.org/2000/svg">
<path d="M59.8565 39.3794C59.8565 56.4781 46.4733 70.3393 29.9644 70.3393C13.4554 70.3393 0.0722656 56.4781 0.0722656 39.3794C0.0722656 22.2807 13.4554 8.41943 29.9644 8.41943C46.4733 8.41943 59.8565 22.2807 59.8565 39.3794Z" fill="#FBE5A5"/>
<g clip-path="url(#clip0_108_165)">
<path fill-rule="evenodd" clip-rule="evenodd" d="M32.3887 34.9558L40.319 120.387L78.1681 120.026L85.017 34.2349L32.3887 34.9558Z" fill="#C7A0C9" stroke="#857B61" stroke-width="7.46667" stroke-linejoin="round"/>
<path d="M48.324 98.6944C49.077 98.2791 49.9642 98.1798 50.7904 98.4183C51.6167 98.6568 52.3145 99.2136 52.7303 99.9664C53.1462 100.719 53.2462 101.606 53.0083 102.433C52.7704 103.259 52.2142 103.957 51.4617 104.374C50.7093 104.79 49.8223 104.891 48.9957 104.654C48.169 104.416 47.4705 103.861 47.0534 103.108C46.6364 102.356 46.5351 101.469 46.7717 100.643C47.0084 99.8158 47.5636 99.1167 48.3154 98.6992" fill="#56463A"/>
<path d="M48.324 98.6944C49.077 98.2791 49.9642 98.1798 50.7904 98.4183C51.6167 98.6568 52.3145 99.2136 52.7303 99.9664C53.1462 100.719 53.2462 101.606 53.0083 102.433C52.7704 103.259 52.2142 103.957 51.4617 104.374C50.7093 104.79 49.8223 104.891 48.9957 104.654C48.169 104.416 47.4705 103.861 47.0534 103.108C46.6364 102.356 46.5351 101.469 46.7717 100.643C47.0084 99.8158 47.5636 99.1167 48.3154 98.6992" stroke="#937E42" stroke-width="2" stroke-linecap="round" stroke-linejoin="round"/>
<path fill-rule="evenodd" clip-rule="evenodd" d="M43.9219 2.87409L51.1312 87.2236L52.5731 114.98C52.5731 114.98 61.9481 114.619 59.422 114.619L54.015 32.7929C54.015 32.7929 52.7329 1.97021 51.1312 2.15315C47.882 2.52428 43.9219 2.87409 43.9219 2.87409Z" fill="#89B480" stroke="#857B61" stroke-linecap="round" stroke-linejoin="round"/>
<path d="M57.4958 100.604C58.2489 100.188 59.1361 100.089 59.9623 100.327C60.7886 100.566 61.4863 101.123 61.9022 101.876C62.3181 102.628 62.4181 103.515 62.1802 104.342C61.9423 105.168 61.386 105.866 60.6336 106.283C59.8812 106.699 58.9942 106.8 58.1675 106.563C57.3409 106.325 56.6423 105.77 56.2253 105.018C55.8083 104.265 55.707 103.379 55.9436 102.552C56.1802 101.725 56.7355 101.026 57.4873 100.608" fill="#56463A"/>
<path d="M57.4958 100.604C58.2489 100.188 59.1361 100.089 59.9623 100.327C60.7886 100.566 61.4863 101.123 61.9022 101.876C62.3181 102.628 62.4181 103.515 62.1802 104.342C61.9423 105.168 61.386 105.866 60.6336 106.283C59.8812 106.699 58.9942 106.8 58.1675 106.563C57.3409 106.325 56.6423 105.77 56.2253 105.018C55.8083 104.265 55.707 103.379 55.9436 102.552C56.1802 101.725 56.7355 101.026 57.4873 100.608" stroke="#937E42" stroke-width="2" stroke-linecap="round" stroke-linejoin="round"/>
<path fill-rule="evenodd" clip-rule="evenodd" d="M46.4453 34.2348L51.1314 87.2236L52.5733 114.98C52.5733 114.98 61.9483 114.619 59.4222 114.619L54.0151 32.793C54.0151 32.793 53.8124 33.314 52.2128 33.5139C46.4453 34.2348 46.4453 34.2348 46.4453 34.2348Z" fill="#81A47A" stroke="#726A55"/>
<path d="M88.8052 30.9907H30.0407C29.3462 30.9907 28.7832 32.0397 28.7832 33.3338C28.7832 34.6278 29.3462 35.6768 30.0407 35.6768H88.8052C89.4997 35.6768 90.0628 34.6278 90.0628 33.3338C90.0628 32.0397 89.4997 30.9907 88.8052 30.9907Z" fill="#D6D6D6" stroke="#857B61" stroke-width="7.46667" stroke-linecap="round" stroke-linejoin="round"/>
<path d="M62.1814 93.3946C62.9345 92.9793 63.8216 92.88 64.6479 93.1185C65.4741 93.357 66.1719 93.9138 66.5878 94.6666C67.0037 95.4193 67.1036 96.3064 66.8658 97.1328C66.6279 97.9593 66.0716 98.6574 65.3191 99.0739C64.5667 99.4903 63.6797 99.591 62.8531 99.3537C62.0265 99.1165 61.3279 98.5607 60.9109 97.8086C60.4938 97.0565 60.3925 96.1695 60.6291 95.3427C60.8658 94.516 61.421 93.8169 62.1728 93.3994" fill="#56463A"/>
<path d="M62.1814 93.3946C62.9345 92.9793 63.8216 92.88 64.6479 93.1185C65.4741 93.357 66.1719 93.9138 66.5878 94.6666C67.0037 95.4193 67.1036 96.3064 66.8658 97.1328C66.6279 97.9593 66.0716 98.6574 65.3191 99.0739C64.5667 99.4903 63.6797 99.591 62.8531 99.3537C62.0265 99.1165 61.3279 98.5607 60.9109 97.8086C60.4938 97.0565 60.3925 96.1695 60.6291 95.3427C60.8658 94.516 61.421 93.8169 62.1728 93.3994" stroke="#937E42" stroke-width="2" stroke-linecap="round" stroke-linejoin="round"/>
<path d="M66.0427 101.634C66.7958 101.219 67.6829 101.12 68.5092 101.358C69.3355 101.597 70.0332 102.154 70.4491 102.906C70.865 103.659 70.965 104.546 70.7271 105.373C70.4892 106.199 69.9329 106.897 69.1805 107.314C68.428 107.73 67.541 107.831 66.7144 107.593C65.8878 107.356 65.1892 106.8 64.7722 106.048C64.3552 105.296 64.2538 104.409 64.4905 103.582C64.7271 102.756 65.2824 102.057 66.0342 101.639" fill="#56463A"/>
<path d="M66.0427 101.634C66.7958 101.219 67.6829 101.12 68.5092 101.358C69.3355 101.597 70.0332 102.154 70.4491 102.906C70.865 103.659 70.965 104.546 70.7271 105.373C70.4892 106.199 69.9329 106.897 69.1805 107.314C68.428 107.73 67.541 107.831 66.7144 107.593C65.8878 107.356 65.1892 106.8 64.7722 106.048C64.3552 105.296 64.2538 104.409 64.4905 103.582C64.7271 102.756 65.2824 102.057 66.0342 101.639" stroke="#937E42" stroke-width="2" stroke-linecap="round" stroke-linejoin="round"/>
<path d="M74.0779 94.1153C74.8309 93.7 75.7181 93.6007 76.5443 93.8392C77.3706 94.0777 78.0684 94.6345 78.4842 95.3873C78.9001 96.14 79.0001 97.0271 78.7622 97.8535C78.5243 98.68 77.9681 99.3781 77.2156 99.7946C76.4632 100.211 75.5762 100.312 74.7496 100.074C73.923 99.8372 73.2244 99.2814 72.8073 98.5293C72.3903 97.7772 72.289 96.8902 72.5256 96.0635C72.7623 95.2367 73.3175 94.5376 74.0693 94.1201" fill="#56463A"/>
<path d="M74.0779 94.1153C74.8309 93.7 75.7181 93.6007 76.5443 93.8392C77.3706 94.0777 78.0684 94.6345 78.4842 95.3873C78.9001 96.14 79.0001 97.0271 78.7622 97.8535C78.5243 98.68 77.9681 99.3781 77.2156 99.7946C76.4632 100.211 75.5762 100.312 74.7496 100.074C73.923 99.8372 73.2244 99.2814 72.8073 98.5293C72.3903 97.7772 72.289 96.8902 72.5256 96.0635C72.7623 95.2367 73.3175 94.5376 74.0693 94.1201" stroke="#937E42" stroke-width="2" stroke-linecap="round" stroke-linejoin="round"/>
<path d="M58.5271 105.284C59.2802 104.869 60.1673 104.77 60.9936 105.008C61.8198 105.247 62.5176 105.803 62.9335 106.556C63.3494 107.309 63.4493 108.196 63.2115 109.022C62.9736 109.849 62.4173 110.547 61.6648 110.964C60.9124 111.38 60.0254 111.481 59.1988 111.243C58.3722 111.006 57.6736 110.45 57.2566 109.698C56.8395 108.946 56.7382 108.059 56.9748 107.232C57.2115 106.406 57.7667 105.707 58.5185 105.289" fill="#56463A"/>
<path d="M58.5271 105.284C59.2802 104.869 60.1673 104.77 60.9936 105.008C61.8198 105.247 62.5176 105.803 62.9335 106.556C63.3494 107.309 63.4493 108.196 63.2115 109.022C62.9736 109.849 62.4173 110.547 61.6648 110.964C60.9124 111.38 60.0254 111.481 59.1988 111.243C58.3722 111.006 57.6736 110.45 57.2566 109.698C56.8395 108.946 56.7382 108.059 56.9748 107.232C57.2115 106.406 57.7667 105.707 58.5185 105.289" stroke="#937E42" stroke-width="2" stroke-linecap="round" stroke-linejoin="round"/>
<path d="M69.031 111.778C69.7841 111.363 70.6712 111.264 71.4975 111.502C72.3237 111.741 73.0215 112.298 73.4374 113.05C73.8533 113.803 73.9532 114.69 73.7154 115.517C73.4775 116.343 72.9212 117.041 72.1688 117.458C71.4163 117.874 70.5293 117.975 69.7027 117.738C68.8761 117.5 68.1775 116.944 67.7605 116.192C67.3434 115.44 67.2421 114.553 67.4788 113.727C67.7154 112.9 68.2706 112.201 69.0224 111.783" fill="#56463A"/>
<path d="M69.031 111.778C69.7841 111.363 70.6712 111.264 71.4975 111.502C72.3237 111.741 73.0215 112.298 73.4374 113.05C73.8533 113.803 73.9532 114.69 73.7154 115.517C73.4775 116.343 72.9212 117.041 72.1688 117.458C71.4163 117.874 70.5293 117.975 69.7027 117.738C68.8761 117.5 68.1775 116.944 67.7605 116.192C67.3434 115.44 67.2421 114.553 67.4788 113.727C67.7154 112.9 68.2706 112.201 69.0224 111.783" stroke="#937E42" stroke-width="2" stroke-linecap="round" stroke-linejoin="round"/>
<path d="M73.3572 104.569C74.1102 104.154 74.9974 104.054 75.8236 104.293C76.6499 104.531 77.3477 105.088 77.7635 105.841C78.1794 106.594 78.2794 107.481 78.0415 108.307C77.8036 109.134 77.2474 109.832 76.4949 110.248C75.7425 110.665 74.8555 110.765 74.0289 110.528C73.2023 110.291 72.5037 109.735 72.0866 108.983C71.6696 108.231 71.5683 107.344 71.8049 106.517C72.0416 105.69 72.5968 104.991 73.3486 104.574" fill="#56463A"/>
<path d="M73.3572 104.569C74.1102 104.154 74.9974 104.054 75.8236 104.293C76.6499 104.531 77.3477 105.088 77.7635 105.841C78.1794 106.594 78.2794 107.481 78.0415 108.307C77.8036 109.134 77.2474 109.832 76.4949 110.248C75.7425 110.665 74.8555 110.765 74.0289 110.528C73.2023 110.291 72.5037 109.735 72.0866 108.983C71.6696 108.231 71.5683 107.344 71.8049 106.517C72.0416 105.69 72.5968 104.991 73.3486 104.574" stroke="#937E42" stroke-width="2" stroke-linecap="round" stroke-linejoin="round"/>
<path d="M59.8591 112.651C60.6122 112.236 61.4993 112.137 62.3256 112.375C63.1519 112.614 63.8496 113.171 64.2655 113.923C64.6814 114.676 64.7814 115.563 64.5435 116.39C64.3056 117.216 63.7493 117.914 62.9969 118.331C62.2444 118.747 61.3574 118.848 60.5308 118.611C59.7042 118.373 59.0056 117.818 58.5886 117.065C58.1716 116.313 58.0702 115.426 58.3069 114.6C58.5435 113.773 59.0988 113.074 59.8506 112.656" fill="#56463A"/>
<path d="M59.8591 112.651C60.6122 112.236 61.4993 112.137 62.3256 112.375C63.1519 112.614 63.8496 113.171 64.2655 113.923C64.6814 114.676 64.7814 115.563 64.5435 116.39C64.3056 117.216 63.7493 117.914 62.9969 118.331C62.2444 118.747 61.3574 118.848 60.5308 118.611C59.7042 118.373 59.0056 117.818 58.5886 117.065C58.1716 116.313 58.0702 115.426 58.3069 114.6C58.5435 113.773 59.0988 113.074 59.8506 112.656" stroke="#937E42" stroke-width="2" stroke-linecap="round" stroke-linejoin="round"/>
<path d="M52.0896 112.499C52.8427 112.084 53.7298 111.984 54.5561 112.223C55.3823 112.461 56.0801 113.018 56.496 113.771C56.9119 114.524 57.0118 115.411 56.774 116.237C56.5361 117.064 55.9798 117.762 55.2273 118.178C54.4749 118.595 53.5879 118.695 52.7613 118.458C51.9347 118.221 51.2361 117.665 50.8191 116.913C50.402 116.161 50.3007 115.274 50.5373 114.447C50.774 113.62 51.3292 112.921 52.081 112.504" fill="#56463A"/>
<path d="M52.0896 112.499C52.8427 112.084 53.7298 111.984 54.5561 112.223C55.3823 112.461 56.0801 113.018 56.496 113.771C56.9119 114.524 57.0118 115.411 56.774 116.237C56.5361 117.064 55.9798 117.762 55.2273 118.178C54.4749 118.595 53.5879 118.695 52.7613 118.458C51.9347 118.221 51.2361 117.665 50.8191 116.913C50.402 116.161 50.3007 115.274 50.5373 114.447C50.774 113.62 51.3292 112.921 52.081 112.504" stroke="#937E42" stroke-width="2" stroke-linecap="round" stroke-linejoin="round"/>
<path d="M46.322 108.174C47.0751 107.759 47.9622 107.659 48.7885 107.898C49.6147 108.136 50.3125 108.693 50.7284 109.446C51.1443 110.199 51.2443 111.086 51.0064 111.912C50.7685 112.739 50.2122 113.437 49.4598 113.853C48.7073 114.27 47.8203 114.37 46.9937 114.133C46.1671 113.896 45.4685 113.34 45.0515 112.588C44.6345 111.836 44.5331 110.949 44.7698 110.122C45.0064 109.295 45.5616 108.596 46.3134 108.179" fill="#56463A"/>
<path d="M46.322 108.174C47.0751 107.759 47.9622 107.659 48.7885 107.898C49.6147 108.136 50.3125 108.693 50.7284 109.446C51.1443 110.199 51.2443 111.086 51.0064 111.912C50.7685 112.739 50.2122 113.437 49.4598 113.853C48.7073 114.27 47.8203 114.37 46.9937 114.133C46.1671 113.896 45.4685 113.34 45.0515 112.588C44.6345 111.836 44.5331 110.949 44.7698 110.122C45.0064 109.295 45.5616 108.596 46.3134 108.179" stroke="#937E42" stroke-width="2" stroke-linecap="round" stroke-linejoin="round"/>
<path d="M40.9001 100.429C41.6532 100.014 42.5404 99.9146 43.3666 100.153C44.1929 100.392 44.8906 100.948 45.3065 101.701C45.7224 102.454 45.8224 103.341 45.5845 104.167C45.3466 104.994 44.7903 105.692 44.0379 106.109C43.2855 106.525 42.3985 106.626 41.5718 106.388C40.7452 106.151 40.0466 105.595 39.6296 104.843C39.2126 104.091 39.1113 103.204 39.3479 102.377C39.5845 101.551 40.1398 100.852 40.8916 100.434" fill="#56463A"/>
<path d="M40.9001 100.429C41.6532 100.014 42.5404 99.9146 43.3666 100.153C44.1929 100.392 44.8906 100.948 45.3065 101.701C45.7224 102.454 45.8224 103.341 45.5845 104.167C45.3466 104.994 44.7903 105.692 44.0379 106.109C43.2855 106.525 42.3985 106.626 41.5718 106.388C40.7452 106.151 40.0466 105.595 39.6296 104.843C39.2126 104.091 39.1113 103.204 39.3479 102.377C39.5845 101.551 40.1398 100.852 40.8916 100.434" stroke="#937E42" stroke-width="2" stroke-linecap="round" stroke-linejoin="round"/>
<path d="M44.3689 111.877C45.122 111.462 46.0091 111.362 46.8354 111.601C47.6616 111.839 48.3594 112.396 48.7753 113.149C49.1911 113.902 49.2911 114.789 49.0533 115.615C48.8154 116.442 48.2591 117.14 47.5066 117.556C46.7542 117.973 45.8672 118.073 45.0406 117.836C44.214 117.599 43.5154 117.043 43.0984 116.291C42.6813 115.539 42.58 114.652 42.8166 113.825C43.0533 112.998 43.6085 112.299 44.3603 111.882" fill="#56463A"/>
<path d="M44.3689 111.877C45.122 111.462 46.0091 111.362 46.8354 111.601C47.6616 111.839 48.3594 112.396 48.7753 113.149C49.1911 113.902 49.2911 114.789 49.0533 115.615C48.8154 116.442 48.2591 117.14 47.5066 117.556C46.7542 117.973 45.8672 118.073 45.0406 117.836C44.214 117.599 43.5154 117.043 43.0984 116.291C42.6813 115.539 42.58 114.652 42.8166 113.825C43.0533 112.998 43.6085 112.299 44.3603 111.882" stroke="#937E42" stroke-width="2" stroke-linecap="round" stroke-linejoin="round"/>
<path d="M41.7361 92.671C42.4891 92.2557 43.3763 92.1563 44.2026 92.3948C45.0288 92.6334 45.7266 93.1902 46.1425 93.9429C46.5583 94.6957 46.6583 95.5827 46.4204 96.4092C46.1826 97.2356 45.6263 97.9338 44.8738 98.3502C44.1214 98.7667 43.2344 98.8674 42.4078 98.6301C41.5812 98.3928 40.8826 97.8371 40.4655 97.085C40.0485 96.3328 39.9472 95.4459 40.1838 94.6191C40.4205 93.7923 40.9757 93.0933 41.7275 92.6757" fill="#56463A"/>
<path d="M41.7361 92.671C42.4891 92.2557 43.3763 92.1563 44.2026 92.3948C45.0288 92.6334 45.7266 93.1902 46.1425 93.9429C46.5583 94.6957 46.6583 95.5827 46.4204 96.4092C46.1826 97.2356 45.6263 97.9338 44.8738 98.3502C44.1214 98.7667 43.2344 98.8674 42.4078 98.6301C41.5812 98.3928 40.8826 97.8371 40.4655 97.085C40.0485 96.3328 39.9472 95.4459 40.1838 94.6191C40.4205 93.7923 40.9757 93.0933 41.7275 92.6757" stroke="#937E42" stroke-width="2" stroke-linecap="round" stroke-linejoin="round"/>
<path d="M71.7849 97.1627C72.538 96.7474 73.4251 96.648 74.2514 96.8865C75.0776 97.1251 75.7754 97.6819 76.1913 98.4346C76.6072 99.1874 76.7072 100.074 76.4693 100.901C76.2314 101.727 75.6751 102.425 74.9227 102.842C74.1702 103.258 73.2832 103.359 72.4566 103.122C71.63 102.885 70.9314 102.329 70.5144 101.577C70.0974 100.825 69.996 99.9376 70.2327 99.1108C70.4693 98.284 71.0245 97.585 71.7763 97.1674" fill="#56463A"/>
<path d="M71.7849 97.1627C72.538 96.7474 73.4251 96.648 74.2514 96.8865C75.0776 97.1251 75.7754 97.6819 76.1913 98.4346C76.6072 99.1874 76.7072 100.074 76.4693 100.901C76.2314 101.727 75.6751 102.425 74.9227 102.842C74.1702 103.258 73.2832 103.359 72.4566 103.122C71.63 102.885 70.9314 102.329 70.5144 101.577C70.0974 100.825 69.996 99.9376 70.2327 99.1108C70.4693 98.284 71.0245 97.585 71.7763 97.1674" stroke="#937E42" stroke-width="2" stroke-linecap="round" stroke-linejoin="round"/>
</g>
<defs>
<clipPath id="clip0_108_165">
<rect width="62.1627" height="120.7" fill="white" transform="translate(28.3418 0.131836)"/>
</clipPath>
</defs>
</svg>
