<svg width="91" height="122" viewBox="0 0 91 122" fill="none" xmlns="http://www.w3.org/2000/svg">
<path d="M60.0909 39.9116C60.0909 57.0103 46.7077 70.8715 30.1987 70.8715C13.6898 70.8715 0.306641 57.0103 0.306641 39.9116C0.306641 22.8129 13.6898 8.95166 30.1987 8.95166C46.7077 8.95166 60.0909 22.8129 60.0909 39.9116Z" fill="#FBE5A5"/>
<g clip-path="url(#clip0_108_217)">
<path fill-rule="evenodd" clip-rule="evenodd" d="M32.623 35.488L40.5533 120.919L78.4025 120.558L85.2514 34.7671L32.623 35.488Z" fill="#F4C5A7" stroke="#857B61" stroke-width="7.46667" stroke-linejoin="round"/>
<path d="M48.5583 99.2266C49.3114 98.8113 50.1986 98.712 51.0248 98.9505C51.8511 99.189 52.5488 99.7458 52.9647 100.499C53.3806 101.251 53.4806 102.138 53.2427 102.965C53.0048 103.791 52.4485 104.489 51.6961 104.906C50.9437 105.322 50.0567 105.423 49.23 105.186C48.4034 104.949 47.7048 104.393 47.2878 103.641C46.8708 102.888 46.7695 102.002 47.0061 101.175C47.2427 100.348 47.798 99.649 48.5498 99.2314" fill="#56463A"/>
<path d="M48.5583 99.2266C49.3114 98.8113 50.1986 98.712 51.0248 98.9505C51.8511 99.189 52.5488 99.7458 52.9647 100.499C53.3806 101.251 53.4806 102.138 53.2427 102.965C53.0048 103.791 52.4485 104.489 51.6961 104.906C50.9437 105.322 50.0567 105.423 49.23 105.186C48.4034 104.949 47.7048 104.393 47.2878 103.641C46.8708 102.888 46.7695 102.002 47.0061 101.175C47.2427 100.348 47.798 99.649 48.5498 99.2314" stroke="#937E42" stroke-width="2" stroke-linecap="round" stroke-linejoin="round"/>
<path fill-rule="evenodd" clip-rule="evenodd" d="M44.1562 3.40632L51.3656 87.7558L52.8075 115.512C52.8075 115.512 62.1825 115.151 59.6564 115.151L54.2494 33.3252C54.2494 33.3252 52.9673 2.50244 51.3656 2.68538C48.1164 3.05651 44.1562 3.40632 44.1562 3.40632Z" fill="#89B480" stroke="#857B61" stroke-linecap="round" stroke-linejoin="round"/>
<path d="M57.7302 101.136C58.4833 100.721 59.3704 100.621 60.1967 100.86C61.023 101.098 61.7207 101.655 62.1366 102.408C62.5525 103.161 62.6525 104.048 62.4146 104.874C62.1767 105.7 61.6204 106.399 60.868 106.815C60.1155 107.232 59.2285 107.332 58.4019 107.095C57.5753 106.858 56.8767 106.302 56.4597 105.55C56.0427 104.798 55.9413 103.911 56.178 103.084C56.4146 102.257 56.9698 101.558 57.7217 101.141" fill="#56463A"/>
<path d="M57.7302 101.136C58.4833 100.721 59.3704 100.621 60.1967 100.86C61.023 101.098 61.7207 101.655 62.1366 102.408C62.5525 103.161 62.6525 104.048 62.4146 104.874C62.1767 105.7 61.6204 106.399 60.868 106.815C60.1155 107.232 59.2285 107.332 58.4019 107.095C57.5753 106.858 56.8767 106.302 56.4597 105.55C56.0427 104.798 55.9413 103.911 56.178 103.084C56.4146 102.257 56.9698 101.558 57.7217 101.141" stroke="#937E42" stroke-width="2" stroke-linecap="round" stroke-linejoin="round"/>
<path fill-rule="evenodd" clip-rule="evenodd" d="M46.6797 34.7671L51.3658 87.7559L52.8076 115.512C52.8076 115.512 62.1827 115.151 59.6565 115.151L54.2495 33.3252C54.2495 33.3252 54.0468 33.8462 52.4472 34.0461C46.6797 34.7671 46.6797 34.7671 46.6797 34.7671Z" fill="#81A47A" stroke="#726A55"/>
<path d="M89.0396 31.5229H30.2751C29.5806 31.5229 29.0176 32.572 29.0176 33.866C29.0176 35.16 29.5806 36.209 30.2751 36.209H89.0396C89.7341 36.209 90.2971 35.16 90.2971 33.866C90.2971 32.572 89.7341 31.5229 89.0396 31.5229Z" fill="#D6D6D6" stroke="#857B61" stroke-width="7.46667" stroke-linecap="round" stroke-linejoin="round"/>
<path d="M62.4158 93.9268C63.1688 93.5115 64.056 93.4122 64.8822 93.6507C65.7085 93.8892 66.4063 94.446 66.8221 95.1988C67.238 95.9515 67.338 96.8386 67.1001 97.665C66.8622 98.4915 66.306 99.1897 65.5535 99.6061C64.8011 100.023 63.9141 100.123 63.0875 99.886C62.2608 99.6487 61.5623 99.0929 61.1452 98.3408C60.7282 97.5887 60.6269 96.7018 60.8635 95.875C61.1002 95.0482 61.6554 94.3492 62.4072 93.9316" fill="#56463A"/>
<path d="M62.4158 93.9268C63.1688 93.5115 64.056 93.4122 64.8822 93.6507C65.7085 93.8892 66.4063 94.446 66.8221 95.1988C67.238 95.9515 67.338 96.8386 67.1001 97.665C66.8622 98.4915 66.306 99.1897 65.5535 99.6061C64.8011 100.023 63.9141 100.123 63.0875 99.886C62.2608 99.6487 61.5623 99.0929 61.1452 98.3408C60.7282 97.5887 60.6269 96.7018 60.8635 95.875C61.1002 95.0482 61.6554 94.3492 62.4072 93.9316" stroke="#937E42" stroke-width="2" stroke-linecap="round" stroke-linejoin="round"/>
<path d="M66.2771 102.167C67.0302 101.751 67.9173 101.652 68.7436 101.89C69.5698 102.129 70.2676 102.686 70.6835 103.439C71.0994 104.191 71.1993 105.078 70.9615 105.905C70.7236 106.731 70.1673 107.429 69.4148 107.846C68.6624 108.262 67.7754 108.363 66.9488 108.126C66.1222 107.888 65.4236 107.333 65.0066 106.581C64.5895 105.828 64.4882 104.942 64.7248 104.115C64.9615 103.288 65.5167 102.589 66.2685 102.171" fill="#56463A"/>
<path d="M66.2771 102.167C67.0302 101.751 67.9173 101.652 68.7436 101.89C69.5698 102.129 70.2676 102.686 70.6835 103.439C71.0994 104.191 71.1993 105.078 70.9615 105.905C70.7236 106.731 70.1673 107.429 69.4148 107.846C68.6624 108.262 67.7754 108.363 66.9488 108.126C66.1222 107.888 65.4236 107.333 65.0066 106.581C64.5895 105.828 64.4882 104.942 64.7248 104.115C64.9615 103.288 65.5167 102.589 66.2685 102.171" stroke="#937E42" stroke-width="2" stroke-linecap="round" stroke-linejoin="round"/>
<path d="M74.3123 94.6475C75.0653 94.2322 75.9525 94.1329 76.7787 94.3714C77.605 94.6099 78.3027 95.1667 78.7186 95.9195C79.1345 96.6722 79.2345 97.5593 78.9966 98.3857C78.7587 99.2122 78.2024 99.9104 77.45 100.327C76.6976 100.743 75.8106 100.844 74.9839 100.607C74.1573 100.369 73.4587 99.8136 73.0417 99.0615C72.6247 98.3094 72.5234 97.4225 72.76 96.5957C72.9966 95.7689 73.5519 95.0699 74.3037 94.6523" fill="#56463A"/>
<path d="M74.3123 94.6475C75.0653 94.2322 75.9525 94.1329 76.7787 94.3714C77.605 94.6099 78.3027 95.1667 78.7186 95.9195C79.1345 96.6722 79.2345 97.5593 78.9966 98.3857C78.7587 99.2122 78.2024 99.9104 77.45 100.327C76.6976 100.743 75.8106 100.844 74.9839 100.607C74.1573 100.369 73.4587 99.8136 73.0417 99.0615C72.6247 98.3094 72.5234 97.4225 72.76 96.5957C72.9966 95.7689 73.5519 95.0699 74.3037 94.6523" stroke="#937E42" stroke-width="2" stroke-linecap="round" stroke-linejoin="round"/>
<path d="M58.7615 105.816C59.5145 105.401 60.4017 105.302 61.2279 105.54C62.0542 105.779 62.752 106.336 63.1678 107.088C63.5837 107.841 63.6837 108.728 63.4458 109.555C63.2079 110.381 62.6517 111.079 61.8992 111.496C61.1468 111.912 60.2598 112.013 59.4332 111.776C58.6065 111.538 57.908 110.983 57.4909 110.23C57.0739 109.478 56.9726 108.591 57.2092 107.765C57.4459 106.938 58.0011 106.239 58.7529 105.821" fill="#56463A"/>
<path d="M58.7615 105.816C59.5145 105.401 60.4017 105.302 61.2279 105.54C62.0542 105.779 62.752 106.336 63.1678 107.088C63.5837 107.841 63.6837 108.728 63.4458 109.555C63.2079 110.381 62.6517 111.079 61.8992 111.496C61.1468 111.912 60.2598 112.013 59.4332 111.776C58.6065 111.538 57.908 110.983 57.4909 110.23C57.0739 109.478 56.9726 108.591 57.2092 107.765C57.4459 106.938 58.0011 106.239 58.7529 105.821" stroke="#937E42" stroke-width="2" stroke-linecap="round" stroke-linejoin="round"/>
<path d="M69.2654 112.311C70.0184 111.895 70.9056 111.796 71.7319 112.034C72.5581 112.273 73.2559 112.83 73.6717 113.583C74.0876 114.335 74.1876 115.222 73.9497 116.049C73.7119 116.875 73.1556 117.573 72.4031 117.99C71.6507 118.406 70.7637 118.507 69.9371 118.27C69.1105 118.032 68.4119 117.477 67.9948 116.725C67.5778 115.972 67.4765 115.086 67.7131 114.259C67.9498 113.432 68.505 112.733 69.2568 112.315" fill="#56463A"/>
<path d="M69.2654 112.311C70.0184 111.895 70.9056 111.796 71.7319 112.034C72.5581 112.273 73.2559 112.83 73.6717 113.583C74.0876 114.335 74.1876 115.222 73.9497 116.049C73.7119 116.875 73.1556 117.573 72.4031 117.99C71.6507 118.406 70.7637 118.507 69.9371 118.27C69.1105 118.032 68.4119 117.477 67.9948 116.725C67.5778 115.972 67.4765 115.086 67.7131 114.259C67.9498 113.432 68.505 112.733 69.2568 112.315" stroke="#937E42" stroke-width="2" stroke-linecap="round" stroke-linejoin="round"/>
<path d="M73.5916 105.101C74.3446 104.686 75.2318 104.587 76.058 104.825C76.8843 105.064 77.582 105.62 77.9979 106.373C78.4138 107.126 78.5138 108.013 78.2759 108.839C78.038 109.666 77.4817 110.364 76.7293 110.78C75.9769 111.197 75.0899 111.298 74.2632 111.06C73.4366 110.823 72.738 110.267 72.321 109.515C71.904 108.763 71.8027 107.876 72.0393 107.049C72.2759 106.222 72.8312 105.523 73.583 105.106" fill="#56463A"/>
<path d="M73.5916 105.101C74.3446 104.686 75.2318 104.587 76.058 104.825C76.8843 105.064 77.582 105.62 77.9979 106.373C78.4138 107.126 78.5138 108.013 78.2759 108.839C78.038 109.666 77.4817 110.364 76.7293 110.78C75.9769 111.197 75.0899 111.298 74.2632 111.06C73.4366 110.823 72.738 110.267 72.321 109.515C71.904 108.763 71.8027 107.876 72.0393 107.049C72.2759 106.222 72.8312 105.523 73.583 105.106" stroke="#937E42" stroke-width="2" stroke-linecap="round" stroke-linejoin="round"/>
<path d="M60.0935 113.184C60.8466 112.768 61.7337 112.669 62.56 112.908C63.3862 113.146 64.084 113.703 64.4999 114.456C64.9158 115.208 65.0157 116.095 64.7779 116.922C64.54 117.748 63.9837 118.446 63.2313 118.863C62.4788 119.279 61.5918 119.38 60.7652 119.143C59.9386 118.906 59.24 118.35 58.823 117.598C58.4059 116.846 58.3046 115.959 58.5413 115.132C58.7779 114.305 59.3331 113.606 60.0849 113.188" fill="#56463A"/>
<path d="M60.0935 113.184C60.8466 112.768 61.7337 112.669 62.56 112.908C63.3862 113.146 64.084 113.703 64.4999 114.456C64.9158 115.208 65.0157 116.095 64.7779 116.922C64.54 117.748 63.9837 118.446 63.2313 118.863C62.4788 119.279 61.5918 119.38 60.7652 119.143C59.9386 118.906 59.24 118.35 58.823 117.598C58.4059 116.846 58.3046 115.959 58.5413 115.132C58.7779 114.305 59.3331 113.606 60.0849 113.188" stroke="#937E42" stroke-width="2" stroke-linecap="round" stroke-linejoin="round"/>
<path d="M52.324 113.031C53.077 112.616 53.9642 112.517 54.7904 112.755C55.6167 112.994 56.3145 113.551 56.7303 114.303C57.1462 115.056 57.2462 115.943 57.0083 116.77C56.7704 117.596 56.2142 118.294 55.4617 118.711C54.7093 119.127 53.8223 119.228 52.9957 118.99C52.1691 118.753 51.4705 118.197 51.0534 117.445C50.6364 116.693 50.5351 115.806 50.7717 114.979C51.0084 114.153 51.5636 113.454 52.3154 113.036" fill="#56463A"/>
<path d="M52.324 113.031C53.077 112.616 53.9642 112.517 54.7904 112.755C55.6167 112.994 56.3145 113.551 56.7303 114.303C57.1462 115.056 57.2462 115.943 57.0083 116.77C56.7704 117.596 56.2142 118.294 55.4617 118.711C54.7093 119.127 53.8223 119.228 52.9957 118.99C52.1691 118.753 51.4705 118.197 51.0534 117.445C50.6364 116.693 50.5351 115.806 50.7717 114.979C51.0084 114.153 51.5636 113.454 52.3154 113.036" stroke="#937E42" stroke-width="2" stroke-linecap="round" stroke-linejoin="round"/>
<path d="M46.5564 108.706C47.3095 108.291 48.1966 108.191 49.0229 108.43C49.8491 108.669 50.5469 109.225 50.9628 109.978C51.3786 110.731 51.4786 111.618 51.2408 112.444C51.0029 113.271 50.4466 113.969 49.6941 114.385C48.9417 114.802 48.0547 114.903 47.2281 114.665C46.4015 114.428 45.7029 113.872 45.2859 113.12C44.8688 112.368 44.7675 111.481 45.0041 110.654C45.2408 109.827 45.796 109.128 46.5478 108.711" fill="#56463A"/>
<path d="M46.5564 108.706C47.3095 108.291 48.1966 108.191 49.0229 108.43C49.8491 108.669 50.5469 109.225 50.9628 109.978C51.3786 110.731 51.4786 111.618 51.2408 112.444C51.0029 113.271 50.4466 113.969 49.6941 114.385C48.9417 114.802 48.0547 114.903 47.2281 114.665C46.4015 114.428 45.7029 113.872 45.2859 113.12C44.8688 112.368 44.7675 111.481 45.0041 110.654C45.2408 109.827 45.796 109.128 46.5478 108.711" stroke="#937E42" stroke-width="2" stroke-linecap="round" stroke-linejoin="round"/>
<path d="M41.1345 100.962C41.8876 100.546 42.7747 100.447 43.601 100.685C44.4273 100.924 45.125 101.481 45.5409 102.233C45.9568 102.986 46.0568 103.873 45.8189 104.7C45.581 105.526 45.0247 106.224 44.2723 106.641C43.5198 107.057 42.6328 107.158 41.8062 106.921C40.9796 106.683 40.281 106.128 39.864 105.375C39.447 104.623 39.3456 103.736 39.5823 102.91C39.8189 102.083 40.3741 101.384 41.126 100.966" fill="#56463A"/>
<path d="M41.1345 100.962C41.8876 100.546 42.7747 100.447 43.601 100.685C44.4273 100.924 45.125 101.481 45.5409 102.233C45.9568 102.986 46.0568 103.873 45.8189 104.7C45.581 105.526 45.0247 106.224 44.2723 106.641C43.5198 107.057 42.6328 107.158 41.8062 106.921C40.9796 106.683 40.281 106.128 39.864 105.375C39.447 104.623 39.3456 103.736 39.5823 102.91C39.8189 102.083 40.3741 101.384 41.126 100.966" stroke="#937E42" stroke-width="2" stroke-linecap="round" stroke-linejoin="round"/>
<path d="M44.6033 112.409C45.3563 111.994 46.2435 111.895 47.0697 112.133C47.896 112.372 48.5938 112.928 49.0096 113.681C49.4255 114.434 49.5255 115.321 49.2876 116.147C49.0497 116.974 48.4935 117.672 47.741 118.089C46.9886 118.505 46.1016 118.606 45.275 118.368C44.4483 118.131 43.7498 117.575 43.3327 116.823C42.9157 116.071 42.8144 115.184 43.051 114.357C43.2877 113.531 43.8429 112.832 44.5947 112.414" fill="#56463A"/>
<path d="M44.6033 112.409C45.3563 111.994 46.2435 111.895 47.0697 112.133C47.896 112.372 48.5938 112.928 49.0096 113.681C49.4255 114.434 49.5255 115.321 49.2876 116.147C49.0497 116.974 48.4935 117.672 47.741 118.089C46.9886 118.505 46.1016 118.606 45.275 118.368C44.4483 118.131 43.7498 117.575 43.3327 116.823C42.9157 116.071 42.8144 115.184 43.051 114.357C43.2877 113.531 43.8429 112.832 44.5947 112.414" stroke="#937E42" stroke-width="2" stroke-linecap="round" stroke-linejoin="round"/>
<path d="M41.9705 93.2032C42.7235 92.7879 43.6107 92.6886 44.4369 92.9271C45.2632 93.1656 45.9609 93.7224 46.3768 94.4752C46.7927 95.2279 46.8927 96.115 46.6548 96.9414C46.4169 97.7679 45.8606 98.466 45.1082 98.8825C44.3558 99.2989 43.4688 99.3996 42.6422 99.1623C41.8155 98.9251 41.1169 98.3693 40.6999 97.6172C40.2829 96.8651 40.1816 95.9781 40.4182 95.1513C40.6548 94.3245 41.2101 93.6255 41.9619 93.2079" fill="#56463A"/>
<path d="M41.9705 93.2032C42.7235 92.7879 43.6107 92.6886 44.4369 92.9271C45.2632 93.1656 45.9609 93.7224 46.3768 94.4752C46.7927 95.2279 46.8927 96.115 46.6548 96.9414C46.4169 97.7679 45.8606 98.466 45.1082 98.8825C44.3558 99.2989 43.4688 99.3996 42.6422 99.1623C41.8155 98.9251 41.1169 98.3693 40.6999 97.6172C40.2829 96.8651 40.1816 95.9781 40.4182 95.1513C40.6548 94.3245 41.2101 93.6255 41.9619 93.2079" stroke="#937E42" stroke-width="2" stroke-linecap="round" stroke-linejoin="round"/>
<path d="M72.0193 97.6949C72.7723 97.2796 73.6595 97.1803 74.4858 97.4188C75.312 97.6573 76.0098 98.2141 76.4257 98.9669C76.8415 99.7196 76.9415 100.607 76.7036 101.433C76.4658 102.26 75.9095 102.958 75.157 103.374C74.4046 103.791 73.5176 103.891 72.691 103.654C71.8644 103.417 71.1658 102.861 70.7487 102.109C70.3317 101.357 70.2304 100.47 70.467 99.643C70.7037 98.8162 71.2589 98.1172 72.0107 97.6996" fill="#56463A"/>
<path d="M72.0193 97.6949C72.7723 97.2796 73.6595 97.1803 74.4858 97.4188C75.312 97.6573 76.0098 98.2141 76.4257 98.9669C76.8415 99.7196 76.9415 100.607 76.7036 101.433C76.4658 102.26 75.9095 102.958 75.157 103.374C74.4046 103.791 73.5176 103.891 72.691 103.654C71.8644 103.417 71.1658 102.861 70.7487 102.109C70.3317 101.357 70.2304 100.47 70.467 99.643C70.7037 98.8162 71.2589 98.1172 72.0107 97.6996" stroke="#937E42" stroke-width="2" stroke-linecap="round" stroke-linejoin="round"/>
</g>
<defs>
<clipPath id="clip0_108_217">
<rect width="62.1627" height="120.7" fill="white" transform="translate(28.5762 0.664062)"/>
</clipPath>
</defs>
</svg>
